%TF.GenerationSoftware,KiCad,Pcbnew,(6.0.0)*%
%TF.CreationDate,2022-08-16T23:30:09+02:00*%
%TF.ProjectId,SofleKeyboardTopPlate,536f666c-654b-4657-9962-6f617264546f,rev?*%
%TF.SameCoordinates,Original*%
%TF.FileFunction,Profile,NP*%
%FSLAX46Y46*%
G04 Gerber Fmt 4.6, Leading zero omitted, Abs format (unit mm)*
G04 Created by KiCad (PCBNEW (6.0.0)) date 2022-08-16 23:30:09*
%MOMM*%
%LPD*%
G01*
G04 APERTURE LIST*
%ADD10C,0.090000*%
%TA.AperFunction,Profile*%
%ADD11C,0.090000*%
%TD*%
%TA.AperFunction,Profile*%
%ADD12C,0.200000*%
%TD*%
G04 APERTURE END LIST*
D10*
X111897728Y-39233192D02*
X111897728Y-39357371D01*
X111897728Y-39719872D01*
X111897728Y-40305632D01*
X111897728Y-41099593D01*
X111897728Y-42086695D01*
X111897728Y-43251877D01*
X111897728Y-44580081D01*
X111897728Y-46056245D01*
X111897728Y-47665312D01*
X111897728Y-49392220D01*
X111897728Y-51221910D01*
X111897728Y-53139322D01*
X111897728Y-55129396D01*
X111897728Y-57177072D01*
X111897728Y-59267292D01*
X111897728Y-61384994D01*
X111897728Y-63515119D01*
X111897728Y-65642607D01*
X111897728Y-67752399D01*
X111897728Y-69829435D01*
X111897728Y-71858654D01*
X111897728Y-73824997D01*
X111897728Y-75713405D01*
X111897728Y-77508816D01*
X111897728Y-79196173D01*
X111897728Y-80760414D01*
X111897728Y-82186480D01*
X111897728Y-83459311D01*
X111897728Y-84563848D01*
X111897728Y-85485030D01*
X111897728Y-86207799D01*
X111897728Y-86717093D01*
X209490989Y-42757438D02*
X206016115Y-42108339D01*
X108567505Y-90728175D02*
X92375830Y-90728175D01*
D11*
X88558158Y-147817651D02*
X83769878Y-134661973D01*
X171594000Y-79904995D02*
X185593998Y-79904995D01*
X128424441Y-58304998D02*
X114424443Y-58304998D01*
X108771941Y-99332462D02*
X108771941Y-112332461D01*
D10*
X227006393Y-130849585D02*
X227182365Y-130843310D01*
X227346742Y-130825021D01*
X227499919Y-130795518D01*
X227642288Y-130755602D01*
X227774245Y-130706074D01*
X227896184Y-130647736D01*
X228008497Y-130581388D01*
X228111580Y-130507830D01*
X228205826Y-130427865D01*
X228291630Y-130342293D01*
X228369385Y-130251915D01*
X228439485Y-130157532D01*
X228502325Y-130059945D01*
X228558298Y-129959956D01*
X228607799Y-129858364D01*
X228651221Y-129755971D01*
X228688959Y-129653578D01*
X228721407Y-129551986D01*
X228748958Y-129451997D01*
X228772007Y-129354410D01*
X228790948Y-129260027D01*
X228806174Y-129169649D01*
X228827060Y-129004112D01*
X228837818Y-128864206D01*
X228841599Y-128756340D01*
X228840842Y-128662358D01*
D11*
X171574436Y-60854998D02*
X185574434Y-60854998D01*
D10*
X127346671Y-120125132D02*
X127340159Y-120248139D01*
X127321039Y-120353472D01*
X127289931Y-120442477D01*
X127222145Y-120548304D01*
X127130872Y-120624947D01*
X127018206Y-120676940D01*
X126886239Y-120708819D01*
X126788571Y-120721135D01*
X126683875Y-120727871D01*
X126572772Y-120730369D01*
X126455880Y-120729973D01*
X126333821Y-120728027D01*
X126207214Y-120725874D01*
X126076680Y-120724858D01*
D11*
X114424443Y-101454993D02*
X128424441Y-101454993D01*
X223713549Y-89097634D02*
X209713551Y-89097634D01*
D10*
X87659171Y-151980982D02*
X87857907Y-151901985D01*
X88129126Y-151785581D01*
X88471516Y-151634051D01*
X88883767Y-151449673D01*
X89364566Y-151234729D01*
X89912602Y-150991499D01*
X90526565Y-150722263D01*
X91205142Y-150429301D01*
X91947023Y-150114893D01*
X92750896Y-149781320D01*
X93615451Y-149430862D01*
X94539375Y-149065798D01*
X95521357Y-148688410D01*
X96560087Y-148300978D01*
X97654252Y-147905781D01*
X98802542Y-147505100D01*
X100003645Y-147101216D01*
X101256250Y-146696407D01*
X102559046Y-146292955D01*
X103910722Y-145893140D01*
X105309965Y-145499242D01*
X106755466Y-145113542D01*
X108245912Y-144738318D01*
X109779992Y-144375853D01*
X111356395Y-144028425D01*
X112973810Y-143698316D01*
X114630926Y-143387805D01*
X116326430Y-143099172D01*
X118059013Y-142834699D01*
X119827362Y-142596664D01*
X121630166Y-142387348D01*
X123466115Y-142209033D01*
D11*
X162162749Y-127889510D02*
X159731677Y-141676820D01*
X166524436Y-110455000D02*
X152524438Y-110455000D01*
D10*
X100951857Y-120724858D02*
X89458351Y-120724858D01*
D11*
X171594000Y-93904994D02*
X171594000Y-79904995D01*
X128424441Y-77379996D02*
X114424443Y-77379996D01*
X114424443Y-82404995D02*
X128424441Y-82404995D01*
X133474440Y-112954992D02*
X133474440Y-98954993D01*
X204663560Y-89097634D02*
X190663561Y-89097634D01*
D10*
X89458351Y-120724858D02*
X89350195Y-120739346D01*
X89244249Y-120762612D01*
X89140862Y-120794133D01*
X89040382Y-120833385D01*
X88943159Y-120879845D01*
X88849541Y-120932991D01*
X88759877Y-120992298D01*
X88674516Y-121057244D01*
X88593807Y-121127306D01*
X88518099Y-121201961D01*
X88470577Y-121254025D01*
D11*
X133474440Y-98954993D02*
X147474439Y-98954993D01*
X152524438Y-91404994D02*
X152524438Y-77404996D01*
X147473559Y-79904995D02*
X147473559Y-93904994D01*
D10*
X171997757Y-35768911D02*
X171655573Y-35705414D01*
D11*
X223713557Y-108147632D02*
X209713559Y-108147632D01*
D12*
X109874443Y-94805002D02*
G75*
G03*
X109874443Y-94805002I-2000000J0D01*
G01*
D11*
X204663560Y-127222646D02*
X190663561Y-127222646D01*
X185574434Y-74854996D02*
X171574436Y-74854996D01*
X166524436Y-96455002D02*
X166524436Y-110455000D01*
D10*
X172265871Y-35818305D02*
X171997757Y-35768911D01*
D11*
X133474440Y-41805000D02*
X147474439Y-41805000D01*
D10*
X126076680Y-119560696D02*
X126207214Y-119559283D01*
X126333821Y-119556010D01*
X126455880Y-119552323D01*
X126572772Y-119549670D01*
X126683875Y-119549497D01*
X126788571Y-119553251D01*
X126886239Y-119562380D01*
X126976258Y-119578330D01*
X127095591Y-119618210D01*
X127194227Y-119681577D01*
X127270074Y-119773315D01*
X127321039Y-119898307D01*
X127340159Y-120002521D01*
X127346671Y-120125132D01*
D11*
X171594000Y-112954992D02*
X171594000Y-98954993D01*
X128424441Y-101454993D02*
X128424441Y-115454991D01*
X190663561Y-108147632D02*
X190663561Y-94147634D01*
X223713557Y-127222646D02*
X209713559Y-127222646D01*
D10*
X186825017Y-130849585D02*
X186934776Y-130849585D01*
X187254956Y-130849585D01*
X187771906Y-130849585D01*
X188471978Y-130849585D01*
X189341523Y-130849585D01*
X190366892Y-130849585D01*
X191534436Y-130849585D01*
X192830505Y-130849585D01*
X194241451Y-130849585D01*
X195753624Y-130849585D01*
X197353377Y-130849585D01*
X199027058Y-130849585D01*
X200761021Y-130849585D01*
X202541614Y-130849585D01*
X204355191Y-130849585D01*
X206188100Y-130849585D01*
X208026694Y-130849585D01*
X209857324Y-130849585D01*
X211666340Y-130849585D01*
X213440093Y-130849585D01*
X215164934Y-130849585D01*
X216827215Y-130849585D01*
X218413286Y-130849585D01*
X219909498Y-130849585D01*
X221302202Y-130849585D01*
X222577749Y-130849585D01*
X223722491Y-130849585D01*
X224722777Y-130849585D01*
X225564959Y-130849585D01*
X226235389Y-130849585D01*
X226720416Y-130849585D01*
X227006393Y-130849585D01*
D11*
X114424443Y-115454991D02*
X114424443Y-101454993D01*
X209713559Y-113222647D02*
X223713557Y-113222647D01*
X209713559Y-108147632D02*
X209713559Y-94147634D01*
X209713559Y-70047637D02*
X209713559Y-56047638D01*
D10*
X178781688Y-120477909D02*
X184496671Y-129403204D01*
D11*
X204663552Y-70047637D02*
X190663553Y-70047637D01*
X190663561Y-75097636D02*
X204663560Y-75097636D01*
X223713557Y-113222647D02*
X223713557Y-127222646D01*
D10*
X150023237Y-120125132D02*
X150016725Y-120248139D01*
X149997605Y-120353472D01*
X149966497Y-120442477D01*
X149898711Y-120548304D01*
X149807438Y-120624947D01*
X149694772Y-120676940D01*
X149562804Y-120708819D01*
X149465137Y-120721135D01*
X149360441Y-120727871D01*
X149249337Y-120730369D01*
X149132446Y-120729973D01*
X149010386Y-120728027D01*
X148883779Y-120725874D01*
X148753245Y-120724858D01*
D11*
X185593998Y-93904994D02*
X171594000Y-93904994D01*
X114424443Y-58304998D02*
X114424443Y-44305000D01*
D10*
X89931829Y-90728175D02*
X89814506Y-90733876D01*
X89701008Y-90750637D01*
X89591850Y-90777940D01*
X89487550Y-90815268D01*
X89388624Y-90862104D01*
X89295588Y-90917933D01*
X89208961Y-90982236D01*
X89129258Y-91054498D01*
X89056996Y-91134200D01*
X88992693Y-91220828D01*
X88936865Y-91313863D01*
X88890028Y-91412789D01*
X88852700Y-91517089D01*
X88825397Y-91626247D01*
X88808636Y-91739745D01*
X88802935Y-91857068D01*
D12*
X133249560Y-97157641D02*
G75*
G03*
X133249560Y-97157641I-1999999J0D01*
G01*
D11*
X166524436Y-91404994D02*
X152524438Y-91404994D01*
D10*
X148753245Y-119560696D02*
X148883779Y-119559283D01*
X149010386Y-119556010D01*
X149132446Y-119552323D01*
X149249337Y-119549670D01*
X149360441Y-119549497D01*
X149465137Y-119553251D01*
X149562804Y-119562380D01*
X149652824Y-119578330D01*
X149772157Y-119618210D01*
X149870793Y-119681577D01*
X149946640Y-119773315D01*
X149997605Y-119898307D01*
X150016725Y-120002521D01*
X150023237Y-120125132D01*
D11*
X185593998Y-41805000D02*
X185593998Y-55804998D01*
X126473561Y-124757630D02*
X140473559Y-124757630D01*
X147473559Y-93904994D02*
X133473560Y-93904994D01*
D12*
X133401560Y-58878638D02*
G75*
G03*
X133401560Y-58878638I-1999999J0D01*
G01*
D11*
X190663561Y-127222646D02*
X190663561Y-113222647D01*
X171594000Y-41805000D02*
X185593998Y-41805000D01*
X107145447Y-141606820D02*
X104714372Y-127819510D01*
X223713557Y-70047637D02*
X209713559Y-70047637D01*
D10*
X112941936Y-37843246D02*
X112841792Y-37851579D01*
X112748246Y-37866995D01*
X112580048Y-37917151D01*
X112435549Y-37989859D01*
X112312954Y-38081263D01*
X112210472Y-38187508D01*
X112126308Y-38304739D01*
X112058671Y-38429102D01*
X112005766Y-38556741D01*
X111965800Y-38683801D01*
X111936982Y-38806428D01*
X111917516Y-38920765D01*
X111905610Y-39022958D01*
X111898005Y-39145046D01*
X111897728Y-39233192D01*
X134289357Y-120125132D02*
X134295868Y-120002521D01*
X134314988Y-119898307D01*
X134346096Y-119811043D01*
X134413882Y-119708763D01*
X134505154Y-119636482D01*
X134617821Y-119589315D01*
X134749788Y-119562380D01*
X134847456Y-119553251D01*
X134952151Y-119549497D01*
X135063255Y-119549670D01*
X135180147Y-119552323D01*
X135302206Y-119556010D01*
X135428813Y-119559283D01*
X135559348Y-119560696D01*
D11*
X223713549Y-75097636D02*
X223713549Y-89097634D01*
D10*
X228840842Y-47100132D02*
X228831729Y-46968143D01*
X228805977Y-46849538D01*
X228765963Y-46743645D01*
X228714063Y-46649792D01*
X228652654Y-46567308D01*
X228584114Y-46495521D01*
X228510820Y-46433759D01*
X228435149Y-46381350D01*
X228322385Y-46318804D01*
X228217644Y-46273525D01*
X228128948Y-46243245D01*
X228038569Y-46219952D01*
X228029457Y-46218187D01*
D11*
X114424443Y-96404994D02*
X114424443Y-82404995D01*
X101713852Y-143029380D02*
X88558158Y-147817651D01*
X185593998Y-112954992D02*
X171594000Y-112954992D01*
X166524436Y-72354996D02*
X152524438Y-72354996D01*
X126473561Y-138757628D02*
X126473561Y-124757630D01*
X204663560Y-113222647D02*
X204663560Y-127222646D01*
X166524436Y-53304999D02*
X152524438Y-53304999D01*
D10*
X148753245Y-120724858D02*
X135559348Y-120724858D01*
D11*
X209713559Y-127222646D02*
X209713559Y-113222647D01*
X148375446Y-125458438D02*
X162162749Y-127889510D01*
X185593998Y-79904995D02*
X185593998Y-93904994D01*
D10*
X89457462Y-120723479D02*
X89457462Y-120723479D01*
D11*
X223713557Y-94147634D02*
X223713557Y-108147632D01*
X96925573Y-129873685D02*
X101713852Y-143029380D01*
X166524436Y-77404996D02*
X166524436Y-91404994D01*
X118501682Y-125388438D02*
X120932754Y-139175748D01*
D10*
X111612791Y-120125132D02*
X111619302Y-120002521D01*
X111638422Y-119898307D01*
X111669530Y-119811043D01*
X111737316Y-119708763D01*
X111828589Y-119636482D01*
X111941255Y-119589315D01*
X112073222Y-119562380D01*
X112170890Y-119553251D01*
X112275586Y-119549497D01*
X112386689Y-119549670D01*
X112503581Y-119552323D01*
X112625640Y-119556010D01*
X112752247Y-119559283D01*
X112882782Y-119560696D01*
D11*
X108771941Y-112332461D02*
X93171941Y-112332461D01*
X93171941Y-99332462D02*
X108771941Y-99332462D01*
X185593998Y-55804998D02*
X171594000Y-55804998D01*
X140473559Y-138757628D02*
X126473561Y-138757628D01*
X120932754Y-139175748D02*
X107145447Y-141606820D01*
X140473559Y-124757630D02*
X140473559Y-138757628D01*
D10*
X111864999Y-89579821D02*
X111859297Y-89697143D01*
X111842536Y-89810641D01*
X111815233Y-89919799D01*
X111777905Y-90024099D01*
X111731068Y-90123025D01*
X111675240Y-90216060D01*
X111610937Y-90302688D01*
X111538675Y-90382391D01*
X111458972Y-90454652D01*
X111372345Y-90518955D01*
X111279309Y-90574784D01*
X111180383Y-90621620D01*
X111076083Y-90658948D01*
X110966925Y-90686251D01*
X110853427Y-90703012D01*
X110736105Y-90708714D01*
D11*
X185593998Y-98954993D02*
X185593998Y-112954992D01*
X114424443Y-77379996D02*
X114424443Y-63379997D01*
X128424441Y-82404995D02*
X128424441Y-96404994D01*
X204663560Y-108147632D02*
X190663561Y-108147632D01*
D10*
X206016115Y-42108339D02*
X206126527Y-42128833D01*
X206236835Y-42149308D01*
X206347037Y-42169764D01*
X206457131Y-42190200D01*
X206567117Y-42210619D01*
X206676993Y-42231020D01*
X206786758Y-42251404D01*
X206896410Y-42271772D01*
X207005949Y-42292125D01*
X207115372Y-42312462D01*
X207224680Y-42332786D01*
X207333869Y-42353096D01*
X207442940Y-42373393D01*
X207551891Y-42393677D01*
X207660720Y-42413950D01*
X207769426Y-42434213D01*
X207878009Y-42454464D01*
X207986466Y-42474706D01*
X208094796Y-42494939D01*
X208202999Y-42515164D01*
X208311073Y-42535380D01*
X208419016Y-42555590D01*
X208526827Y-42575793D01*
X208634505Y-42595991D01*
X208742049Y-42616183D01*
X208849458Y-42636370D01*
X208956729Y-42656554D01*
X209063862Y-42676735D01*
X209170856Y-42696913D01*
X209277709Y-42717089D01*
X209384421Y-42737263D01*
X209490989Y-42757438D01*
X163093649Y-144096386D02*
X166893073Y-121783192D01*
X100951857Y-119560696D02*
X101082391Y-119559283D01*
X101208998Y-119556010D01*
X101331057Y-119552323D01*
X101447949Y-119549670D01*
X101559052Y-119549497D01*
X101663748Y-119553251D01*
X101761416Y-119562380D01*
X101851435Y-119578330D01*
X101970768Y-119618210D01*
X102069404Y-119681577D01*
X102145251Y-119773315D01*
X102196216Y-119898307D01*
X102215336Y-120002521D01*
X102221848Y-120125132D01*
X135559348Y-119560696D02*
X148753245Y-119560696D01*
X85648355Y-151028478D02*
X85688727Y-151123675D01*
X85728750Y-151204620D01*
X85783346Y-151302386D01*
X85853135Y-151411856D01*
X85938736Y-151527916D01*
X86040771Y-151645448D01*
X86159858Y-151759336D01*
X86296619Y-151864466D01*
X86451673Y-151955720D01*
X86536253Y-151994546D01*
X86625640Y-152027984D01*
X86719910Y-152055395D01*
X86819141Y-152076140D01*
X86923410Y-152089579D01*
X87032795Y-152095073D01*
X87147373Y-152091982D01*
X87267222Y-152079667D01*
X87392420Y-152057488D01*
X87523043Y-152024806D01*
X87659171Y-151980982D01*
D12*
X209038559Y-72662636D02*
G75*
G03*
X209038559Y-72662636I-2000000J0D01*
G01*
D11*
X209713551Y-75097636D02*
X223713549Y-75097636D01*
D10*
X166893073Y-121783192D02*
X166887371Y-121665869D01*
X166870610Y-121552371D01*
X166843307Y-121443213D01*
X166805979Y-121338913D01*
X166759142Y-121239987D01*
X166703314Y-121146951D01*
X166639011Y-121060324D01*
X166566749Y-120980621D01*
X166487046Y-120908359D01*
X166400419Y-120844056D01*
X166307384Y-120788228D01*
X166208458Y-120741391D01*
X166104157Y-120704063D01*
X165995000Y-120676760D01*
X165881501Y-120659999D01*
X165764180Y-120654298D01*
D11*
X147473559Y-60854998D02*
X147473559Y-74854996D01*
X204663560Y-75097636D02*
X204663560Y-89097634D01*
D12*
X109273563Y-114677639D02*
G75*
G03*
X109273563Y-114677639I-2000000J0D01*
G01*
D11*
X204663552Y-56047638D02*
X204663552Y-70047637D01*
X133473560Y-60854998D02*
X147473559Y-60854998D01*
X147474439Y-55804998D02*
X133474440Y-55804998D01*
X171594000Y-55804998D02*
X171594000Y-41805000D01*
X209713551Y-89097634D02*
X209713551Y-75097636D01*
X128424441Y-63379997D02*
X128424441Y-77379996D01*
X171574436Y-74854996D02*
X171574436Y-60854998D01*
D10*
X171655573Y-35705414D02*
X171518437Y-35692999D01*
X171270805Y-35682161D01*
X170920208Y-35672822D01*
X170474177Y-35664903D01*
X169940245Y-35658328D01*
X169325943Y-35653018D01*
X168638803Y-35648898D01*
X167886357Y-35645888D01*
X167076137Y-35643911D01*
X166215674Y-35642891D01*
X165312501Y-35642749D01*
X164374150Y-35643408D01*
X163408151Y-35644790D01*
X162422037Y-35646818D01*
X161423341Y-35649414D01*
X160419593Y-35652502D01*
X159418325Y-35656003D01*
X158427070Y-35659839D01*
X157453358Y-35663934D01*
X156504723Y-35668210D01*
X155588696Y-35672589D01*
X154712808Y-35676994D01*
X153884592Y-35681347D01*
X153111580Y-35685572D01*
X152401302Y-35689589D01*
X151761292Y-35693322D01*
X151199080Y-35696694D01*
X150722199Y-35699626D01*
X150338181Y-35702042D01*
X150054557Y-35703863D01*
X149878859Y-35705013D01*
X149818620Y-35705414D01*
D11*
X152524438Y-39305000D02*
X166524436Y-39305000D01*
D10*
X88788064Y-94093667D02*
X88788064Y-118431803D01*
X111897728Y-86717093D02*
X111864999Y-89579821D01*
D11*
X152524438Y-58354998D02*
X166524436Y-58354998D01*
X209713559Y-56047638D02*
X223713557Y-56047638D01*
D10*
X123466115Y-142209033D02*
X125313243Y-142065749D01*
X127148422Y-141958633D01*
X128968589Y-141885611D01*
X130770682Y-141844608D01*
X132551639Y-141833552D01*
X134308399Y-141850370D01*
X136037900Y-141892987D01*
X137737079Y-141959329D01*
X139402875Y-142047325D01*
X141032227Y-142154899D01*
X142622072Y-142279979D01*
X144169348Y-142420490D01*
X145670995Y-142574360D01*
X147123949Y-142739515D01*
X148525149Y-142913882D01*
X149871534Y-143095386D01*
X151160040Y-143281954D01*
X152387608Y-143471514D01*
X153551174Y-143661990D01*
X154647677Y-143851310D01*
X155674055Y-144037401D01*
X156627246Y-144218188D01*
X157504189Y-144391598D01*
X158301821Y-144555558D01*
X159017081Y-144707995D01*
X159646907Y-144846833D01*
X160188238Y-144970001D01*
X160638010Y-145075425D01*
X160993163Y-145161030D01*
X161250634Y-145224744D01*
X161407362Y-145264493D01*
X161460286Y-145278204D01*
X177158897Y-119525427D02*
X177262874Y-119528159D01*
X177363157Y-119536123D01*
X177459771Y-119548971D01*
X177552742Y-119566353D01*
X177642095Y-119587922D01*
X177810053Y-119642219D01*
X177963852Y-119709075D01*
X178103698Y-119785696D01*
X178229798Y-119869294D01*
X178342359Y-119957078D01*
X178441588Y-120046257D01*
X178527690Y-120134041D01*
X178600874Y-120217639D01*
X178661344Y-120294260D01*
X178728667Y-120390009D01*
X178775865Y-120467212D01*
X178781688Y-120477909D01*
D11*
X152524438Y-72354996D02*
X152524438Y-58354998D01*
D10*
X184496671Y-129403204D02*
X184588396Y-129541436D01*
X184682114Y-129670592D01*
X184777505Y-129790978D01*
X184874245Y-129902902D01*
X184972013Y-130006672D01*
X185070488Y-130102595D01*
X185169348Y-130190979D01*
X185268271Y-130272130D01*
X185366936Y-130346357D01*
X185465020Y-130413967D01*
X185562203Y-130475268D01*
X185658162Y-130530566D01*
X185752576Y-130580170D01*
X185845123Y-130624386D01*
X185935481Y-130663523D01*
X186023329Y-130697887D01*
X186108346Y-130727787D01*
X186268596Y-130775422D01*
X186413658Y-130808887D01*
X186540959Y-130830642D01*
X186647925Y-130843148D01*
X186764617Y-130849942D01*
X186825017Y-130849585D01*
D11*
X114424443Y-44305000D02*
X128424441Y-44305000D01*
X128424441Y-115454991D02*
X114424443Y-115454991D01*
X147473559Y-74854996D02*
X133473560Y-74854996D01*
D12*
X92823565Y-124687638D02*
G75*
G03*
X92823565Y-124687638I-2000000J0D01*
G01*
D10*
X135559348Y-120724858D02*
X135428813Y-120725874D01*
X135302206Y-120728027D01*
X135180147Y-120729973D01*
X135063255Y-120730369D01*
X134952151Y-120727871D01*
X134847456Y-120721135D01*
X134749788Y-120708819D01*
X134659769Y-120689578D01*
X134540436Y-120644793D01*
X134441800Y-120576870D01*
X134365953Y-120481275D01*
X134314988Y-120353472D01*
X134295868Y-120248139D01*
X134289357Y-120125132D01*
D11*
X190663561Y-89097634D02*
X190663561Y-75097636D01*
D10*
X172265871Y-35818305D02*
X171997757Y-35768911D01*
D11*
X209713559Y-94147634D02*
X223713557Y-94147634D01*
D10*
X102221848Y-120125132D02*
X102215336Y-120248139D01*
X102196216Y-120353472D01*
X102165108Y-120442477D01*
X102097322Y-120548304D01*
X102006049Y-120624947D01*
X101893383Y-120676940D01*
X101761416Y-120708819D01*
X101663748Y-120721135D01*
X101559052Y-120727871D01*
X101447949Y-120730369D01*
X101331057Y-120729973D01*
X101208998Y-120728027D01*
X101082391Y-120725874D01*
X100951857Y-120724858D01*
D11*
X185574434Y-60854998D02*
X185574434Y-74854996D01*
X114424443Y-63379997D02*
X128424441Y-63379997D01*
X93171941Y-112332461D02*
X93171941Y-99332462D01*
D10*
X88470577Y-121254025D02*
X88411087Y-121323481D01*
X88400017Y-121359854D01*
D11*
X128424441Y-44305000D02*
X128424441Y-58304998D01*
X190663561Y-94147634D02*
X204663560Y-94147634D01*
X190663553Y-70047637D02*
X190663553Y-56047638D01*
D10*
X112882782Y-119560696D02*
X126076680Y-119560696D01*
X112882782Y-120724858D02*
X112752247Y-120725874D01*
X112625640Y-120728027D01*
X112503581Y-120729973D01*
X112386689Y-120730369D01*
X112275586Y-120727871D01*
X112170890Y-120721135D01*
X112073222Y-120708819D01*
X111983203Y-120689578D01*
X111863870Y-120644793D01*
X111765234Y-120576870D01*
X111689387Y-120481275D01*
X111638422Y-120353472D01*
X111619302Y-120248139D01*
X111612791Y-120125132D01*
D11*
X152524438Y-110455000D02*
X152524438Y-96455002D01*
X152524438Y-53304999D02*
X152524438Y-39305000D01*
D12*
X94374445Y-94805002D02*
G75*
G03*
X94374445Y-94805002I-2000000J0D01*
G01*
D10*
X149818620Y-35705414D02*
X112941936Y-37843246D01*
D11*
X204663560Y-94147634D02*
X204663560Y-108147632D01*
D10*
X157706726Y-120654298D02*
X157576191Y-120655314D01*
X157449584Y-120657468D01*
X157327524Y-120659415D01*
X157210633Y-120659812D01*
X157099529Y-120657316D01*
X156994833Y-120650582D01*
X156897166Y-120638268D01*
X156807146Y-120619029D01*
X156687813Y-120574247D01*
X156589177Y-120506327D01*
X156513330Y-120410734D01*
X156462365Y-120282933D01*
X156443245Y-120177600D01*
X156436734Y-120054593D01*
X157706726Y-119490136D02*
X177158897Y-119525427D01*
X89916957Y-119560696D02*
X100951857Y-119560696D01*
D12*
X208968559Y-110582632D02*
G75*
G03*
X208968559Y-110582632I-2000000J0D01*
G01*
D11*
X190663553Y-56047638D02*
X204663552Y-56047638D01*
X133474440Y-55804998D02*
X133474440Y-41805000D01*
D10*
X171997757Y-35768911D02*
X172090659Y-35785165D01*
X172184364Y-35801964D01*
X172265871Y-35818305D01*
D11*
X166524436Y-39305000D02*
X166524436Y-53304999D01*
X171594000Y-98954993D02*
X185593998Y-98954993D01*
D10*
X156436734Y-120054593D02*
X156443245Y-119931982D01*
X156462365Y-119827767D01*
X156493473Y-119740502D01*
X156561259Y-119638220D01*
X156652532Y-119565936D01*
X156765198Y-119518767D01*
X156897166Y-119491829D01*
X156994833Y-119482698D01*
X157099529Y-119478942D01*
X157210633Y-119479113D01*
X157327524Y-119481765D01*
X157449584Y-119485451D01*
X157576191Y-119488723D01*
X157706726Y-119490136D01*
D11*
X159731677Y-141676820D02*
X145944367Y-139245748D01*
X190663561Y-113222647D02*
X204663560Y-113222647D01*
X147474439Y-41805000D02*
X147474439Y-55804998D01*
D10*
X228840842Y-128662358D02*
X228840842Y-128430486D01*
X228840842Y-127754515D01*
X228840842Y-126663904D01*
X228840842Y-125188117D01*
X228840842Y-123356615D01*
X228840842Y-121198860D01*
X228840842Y-118744315D01*
X228840842Y-116022441D01*
X228840842Y-113062701D01*
X228840842Y-109894556D01*
X228840842Y-106547468D01*
X228840842Y-103050900D01*
X228840842Y-99434313D01*
X228840842Y-95727170D01*
X228840842Y-91958932D01*
X228840842Y-88159062D01*
X228840842Y-84357021D01*
X228840842Y-80582272D01*
X228840842Y-76864277D01*
X228840842Y-73232497D01*
X228840842Y-69716394D01*
X228840842Y-66345432D01*
X228840842Y-63149071D01*
X228840842Y-60156774D01*
X228840842Y-57398002D01*
X228840842Y-54902218D01*
X228840842Y-52698884D01*
X228840842Y-50817462D01*
X228840842Y-49287414D01*
X228840842Y-48138201D01*
X228840842Y-47399286D01*
X228840842Y-47100132D01*
D11*
X133473560Y-79904995D02*
X147473559Y-79904995D01*
X133473560Y-93904994D02*
X133473560Y-79904995D01*
X128424441Y-96404994D02*
X114424443Y-96404994D01*
D10*
X79686402Y-132930982D02*
X79625147Y-133025165D01*
X79573402Y-133122246D01*
X79530751Y-133221809D01*
X79496781Y-133323440D01*
X79471080Y-133426725D01*
X79453234Y-133531251D01*
X79442829Y-133636603D01*
X79439453Y-133742367D01*
X79439453Y-133742367D02*
X79444149Y-133834965D01*
X79456760Y-133927568D01*
X79475068Y-134020175D01*
X79496855Y-134112784D01*
X79510013Y-134165704D01*
D11*
X223713557Y-56047638D02*
X223713557Y-70047637D01*
X104714372Y-127819510D02*
X118501682Y-125388438D01*
D10*
X228029457Y-46218187D02*
X172265871Y-35818305D01*
D11*
X145944367Y-139245748D02*
X148375446Y-125458438D01*
D10*
X126076680Y-120724858D02*
X112882782Y-120724858D01*
X88802935Y-91857068D02*
X88788064Y-94093667D01*
X92375830Y-90728175D02*
X89931829Y-90728175D01*
X110736105Y-90708714D02*
X108567505Y-90728175D01*
D11*
X147474439Y-98954993D02*
X147474439Y-112954992D01*
X166524436Y-58354998D02*
X166524436Y-72354996D01*
X133473560Y-74854996D02*
X133473560Y-60854998D01*
D10*
X163083077Y-144149311D02*
X163093649Y-144096386D01*
X88400017Y-121359854D02*
X88302546Y-121489415D01*
X88185465Y-121645040D01*
X88027050Y-121855603D01*
X87830471Y-122116887D01*
X87598901Y-122424673D01*
X87335512Y-122774743D01*
X87043474Y-123162880D01*
X86725959Y-123584864D01*
X86386140Y-124036479D01*
X86027188Y-124513505D01*
X85652274Y-125011726D01*
X85264570Y-125526922D01*
X84867248Y-126054876D01*
X84463479Y-126591369D01*
X84056435Y-127132184D01*
X83649288Y-127673102D01*
X83245209Y-128209905D01*
X82847370Y-128738376D01*
X82458943Y-129254296D01*
X82083099Y-129753447D01*
X81723010Y-130231611D01*
X81381847Y-130684569D01*
X81062783Y-131108105D01*
X80768988Y-131497999D01*
X80503636Y-131850034D01*
X80269896Y-132159991D01*
X80070941Y-132423653D01*
X79909942Y-132636800D01*
X79790072Y-132795217D01*
X79714501Y-132894683D01*
X79686402Y-132930982D01*
D11*
X152524438Y-77404996D02*
X166524436Y-77404996D01*
X152524438Y-96455002D02*
X166524436Y-96455002D01*
D10*
X88788064Y-118431803D02*
X88793765Y-118549124D01*
X88810526Y-118662623D01*
X88837829Y-118771780D01*
X88875157Y-118876081D01*
X88921994Y-118975007D01*
X88977822Y-119068042D01*
X89042125Y-119154669D01*
X89114387Y-119234372D01*
X89194090Y-119306634D01*
X89280717Y-119370937D01*
X89373752Y-119426765D01*
X89472678Y-119473602D01*
X89576979Y-119510930D01*
X89686136Y-119538233D01*
X89799635Y-119554994D01*
X89916957Y-119560696D01*
D11*
X83769878Y-134661973D02*
X96925573Y-129873685D01*
X147474439Y-112954992D02*
X133474440Y-112954992D01*
D10*
X79510013Y-134165704D02*
X85648355Y-151028478D01*
X161460286Y-145278204D02*
X161582837Y-145291922D01*
X161719021Y-145295205D01*
X161829856Y-145289793D01*
X161952810Y-145275105D01*
X162084523Y-145248403D01*
X162221637Y-145206946D01*
X162360792Y-145147998D01*
X162498629Y-145068818D01*
X162631789Y-144966669D01*
X162756914Y-144838811D01*
X162815414Y-144764385D01*
X162870645Y-144682505D01*
X162922187Y-144592829D01*
X162969622Y-144495013D01*
X163012528Y-144388717D01*
X163050486Y-144273597D01*
X163083077Y-144149311D01*
X165764180Y-120654298D02*
X157706726Y-120654298D01*
M02*
