%FSLAX45Y45*%
G04 Gerber Fmt 4.5, Leading zero omitted, Abs format (unit mm)*
G04 Created by KiCad (PCBNEW (6.0.0)) date 2022-08-16 23:55:05*
%MOMM*%
%LPD*%
G01*
G04 APERTURE LIST*
%ADD10C,0.090000*%
%ADD11C,0.200000*%
%ADD12C,0.039370*%
%ADD13C,0.078740*%
%ADD14C,0.100000*%
%ADD15C,0.120000*%
%ADD16C,0.180000*%
%ADD17C,0.300000*%
%ADD18C,0.340000*%
G04 APERTURE END LIST*
D10*
X8791274Y-11712543D02*
X8791844Y-11724275D01*
X8793520Y-11735625D01*
X8796250Y-11746541D01*
X8799983Y-11756971D01*
X8804667Y-11766863D01*
X8810250Y-11776167D01*
X8816680Y-11784830D01*
X8823906Y-11792800D01*
X8831877Y-11800026D01*
X8840539Y-11806456D01*
X8849843Y-11812039D01*
X8859735Y-11816723D01*
X8870165Y-11820456D01*
X8881081Y-11823186D01*
X8892431Y-11824862D01*
X8904163Y-11825432D01*
X16221832Y-14279001D02*
X16601775Y-12047682D01*
X7863469Y-13285933D02*
X8477303Y-14972210D01*
X14914791Y-11880574D02*
X14914140Y-11892875D01*
X14912228Y-11903408D01*
X14909117Y-11912309D01*
X14902339Y-11922891D01*
X14893211Y-11930556D01*
X14881945Y-11935755D01*
X14868748Y-11938943D01*
X14858981Y-11940174D01*
X14848512Y-11940848D01*
X14837401Y-11941098D01*
X14825712Y-11941058D01*
X14813506Y-11940864D01*
X14800845Y-11940648D01*
X14787792Y-11940547D01*
X17790636Y-11917154D02*
X18362135Y-12809683D01*
X17112243Y-3446254D02*
X17078025Y-3439904D01*
X8904163Y-11825432D02*
X10007653Y-11825432D01*
X18362135Y-12809683D02*
X18371307Y-12823506D01*
X18380679Y-12836422D01*
X18390218Y-12848461D01*
X18399892Y-12859653D01*
X18409669Y-12870030D01*
X18419516Y-12879622D01*
X18429402Y-12888461D01*
X18439295Y-12896576D01*
X18449161Y-12903998D01*
X18458970Y-12910759D01*
X18468688Y-12916889D01*
X18478284Y-12922419D01*
X18487725Y-12927380D01*
X18496980Y-12931801D01*
X18506016Y-12935715D01*
X18514800Y-12939151D01*
X18523302Y-12942141D01*
X18539327Y-12946905D01*
X18553833Y-12950251D01*
X18566563Y-12952427D01*
X18577260Y-12953677D01*
X18588929Y-12954357D01*
X18594969Y-12954321D01*
X8791274Y-9278729D02*
X8791274Y-11712543D01*
X10134652Y-11881876D02*
X10134001Y-11894177D01*
X10132089Y-11904710D01*
X10128978Y-11913610D01*
X10122200Y-11924193D01*
X10113072Y-11931857D01*
X10101806Y-11937057D01*
X10088609Y-11940245D01*
X10078842Y-11941476D01*
X10068373Y-11942150D01*
X10057262Y-11942400D01*
X10045573Y-11942360D01*
X10033367Y-11942165D01*
X10020707Y-11941950D01*
X10007653Y-11941848D01*
X8759525Y-11994765D02*
X8753576Y-12001711D01*
X8752469Y-12005348D01*
X18594969Y-12954321D02*
X18605945Y-12954321D01*
X18637963Y-12954321D01*
X18689658Y-12954321D01*
X18759665Y-12954321D01*
X18846620Y-12954321D01*
X18949157Y-12954321D01*
X19065911Y-12954321D01*
X19195518Y-12954321D01*
X19336613Y-12954321D01*
X19487830Y-12954321D01*
X19647805Y-12954321D01*
X19815173Y-12954321D01*
X19988570Y-12954321D01*
X20166629Y-12954321D01*
X20347987Y-12954321D01*
X20531278Y-12954321D01*
X20715137Y-12954321D01*
X20898200Y-12954321D01*
X21079102Y-12954321D01*
X21256477Y-12954321D01*
X21428961Y-12954321D01*
X21595189Y-12954321D01*
X21753796Y-12954321D01*
X21903417Y-12954321D01*
X22042688Y-12954321D01*
X22170242Y-12954321D01*
X22284717Y-12954321D01*
X22384745Y-12954321D01*
X22468963Y-12954321D01*
X22536006Y-12954321D01*
X22584509Y-12954321D01*
X22613107Y-12954321D01*
X8917856Y-3682427D02*
X8905650Y-3682515D01*
X16220775Y-14284294D02*
X16221832Y-14279001D01*
X15683140Y-11934793D02*
X15670087Y-11934894D01*
X15657426Y-11935110D01*
X15645220Y-11935304D01*
X15633531Y-11935344D01*
X15622420Y-11935094D01*
X15611951Y-11934421D01*
X15602184Y-11933189D01*
X15593182Y-11931266D01*
X15581249Y-11926787D01*
X15571385Y-11919995D01*
X15563800Y-11910436D01*
X15558704Y-11897656D01*
X15556792Y-11887123D01*
X15556141Y-11874822D01*
X7881108Y-13162461D02*
X7874982Y-13171879D01*
X7869808Y-13181587D01*
X7865543Y-13191544D01*
X7862146Y-13201707D01*
X7859575Y-13212035D01*
X7857791Y-13222488D01*
X7856750Y-13233023D01*
X7856413Y-13243599D01*
X17139055Y-4448657D02*
X17112243Y-4443718D01*
X13468402Y-11940547D02*
X13455349Y-11940648D01*
X13442688Y-11940864D01*
X13430482Y-11941058D01*
X13418793Y-11941098D01*
X13407683Y-11940848D01*
X13397213Y-11940174D01*
X13387446Y-11938943D01*
X13378444Y-11937019D01*
X13366511Y-11932540D01*
X13356647Y-11925748D01*
X13349063Y-11916188D01*
X13343966Y-11903408D01*
X13342054Y-11892875D01*
X13341403Y-11880574D01*
X13468402Y-11824130D02*
X14787792Y-11824130D01*
X11073747Y-11880574D02*
X11074398Y-11868313D01*
X11076310Y-11857892D01*
X11079421Y-11849165D01*
X11086199Y-11838937D01*
X11095326Y-11831709D01*
X11106593Y-11826992D01*
X11119790Y-11824299D01*
X11129557Y-11823386D01*
X11140026Y-11823011D01*
X11151136Y-11823028D01*
X11162826Y-11823293D01*
X11175032Y-11823662D01*
X11187692Y-11823989D01*
X11200746Y-11824130D01*
X22796552Y-4579376D02*
X22795640Y-4566177D01*
X22793065Y-4554317D01*
X22789064Y-4543727D01*
X22783874Y-4534342D01*
X22777733Y-4526094D01*
X22770879Y-4518915D01*
X22763549Y-4512739D01*
X22755982Y-4507498D01*
X22744706Y-4501243D01*
X22734232Y-4496715D01*
X22725362Y-4493687D01*
X22716324Y-4491358D01*
X22715413Y-4491181D01*
X10007653Y-11941848D02*
X8858303Y-11941848D01*
X8858214Y-12939175D02*
X8858214Y-12939175D01*
X11206661Y-3653687D02*
X11195067Y-3654656D01*
X11181519Y-3655765D01*
X11163642Y-3657201D01*
X11153277Y-3658021D01*
X11142065Y-3658897D01*
X11130086Y-3659821D01*
X11117418Y-3660784D01*
X11104140Y-3661779D01*
X11090330Y-3662796D01*
X11076067Y-3663827D01*
X11061429Y-3664865D01*
X11046496Y-3665899D01*
X11031346Y-3666923D01*
X11016057Y-3667927D01*
X11000709Y-3668903D01*
X10985380Y-3669843D01*
X10970148Y-3670738D01*
X10955092Y-3671580D01*
X10940291Y-3672360D01*
X10925823Y-3673071D01*
X10911768Y-3673702D01*
X10898203Y-3674247D01*
X10885208Y-3674696D01*
X10872861Y-3675042D01*
X10861241Y-3675275D01*
X10850426Y-3675388D01*
X10840495Y-3675371D01*
X12520135Y-11940547D02*
X11200746Y-11940547D01*
X13341403Y-11880574D02*
X13342054Y-11868313D01*
X13343966Y-11857892D01*
X13347077Y-11849165D01*
X13353856Y-11838937D01*
X13362983Y-11831709D01*
X13374250Y-11826992D01*
X13387446Y-11824299D01*
X13397213Y-11823386D01*
X13407683Y-11823011D01*
X13418793Y-11823028D01*
X13430482Y-11823293D01*
X13442688Y-11823662D01*
X13455349Y-11823989D01*
X13468402Y-11824130D01*
X12647135Y-11880574D02*
X12646483Y-11892875D01*
X12644571Y-11903408D01*
X12641461Y-11912309D01*
X12634682Y-11922891D01*
X12625555Y-11930556D01*
X12614288Y-11935755D01*
X12601091Y-11938943D01*
X12591325Y-11940174D01*
X12580855Y-11940848D01*
X12569745Y-11941098D01*
X12558055Y-11941058D01*
X12545850Y-11940864D01*
X12533189Y-11940648D01*
X12520135Y-11940547D01*
X16488885Y-11934793D02*
X15683140Y-11934793D01*
X15556141Y-11874822D02*
X15556792Y-11862561D01*
X15558704Y-11852139D01*
X15561815Y-11843413D01*
X15568593Y-11833185D01*
X15577721Y-11825956D01*
X15588987Y-11821239D01*
X15602184Y-11818546D01*
X15611951Y-11817632D01*
X15622420Y-11817257D01*
X15633531Y-11817274D01*
X15645220Y-11817539D01*
X15657426Y-11817908D01*
X15670087Y-11818235D01*
X15683140Y-11818376D01*
X8477303Y-14972210D02*
X8481340Y-14981730D01*
X8485343Y-14989825D01*
X8490802Y-14999601D01*
X8497781Y-15010548D01*
X8506341Y-15022154D01*
X8516545Y-15033907D01*
X8528453Y-15045296D01*
X8542129Y-15055809D01*
X8557635Y-15064935D01*
X8566093Y-15068817D01*
X8575032Y-15072161D01*
X8584459Y-15074902D01*
X8594382Y-15076977D01*
X8604809Y-15078321D01*
X8615747Y-15078870D01*
X8627205Y-15078561D01*
X8639190Y-15077329D01*
X8651710Y-15075111D01*
X8664772Y-15071843D01*
X8678385Y-15067461D01*
X22796552Y-12735598D02*
X22796552Y-12712411D01*
X22796552Y-12644814D01*
X22796552Y-12535753D01*
X22796552Y-12388174D01*
X22796552Y-12205024D01*
X22796552Y-11989249D01*
X22796552Y-11743794D01*
X22796552Y-11471607D01*
X22796552Y-11175633D01*
X22796552Y-10858818D01*
X22796552Y-10524110D01*
X22796552Y-10174453D01*
X22796552Y-9812794D01*
X22796552Y-9442080D01*
X22796552Y-9065256D01*
X22796552Y-8685269D01*
X22796552Y-8305065D01*
X22796552Y-7927590D01*
X22796552Y-7555790D01*
X22796552Y-7192612D01*
X22796552Y-6841002D01*
X22796552Y-6503906D01*
X22796552Y-6184270D01*
X22796552Y-5885040D01*
X22796552Y-5609163D01*
X22796552Y-5359585D01*
X22796552Y-5139251D01*
X22796552Y-4951109D01*
X22796552Y-4798104D01*
X22796552Y-4683183D01*
X22796552Y-4609291D01*
X22796552Y-4579376D01*
X16601775Y-12047682D02*
X16601205Y-12035950D01*
X16599528Y-12024600D01*
X16596798Y-12013684D01*
X16593065Y-12003254D01*
X16588382Y-11993361D01*
X16582799Y-11984058D01*
X16576369Y-11975395D01*
X16569142Y-11967425D01*
X16561172Y-11960199D01*
X16552509Y-11953768D01*
X16543206Y-11948185D01*
X16533313Y-11943502D01*
X16522883Y-11939769D01*
X16511967Y-11937039D01*
X16500618Y-11935363D01*
X16488885Y-11934793D01*
X11200746Y-11824130D02*
X12520135Y-11824130D01*
X14894329Y-3439904D02*
X11206661Y-3653687D01*
X16058496Y-14397183D02*
X16070751Y-14398555D01*
X16084370Y-14398883D01*
X16095453Y-14398342D01*
X16107748Y-14396873D01*
X16120920Y-14394203D01*
X16134631Y-14390057D01*
X16148547Y-14384162D01*
X16162330Y-14376245D01*
X16175646Y-14366030D01*
X16188159Y-14353244D01*
X16194009Y-14345801D01*
X16199532Y-14337613D01*
X16204686Y-14328646D01*
X16209430Y-14318864D01*
X16213720Y-14308234D01*
X16217516Y-14296722D01*
X16220775Y-14284294D01*
X10840495Y-3675371D02*
X8917856Y-3682427D01*
X12259079Y-14090266D02*
X12443792Y-14075938D01*
X12627310Y-14065226D01*
X12809326Y-14057924D01*
X12989536Y-14053824D01*
X13167631Y-14052718D01*
X13343307Y-14054400D01*
X13516257Y-14058661D01*
X13686175Y-14065296D01*
X13852755Y-14074095D01*
X14015690Y-14084853D01*
X14174675Y-14097361D01*
X14329402Y-14111412D01*
X14479567Y-14126799D01*
X14624862Y-14143314D01*
X14764982Y-14160751D01*
X14899621Y-14178901D01*
X15028471Y-14197558D01*
X15151228Y-14216514D01*
X15267585Y-14235562D01*
X15377235Y-14254494D01*
X15479873Y-14273103D01*
X15575192Y-14291182D01*
X15662886Y-14308523D01*
X15742650Y-14324919D01*
X15814176Y-14340162D01*
X15877158Y-14354046D01*
X15931291Y-14366363D01*
X15976268Y-14376905D01*
X16011784Y-14385466D01*
X16037531Y-14391837D01*
X16053204Y-14395812D01*
X16058496Y-14397183D01*
X12520135Y-11824130D02*
X12533189Y-11823989D01*
X12545850Y-11823662D01*
X12558055Y-11823293D01*
X12569745Y-11823028D01*
X12580855Y-11823011D01*
X12591325Y-11823386D01*
X12601091Y-11824299D01*
X12610093Y-11825894D01*
X12622027Y-11829882D01*
X12631890Y-11836219D01*
X12639475Y-11845392D01*
X12644571Y-11857892D01*
X12646483Y-11868313D01*
X12647135Y-11880574D01*
X7856413Y-13243599D02*
X7856882Y-13252859D01*
X7858143Y-13262119D01*
X7859974Y-13271380D01*
X7862153Y-13280641D01*
X7863469Y-13285933D01*
X14787792Y-11940547D02*
X13468402Y-11940547D01*
X8752469Y-12005348D02*
X8742722Y-12018304D01*
X8731014Y-12033867D01*
X8715173Y-12054923D01*
X8695515Y-12081051D01*
X8672358Y-12111830D01*
X8646019Y-12146837D01*
X8616815Y-12185651D01*
X8585063Y-12227849D01*
X8551082Y-12273011D01*
X8515186Y-12320713D01*
X8477695Y-12370535D01*
X8438925Y-12422055D01*
X8399192Y-12474850D01*
X8358815Y-12528500D01*
X8318111Y-12582581D01*
X8277396Y-12636673D01*
X8236988Y-12690353D01*
X8197204Y-12743200D01*
X8158362Y-12794792D01*
X8120777Y-12844707D01*
X8084768Y-12892524D01*
X8050652Y-12937820D01*
X8018746Y-12980173D01*
X7989366Y-13019163D01*
X7962831Y-13054366D01*
X7939457Y-13085362D01*
X7919562Y-13111728D01*
X7903462Y-13133043D01*
X7891475Y-13148884D01*
X7883918Y-13158831D01*
X7881108Y-13162461D01*
X14787792Y-11824130D02*
X14800845Y-11823989D01*
X14813506Y-11823662D01*
X14825712Y-11823293D01*
X14837401Y-11823028D01*
X14848512Y-11823011D01*
X14858981Y-11823386D01*
X14868748Y-11824299D01*
X14877750Y-11825894D01*
X14889683Y-11829882D01*
X14899547Y-11836219D01*
X14907131Y-11845392D01*
X14912228Y-11857892D01*
X14914140Y-11868313D01*
X14914791Y-11880574D01*
X17112243Y-4443718D02*
X17121533Y-4445343D01*
X17130904Y-4447023D01*
X17139055Y-4448657D01*
X11200746Y-11940547D02*
X11187692Y-11940648D01*
X11175032Y-11940864D01*
X11162826Y-11941058D01*
X11151136Y-11941098D01*
X11140026Y-11940848D01*
X11129557Y-11940174D01*
X11119790Y-11938943D01*
X11110788Y-11937019D01*
X11098855Y-11932540D01*
X11088991Y-11925748D01*
X11081406Y-11916188D01*
X11076310Y-11903408D01*
X11074398Y-11892875D01*
X11073747Y-11880574D01*
X22715413Y-4491181D02*
X17139055Y-3451193D01*
X15683140Y-11818376D02*
X17628357Y-11821905D01*
X17628357Y-11821905D02*
X17638755Y-11822179D01*
X17648783Y-11822975D01*
X17658445Y-11824260D01*
X17667742Y-11825998D01*
X17676677Y-11828155D01*
X17693473Y-11833585D01*
X17708853Y-11840270D01*
X17722837Y-11847932D01*
X17735447Y-11856292D01*
X17746703Y-11865070D01*
X17756626Y-11873988D01*
X17765237Y-11882767D01*
X17772555Y-11891127D01*
X17778602Y-11898789D01*
X17785334Y-11908364D01*
X17790054Y-11916084D01*
X17790636Y-11917154D01*
X17139055Y-3451193D02*
X17112243Y-3446254D01*
X8678385Y-15067461D02*
X8698258Y-15059561D01*
X8725380Y-15047921D01*
X8759619Y-15032768D01*
X8800844Y-15014330D01*
X8848924Y-14992836D01*
X8903728Y-14968513D01*
X8965124Y-14941589D01*
X9032982Y-14912293D01*
X9107170Y-14880852D01*
X9187557Y-14847495D01*
X9274013Y-14812449D01*
X9366405Y-14775943D01*
X9464603Y-14738204D01*
X9568476Y-14699460D01*
X9677893Y-14659941D01*
X9792722Y-14619873D01*
X9912832Y-14579484D01*
X10038093Y-14539003D01*
X10168372Y-14498658D01*
X10303540Y-14458677D01*
X10443464Y-14419287D01*
X10588014Y-14380717D01*
X10737059Y-14343195D01*
X10890467Y-14306948D01*
X11048107Y-14272205D01*
X11209848Y-14239194D01*
X11375560Y-14208143D01*
X11545110Y-14179280D01*
X11718369Y-14152833D01*
X11895204Y-14129029D01*
X12075484Y-14108098D01*
X12259079Y-14090266D01*
X10007653Y-11825432D02*
X10020707Y-11825291D01*
X10033367Y-11824964D01*
X10045573Y-11824595D01*
X10057262Y-11824330D01*
X10068373Y-11824312D01*
X10078842Y-11824688D01*
X10088609Y-11825601D01*
X10097611Y-11827196D01*
X10109544Y-11831184D01*
X10119408Y-11837520D01*
X10126993Y-11846694D01*
X10132089Y-11859193D01*
X10134001Y-11869615D01*
X10134652Y-11881876D01*
X22613107Y-12954321D02*
X22630704Y-12953694D01*
X22647142Y-12951865D01*
X22662459Y-12948914D01*
X22676696Y-12944923D01*
X22689892Y-12939970D01*
X22702086Y-12934136D01*
X22713317Y-12927501D01*
X22723625Y-12920146D01*
X22733050Y-12912149D01*
X22741630Y-12903592D01*
X22749406Y-12894554D01*
X22756416Y-12885116D01*
X22762700Y-12875357D01*
X22768297Y-12865358D01*
X22773247Y-12855199D01*
X22777590Y-12844960D01*
X22781363Y-12834720D01*
X22784608Y-12824561D01*
X22787363Y-12814562D01*
X22789668Y-12804804D01*
X22791562Y-12795365D01*
X22793085Y-12786328D01*
X22795173Y-12769774D01*
X22796249Y-12755783D01*
X22796627Y-12744997D01*
X22796552Y-12735598D01*
X17078025Y-3439904D02*
X17064311Y-3438663D01*
X17039548Y-3437579D01*
X17004488Y-3436645D01*
X16959885Y-3435853D01*
X16906492Y-3435195D01*
X16845062Y-3434664D01*
X16776348Y-3434252D01*
X16701103Y-3433951D01*
X16620081Y-3433754D01*
X16534035Y-3433652D01*
X16443718Y-3433638D01*
X16349882Y-3433703D01*
X16253283Y-3433842D01*
X16154671Y-3434044D01*
X16054802Y-3434304D01*
X15954427Y-3434613D01*
X15854300Y-3434963D01*
X15755174Y-3435347D01*
X15657803Y-3435756D01*
X15562940Y-3436184D01*
X15471337Y-3436622D01*
X15383748Y-3437062D01*
X15300927Y-3437497D01*
X15223625Y-3437920D01*
X15152598Y-3438322D01*
X15088597Y-3438695D01*
X15032375Y-3439032D01*
X14984687Y-3439325D01*
X14946286Y-3439567D01*
X14917923Y-3439749D01*
X14900353Y-3439864D01*
X14894329Y-3439904D01*
X8858303Y-11941848D02*
X8847487Y-11943297D01*
X8836892Y-11945624D01*
X8826554Y-11948776D01*
X8816506Y-11952701D01*
X8806783Y-11957347D01*
X8797422Y-11962662D01*
X8788455Y-11968592D01*
X8779919Y-11975087D01*
X8771848Y-11982093D01*
X8764277Y-11989559D01*
X8759525Y-11994765D01*
X8905650Y-3682515D02*
X8893918Y-3683085D01*
X8882568Y-3684761D01*
X8871653Y-3687492D01*
X8861223Y-3691225D01*
X8851330Y-3695908D01*
X8842026Y-3701491D01*
X8833364Y-3707921D01*
X8825393Y-3715148D01*
X8818167Y-3723118D01*
X8811737Y-3731781D01*
X8806154Y-3741084D01*
X8801470Y-3750977D01*
X8797738Y-3761407D01*
X8795007Y-3772322D01*
X8793331Y-3783672D01*
X8792761Y-3795405D01*
X8792761Y-3795405D02*
X8791274Y-9278729D01*
D11*
D12*
X10841227Y-11862579D02*
X10880597Y-11901949D01*
X10880597Y-11862579D02*
X10841227Y-11901949D01*
X10994227Y-11865579D02*
X11033597Y-11904949D01*
X11033597Y-11865579D02*
X10994227Y-11904949D01*
X12677227Y-11864579D02*
X12716597Y-11903949D01*
X12716597Y-11864579D02*
X12677227Y-11903949D01*
X12797227Y-11865179D02*
X12836597Y-11904549D01*
X12836597Y-11865179D02*
X12797227Y-11904549D01*
D13*
X10222282Y-11879864D02*
G75*
G03*
X10222282Y-11879864I-39370J0D01*
G01*
X10349282Y-11879864D02*
G75*
G03*
X10349282Y-11879864I-39370J0D01*
G01*
X10476282Y-11879864D02*
G75*
G03*
X10476282Y-11879864I-39370J0D01*
G01*
X10603282Y-11879864D02*
G75*
G03*
X10603282Y-11879864I-39370J0D01*
G01*
X10730282Y-11879864D02*
G75*
G03*
X10730282Y-11879864I-39370J0D01*
G01*
X13004282Y-11883864D02*
G75*
G03*
X13004282Y-11883864I-39370J0D01*
G01*
X13131282Y-11883864D02*
G75*
G03*
X13131282Y-11883864I-39370J0D01*
G01*
X13258282Y-11883864D02*
G75*
G03*
X13258282Y-11883864I-39370J0D01*
G01*
X15018282Y-11878864D02*
G75*
G03*
X15018282Y-11878864I-39370J0D01*
G01*
X15145282Y-11878864D02*
G75*
G03*
X15145282Y-11878864I-39370J0D01*
G01*
X15272282Y-11878864D02*
G75*
G03*
X15272282Y-11878864I-39370J0D01*
G01*
X15399282Y-11878864D02*
G75*
G03*
X15399282Y-11878864I-39370J0D01*
G01*
X15526282Y-11878864D02*
G75*
G03*
X15526282Y-11878864I-39370J0D01*
G01*
D14*
X9402878Y-13069900D02*
X9402878Y-13169900D01*
X9352878Y-13119900D02*
X9452878Y-13119900D01*
X9759947Y-14050939D02*
X9759947Y-14150939D01*
X9709947Y-14100939D02*
X9809947Y-14100939D01*
X10607910Y-12846289D02*
X10607910Y-12946289D01*
X10557910Y-12896289D02*
X10657910Y-12896289D01*
X11533000Y-4530000D02*
X11533000Y-4630000D01*
X11483000Y-4580000D02*
X11583000Y-4580000D01*
X11533000Y-6440000D02*
X11533000Y-6540000D01*
X11483000Y-6490000D02*
X11583000Y-6490000D01*
X11533000Y-8340000D02*
X11533000Y-8440000D01*
X11483000Y-8390000D02*
X11583000Y-8390000D01*
X11533000Y-10245000D02*
X11533000Y-10345000D01*
X11483000Y-10295000D02*
X11583000Y-10295000D01*
X11636049Y-12665000D02*
X11636049Y-12765000D01*
X11586049Y-12715000D02*
X11686049Y-12715000D01*
X12577000Y-4530000D02*
X12577000Y-4630000D01*
X12527000Y-4580000D02*
X12627000Y-4580000D01*
X12577000Y-6440000D02*
X12577000Y-6540000D01*
X12527000Y-6490000D02*
X12627000Y-6490000D01*
X12577000Y-8340000D02*
X12577000Y-8440000D01*
X12527000Y-8390000D02*
X12627000Y-8390000D01*
X12577000Y-10245000D02*
X12577000Y-10345000D01*
X12527000Y-10295000D02*
X12627000Y-10295000D01*
X12737912Y-12575264D02*
X12737912Y-12675264D01*
X12687912Y-12625264D02*
X12787912Y-12625264D01*
X13438000Y-4280000D02*
X13438000Y-4380000D01*
X13388000Y-4330000D02*
X13488000Y-4330000D01*
X13438000Y-6185000D02*
X13438000Y-6285000D01*
X13388000Y-6235000D02*
X13488000Y-6235000D01*
X13438000Y-8090000D02*
X13438000Y-8190000D01*
X13388000Y-8140000D02*
X13488000Y-8140000D01*
X13438000Y-9995000D02*
X13438000Y-10095000D01*
X13388000Y-10045000D02*
X13488000Y-10045000D01*
X13781912Y-12575264D02*
X13781912Y-12675264D01*
X13731912Y-12625264D02*
X13831912Y-12625264D01*
X14482000Y-4280000D02*
X14482000Y-4380000D01*
X14432000Y-4330000D02*
X14532000Y-4330000D01*
X14482000Y-6185000D02*
X14482000Y-6285000D01*
X14432000Y-6235000D02*
X14532000Y-6235000D01*
X14482000Y-8090000D02*
X14482000Y-8190000D01*
X14432000Y-8140000D02*
X14532000Y-8140000D01*
X14482000Y-9995000D02*
X14482000Y-10095000D01*
X14432000Y-10045000D02*
X14532000Y-10045000D01*
X14876775Y-12672000D02*
X14876775Y-12772000D01*
X14826775Y-12722000D02*
X14926775Y-12722000D01*
X15343000Y-4030000D02*
X15343000Y-4130000D01*
X15293000Y-4080000D02*
X15393000Y-4080000D01*
X15343000Y-5935000D02*
X15343000Y-6035000D01*
X15293000Y-5985000D02*
X15393000Y-5985000D01*
X15343000Y-7840000D02*
X15343000Y-7940000D01*
X15293000Y-7890000D02*
X15393000Y-7890000D01*
X15343000Y-9745000D02*
X15343000Y-9845000D01*
X15293000Y-9795000D02*
X15393000Y-9795000D01*
X15904914Y-12853289D02*
X15904914Y-12953289D01*
X15854914Y-12903289D02*
X15954914Y-12903289D01*
X16387000Y-4030000D02*
X16387000Y-4130000D01*
X16337000Y-4080000D02*
X16437000Y-4080000D01*
X16387000Y-5935000D02*
X16387000Y-6035000D01*
X16337000Y-5985000D02*
X16437000Y-5985000D01*
X16387000Y-7840000D02*
X16387000Y-7940000D01*
X16337000Y-7890000D02*
X16437000Y-7890000D01*
X16387000Y-9745000D02*
X16387000Y-9845000D01*
X16337000Y-9795000D02*
X16437000Y-9795000D01*
X17248000Y-4280000D02*
X17248000Y-4380000D01*
X17198000Y-4330000D02*
X17298000Y-4330000D01*
X17248000Y-6185000D02*
X17248000Y-6285000D01*
X17198000Y-6235000D02*
X17298000Y-6235000D01*
X17248000Y-8090000D02*
X17248000Y-8190000D01*
X17198000Y-8140000D02*
X17298000Y-8140000D01*
X17248000Y-9995000D02*
X17248000Y-10095000D01*
X17198000Y-10045000D02*
X17298000Y-10045000D01*
X18292000Y-4280000D02*
X18292000Y-4380000D01*
X18242000Y-4330000D02*
X18342000Y-4330000D01*
X18292000Y-6185000D02*
X18292000Y-6285000D01*
X18242000Y-6235000D02*
X18342000Y-6235000D01*
X18292000Y-8090000D02*
X18292000Y-8190000D01*
X18242000Y-8140000D02*
X18342000Y-8140000D01*
X18292000Y-9995000D02*
X18292000Y-10095000D01*
X18242000Y-10045000D02*
X18342000Y-10045000D01*
X19156912Y-5704264D02*
X19156912Y-5804264D01*
X19106912Y-5754264D02*
X19206912Y-5754264D01*
X19156912Y-7609264D02*
X19156912Y-7709264D01*
X19106912Y-7659264D02*
X19206912Y-7659264D01*
X19156912Y-9514264D02*
X19156912Y-9614264D01*
X19106912Y-9564264D02*
X19206912Y-9564264D01*
X19156912Y-11419264D02*
X19156912Y-11519264D01*
X19106912Y-11469264D02*
X19206912Y-11469264D01*
X20200912Y-5704264D02*
X20200912Y-5804264D01*
X20150912Y-5754264D02*
X20250912Y-5754264D01*
X20200912Y-7609264D02*
X20200912Y-7709264D01*
X20150912Y-7659264D02*
X20250912Y-7659264D01*
X20200912Y-9514264D02*
X20200912Y-9614264D01*
X20150912Y-9564264D02*
X20250912Y-9564264D01*
X20200912Y-11419264D02*
X20200912Y-11519264D01*
X20150912Y-11469264D02*
X20250912Y-11469264D01*
X21061912Y-5704264D02*
X21061912Y-5804264D01*
X21011912Y-5754264D02*
X21111912Y-5754264D01*
X21061912Y-7609264D02*
X21061912Y-7709264D01*
X21011912Y-7659264D02*
X21111912Y-7659264D01*
X21061912Y-9514264D02*
X21061912Y-9614264D01*
X21011912Y-9564264D02*
X21111912Y-9564264D01*
X21061912Y-11419264D02*
X21061912Y-11519264D01*
X21011912Y-11469264D02*
X21111912Y-11469264D01*
X22105912Y-5704264D02*
X22105912Y-5804264D01*
X22055912Y-5754264D02*
X22155912Y-5754264D01*
X22105912Y-7609264D02*
X22105912Y-7709264D01*
X22055912Y-7659264D02*
X22155912Y-7659264D01*
X22105912Y-9514264D02*
X22105912Y-9614264D01*
X22055912Y-9564264D02*
X22155912Y-9564264D01*
X22105912Y-11419264D02*
X22105912Y-11519264D01*
X22055912Y-11469264D02*
X22155912Y-11469264D01*
D15*
X8992427Y-8607427D02*
X8992427Y-8522573D01*
X8907573Y-8522573D01*
X8907573Y-8607427D01*
X8992427Y-8607427D01*
X8992427Y-8782427D02*
X8992427Y-8697573D01*
X8907573Y-8697573D01*
X8907573Y-8782427D01*
X8992427Y-8782427D01*
X9692427Y-8607427D02*
X9692427Y-8522573D01*
X9607573Y-8522573D01*
X9607573Y-8607427D01*
X9692427Y-8607427D01*
X9692427Y-8782427D02*
X9692427Y-8697573D01*
X9607573Y-8697573D01*
X9607573Y-8782427D01*
X9692427Y-8782427D01*
D16*
X8998631Y-13327237D02*
X9088631Y-13237237D01*
X8998631Y-13147237D01*
X8908631Y-13237237D01*
X8998631Y-13327237D01*
X9374853Y-14360899D02*
X9464853Y-14270899D01*
X9374853Y-14180899D01*
X9284853Y-14270899D01*
X9374853Y-14360899D01*
X10653268Y-13404770D02*
X10743268Y-13314770D01*
X10653268Y-13224770D01*
X10563268Y-13314770D01*
X10653268Y-13404770D01*
X11505000Y-5090000D02*
X11595000Y-5000000D01*
X11505000Y-4910000D01*
X11415000Y-5000000D01*
X11505000Y-5090000D01*
X11505000Y-7000000D02*
X11595000Y-6910000D01*
X11505000Y-6820000D01*
X11415000Y-6910000D01*
X11505000Y-7000000D01*
X11505000Y-8900000D02*
X11595000Y-8810000D01*
X11505000Y-8720000D01*
X11415000Y-8810000D01*
X11505000Y-8900000D01*
X11505000Y-10805000D02*
X11595000Y-10715000D01*
X11505000Y-10625000D01*
X11415000Y-10715000D01*
X11505000Y-10805000D01*
X11736556Y-13213757D02*
X11826556Y-13123757D01*
X11736556Y-13033757D01*
X11646556Y-13123757D01*
X11736556Y-13213757D01*
X12605000Y-5090000D02*
X12695000Y-5000000D01*
X12605000Y-4910000D01*
X12515000Y-5000000D01*
X12605000Y-5090000D01*
X12605000Y-7000000D02*
X12695000Y-6910000D01*
X12605000Y-6820000D01*
X12515000Y-6910000D01*
X12605000Y-7000000D01*
X12605000Y-8900000D02*
X12695000Y-8810000D01*
X12605000Y-8720000D01*
X12515000Y-8810000D01*
X12605000Y-8900000D01*
X12605000Y-10805000D02*
X12695000Y-10715000D01*
X12605000Y-10625000D01*
X12515000Y-10715000D01*
X12605000Y-10805000D01*
X12709912Y-13135264D02*
X12799912Y-13045264D01*
X12709912Y-12955264D01*
X12619912Y-13045264D01*
X12709912Y-13135264D01*
X13410000Y-4840000D02*
X13500000Y-4750000D01*
X13410000Y-4660000D01*
X13320000Y-4750000D01*
X13410000Y-4840000D01*
X13410000Y-6745000D02*
X13500000Y-6655000D01*
X13410000Y-6565000D01*
X13320000Y-6655000D01*
X13410000Y-6745000D01*
X13410000Y-8650000D02*
X13500000Y-8560000D01*
X13410000Y-8470000D01*
X13320000Y-8560000D01*
X13410000Y-8650000D01*
X13410000Y-10555000D02*
X13500000Y-10465000D01*
X13410000Y-10375000D01*
X13320000Y-10465000D01*
X13410000Y-10555000D01*
X13809912Y-13135264D02*
X13899912Y-13045264D01*
X13809912Y-12955264D01*
X13719912Y-13045264D01*
X13809912Y-13135264D01*
X14510000Y-4840000D02*
X14600000Y-4750000D01*
X14510000Y-4660000D01*
X14420000Y-4750000D01*
X14510000Y-4840000D01*
X14510000Y-6745000D02*
X14600000Y-6655000D01*
X14510000Y-6565000D01*
X14420000Y-6655000D01*
X14510000Y-6745000D01*
X14510000Y-8650000D02*
X14600000Y-8560000D01*
X14510000Y-8470000D01*
X14420000Y-8560000D01*
X14510000Y-8650000D01*
X14510000Y-10555000D02*
X14600000Y-10465000D01*
X14510000Y-10375000D01*
X14420000Y-10465000D01*
X14510000Y-10555000D01*
X14776268Y-13220757D02*
X14866268Y-13130757D01*
X14776268Y-13040757D01*
X14686268Y-13130757D01*
X14776268Y-13220757D01*
X15315000Y-4590000D02*
X15405000Y-4500000D01*
X15315000Y-4410000D01*
X15225000Y-4500000D01*
X15315000Y-4590000D01*
X15315000Y-6495000D02*
X15405000Y-6405000D01*
X15315000Y-6315000D01*
X15225000Y-6405000D01*
X15315000Y-6495000D01*
X15315000Y-8400000D02*
X15405000Y-8310000D01*
X15315000Y-8220000D01*
X15225000Y-8310000D01*
X15315000Y-8400000D01*
X15315000Y-10305000D02*
X15405000Y-10215000D01*
X15315000Y-10125000D01*
X15225000Y-10215000D01*
X15315000Y-10305000D01*
X15859556Y-13411770D02*
X15949556Y-13321770D01*
X15859556Y-13231770D01*
X15769556Y-13321770D01*
X15859556Y-13411770D01*
X16415000Y-4590000D02*
X16505000Y-4500000D01*
X16415000Y-4410000D01*
X16325000Y-4500000D01*
X16415000Y-4590000D01*
X16415000Y-6495000D02*
X16505000Y-6405000D01*
X16415000Y-6315000D01*
X16325000Y-6405000D01*
X16415000Y-6495000D01*
X16415000Y-8400000D02*
X16505000Y-8310000D01*
X16415000Y-8220000D01*
X16325000Y-8310000D01*
X16415000Y-8400000D01*
X16415000Y-10305000D02*
X16505000Y-10215000D01*
X16415000Y-10125000D01*
X16325000Y-10215000D01*
X16415000Y-10305000D01*
X17220000Y-4840000D02*
X17310000Y-4750000D01*
X17220000Y-4660000D01*
X17130000Y-4750000D01*
X17220000Y-4840000D01*
X17220000Y-6745000D02*
X17310000Y-6655000D01*
X17220000Y-6565000D01*
X17130000Y-6655000D01*
X17220000Y-6745000D01*
X17220000Y-8650000D02*
X17310000Y-8560000D01*
X17220000Y-8470000D01*
X17130000Y-8560000D01*
X17220000Y-8650000D01*
X17220000Y-10555000D02*
X17310000Y-10465000D01*
X17220000Y-10375000D01*
X17130000Y-10465000D01*
X17220000Y-10555000D01*
X18320000Y-4840000D02*
X18410000Y-4750000D01*
X18320000Y-4660000D01*
X18230000Y-4750000D01*
X18320000Y-4840000D01*
X18320000Y-6745000D02*
X18410000Y-6655000D01*
X18320000Y-6565000D01*
X18230000Y-6655000D01*
X18320000Y-6745000D01*
X18320000Y-8650000D02*
X18410000Y-8560000D01*
X18320000Y-8470000D01*
X18230000Y-8560000D01*
X18320000Y-8650000D01*
X18320000Y-10555000D02*
X18410000Y-10465000D01*
X18320000Y-10375000D01*
X18230000Y-10465000D01*
X18320000Y-10555000D01*
X19128912Y-6264264D02*
X19218912Y-6174264D01*
X19128912Y-6084264D01*
X19038912Y-6174264D01*
X19128912Y-6264264D01*
X19128912Y-8169264D02*
X19218912Y-8079264D01*
X19128912Y-7989264D01*
X19038912Y-8079264D01*
X19128912Y-8169264D01*
X19128912Y-10074264D02*
X19218912Y-9984264D01*
X19128912Y-9894264D01*
X19038912Y-9984264D01*
X19128912Y-10074264D01*
X19128912Y-11979264D02*
X19218912Y-11889264D01*
X19128912Y-11799264D01*
X19038912Y-11889264D01*
X19128912Y-11979264D01*
X20228912Y-6264264D02*
X20318912Y-6174264D01*
X20228912Y-6084264D01*
X20138912Y-6174264D01*
X20228912Y-6264264D01*
X20228912Y-8169264D02*
X20318912Y-8079264D01*
X20228912Y-7989264D01*
X20138912Y-8079264D01*
X20228912Y-8169264D01*
X20228912Y-10074264D02*
X20318912Y-9984264D01*
X20228912Y-9894264D01*
X20138912Y-9984264D01*
X20228912Y-10074264D01*
X20228912Y-11979264D02*
X20318912Y-11889264D01*
X20228912Y-11799264D01*
X20138912Y-11889264D01*
X20228912Y-11979264D01*
X21033912Y-6264264D02*
X21123912Y-6174264D01*
X21033912Y-6084264D01*
X20943912Y-6174264D01*
X21033912Y-6264264D01*
X21033912Y-8169264D02*
X21123912Y-8079264D01*
X21033912Y-7989264D01*
X20943912Y-8079264D01*
X21033912Y-8169264D01*
X21033912Y-10074264D02*
X21123912Y-9984264D01*
X21033912Y-9894264D01*
X20943912Y-9984264D01*
X21033912Y-10074264D01*
X21033912Y-11979264D02*
X21123912Y-11889264D01*
X21033912Y-11799264D01*
X20943912Y-11889264D01*
X21033912Y-11979264D01*
X22133912Y-6264264D02*
X22223912Y-6174264D01*
X22133912Y-6084264D01*
X22043912Y-6174264D01*
X22133912Y-6264264D01*
X22133912Y-8169264D02*
X22223912Y-8079264D01*
X22133912Y-7989264D01*
X22043912Y-8079264D01*
X22133912Y-8169264D01*
X22133912Y-10074264D02*
X22223912Y-9984264D01*
X22133912Y-9894264D01*
X22043912Y-9984264D01*
X22133912Y-10074264D01*
X22133912Y-11979264D02*
X22223912Y-11889264D01*
X22133912Y-11799264D01*
X22043912Y-11889264D01*
X22133912Y-11979264D01*
D17*
X8482323Y-13805860D02*
X8782323Y-14105860D01*
X8782323Y-13805860D02*
X8482323Y-14105860D01*
X8782323Y-13955860D02*
G75*
G03*
X8782323Y-13955860I-150000J0D01*
G01*
X8518046Y-13260769D02*
X8818046Y-13560769D01*
X8818046Y-13260769D02*
X8518046Y-13560769D01*
X8818046Y-13410769D02*
G75*
G03*
X8818046Y-13410769I-150000J0D01*
G01*
X8860066Y-14200462D02*
X9160066Y-14500462D01*
X9160066Y-14200462D02*
X8860066Y-14500462D01*
X9160066Y-14350462D02*
G75*
G03*
X9160066Y-14350462I-150000J0D01*
G01*
X10616758Y-13520467D02*
X10916758Y-13820467D01*
X10916758Y-13520467D02*
X10616758Y-13820467D01*
X10916758Y-13670467D02*
G75*
G03*
X10916758Y-13670467I-150000J0D01*
G01*
X11147364Y-13650301D02*
X11447364Y-13950301D01*
X11447364Y-13650301D02*
X11147364Y-13950301D01*
X11447364Y-13800301D02*
G75*
G03*
X11447364Y-13800301I-150000J0D01*
G01*
X11405000Y-5220000D02*
X11705000Y-5520000D01*
X11705000Y-5220000D02*
X11405000Y-5520000D01*
X11705000Y-5370000D02*
G75*
G03*
X11705000Y-5370000I-150000J0D01*
G01*
X11405000Y-7130000D02*
X11705000Y-7430000D01*
X11705000Y-7130000D02*
X11405000Y-7430000D01*
X11705000Y-7280000D02*
G75*
G03*
X11705000Y-7280000I-150000J0D01*
G01*
X11405000Y-9030000D02*
X11705000Y-9330000D01*
X11705000Y-9030000D02*
X11405000Y-9330000D01*
X11705000Y-9180000D02*
G75*
G03*
X11705000Y-9180000I-150000J0D01*
G01*
X11405000Y-10935000D02*
X11705000Y-11235000D01*
X11705000Y-10935000D02*
X11405000Y-11235000D01*
X11705000Y-11085000D02*
G75*
G03*
X11705000Y-11085000I-150000J0D01*
G01*
X11601566Y-13346819D02*
X11901566Y-13646819D01*
X11901566Y-13346819D02*
X11601566Y-13646819D01*
X11901566Y-13496819D02*
G75*
G03*
X11901566Y-13496819I-150000J0D01*
G01*
X11905000Y-5440000D02*
X12205000Y-5740000D01*
X12205000Y-5440000D02*
X11905000Y-5740000D01*
X12205000Y-5590000D02*
G75*
G03*
X12205000Y-5590000I-150000J0D01*
G01*
X11905000Y-7350000D02*
X12205000Y-7650000D01*
X12205000Y-7350000D02*
X11905000Y-7650000D01*
X12205000Y-7500000D02*
G75*
G03*
X12205000Y-7500000I-150000J0D01*
G01*
X11905000Y-9250000D02*
X12205000Y-9550000D01*
X12205000Y-9250000D02*
X11905000Y-9550000D01*
X12205000Y-9400000D02*
G75*
G03*
X12205000Y-9400000I-150000J0D01*
G01*
X11905000Y-11155000D02*
X12205000Y-11455000D01*
X12205000Y-11155000D02*
X11905000Y-11455000D01*
X12205000Y-11305000D02*
G75*
G03*
X12205000Y-11305000I-150000J0D01*
G01*
X12405000Y-5220000D02*
X12705000Y-5520000D01*
X12705000Y-5220000D02*
X12405000Y-5520000D01*
X12705000Y-5370000D02*
G75*
G03*
X12705000Y-5370000I-150000J0D01*
G01*
X12405000Y-7130000D02*
X12705000Y-7430000D01*
X12705000Y-7130000D02*
X12405000Y-7430000D01*
X12705000Y-7280000D02*
G75*
G03*
X12705000Y-7280000I-150000J0D01*
G01*
X12405000Y-9030000D02*
X12705000Y-9330000D01*
X12705000Y-9030000D02*
X12405000Y-9330000D01*
X12705000Y-9180000D02*
G75*
G03*
X12705000Y-9180000I-150000J0D01*
G01*
X12405000Y-10935000D02*
X12705000Y-11235000D01*
X12705000Y-10935000D02*
X12405000Y-11235000D01*
X12705000Y-11085000D02*
G75*
G03*
X12705000Y-11085000I-150000J0D01*
G01*
X12609912Y-13265264D02*
X12909912Y-13565264D01*
X12909912Y-13265264D02*
X12609912Y-13565264D01*
X12909912Y-13415264D02*
G75*
G03*
X12909912Y-13415264I-150000J0D01*
G01*
X13109912Y-13485264D02*
X13409912Y-13785264D01*
X13409912Y-13485264D02*
X13109912Y-13785264D01*
X13409912Y-13635264D02*
G75*
G03*
X13409912Y-13635264I-150000J0D01*
G01*
X13310000Y-4970000D02*
X13610000Y-5270000D01*
X13610000Y-4970000D02*
X13310000Y-5270000D01*
X13610000Y-5120000D02*
G75*
G03*
X13610000Y-5120000I-150000J0D01*
G01*
X13310000Y-6875000D02*
X13610000Y-7175000D01*
X13610000Y-6875000D02*
X13310000Y-7175000D01*
X13610000Y-7025000D02*
G75*
G03*
X13610000Y-7025000I-150000J0D01*
G01*
X13310000Y-8780000D02*
X13610000Y-9080000D01*
X13610000Y-8780000D02*
X13310000Y-9080000D01*
X13610000Y-8930000D02*
G75*
G03*
X13610000Y-8930000I-150000J0D01*
G01*
X13310000Y-10685000D02*
X13610000Y-10985000D01*
X13610000Y-10685000D02*
X13310000Y-10985000D01*
X13610000Y-10835000D02*
G75*
G03*
X13610000Y-10835000I-150000J0D01*
G01*
X13609912Y-13265264D02*
X13909912Y-13565264D01*
X13909912Y-13265264D02*
X13609912Y-13565264D01*
X13909912Y-13415264D02*
G75*
G03*
X13909912Y-13415264I-150000J0D01*
G01*
X13810000Y-5190000D02*
X14110000Y-5490000D01*
X14110000Y-5190000D02*
X13810000Y-5490000D01*
X14110000Y-5340000D02*
G75*
G03*
X14110000Y-5340000I-150000J0D01*
G01*
X13810000Y-7095000D02*
X14110000Y-7395000D01*
X14110000Y-7095000D02*
X13810000Y-7395000D01*
X14110000Y-7245000D02*
G75*
G03*
X14110000Y-7245000I-150000J0D01*
G01*
X13810000Y-9000000D02*
X14110000Y-9300000D01*
X14110000Y-9000000D02*
X13810000Y-9300000D01*
X14110000Y-9150000D02*
G75*
G03*
X14110000Y-9150000I-150000J0D01*
G01*
X13810000Y-10905000D02*
X14110000Y-11205000D01*
X14110000Y-10905000D02*
X13810000Y-11205000D01*
X14110000Y-11055000D02*
G75*
G03*
X14110000Y-11055000I-150000J0D01*
G01*
X14310000Y-4970000D02*
X14610000Y-5270000D01*
X14610000Y-4970000D02*
X14310000Y-5270000D01*
X14610000Y-5120000D02*
G75*
G03*
X14610000Y-5120000I-150000J0D01*
G01*
X14310000Y-6875000D02*
X14610000Y-7175000D01*
X14610000Y-6875000D02*
X14310000Y-7175000D01*
X14610000Y-7025000D02*
G75*
G03*
X14610000Y-7025000I-150000J0D01*
G01*
X14310000Y-8780000D02*
X14610000Y-9080000D01*
X14610000Y-8780000D02*
X14310000Y-9080000D01*
X14610000Y-8930000D02*
G75*
G03*
X14610000Y-8930000I-150000J0D01*
G01*
X14310000Y-10685000D02*
X14610000Y-10985000D01*
X14610000Y-10685000D02*
X14310000Y-10985000D01*
X14610000Y-10835000D02*
G75*
G03*
X14610000Y-10835000I-150000J0D01*
G01*
X14611258Y-13353819D02*
X14911258Y-13653819D01*
X14911258Y-13353819D02*
X14611258Y-13653819D01*
X14911258Y-13503819D02*
G75*
G03*
X14911258Y-13503819I-150000J0D01*
G01*
X15065460Y-13657301D02*
X15365460Y-13957301D01*
X15365460Y-13657301D02*
X15065460Y-13957301D01*
X15365460Y-13807301D02*
G75*
G03*
X15365460Y-13807301I-150000J0D01*
G01*
X15215000Y-4720000D02*
X15515000Y-5020000D01*
X15515000Y-4720000D02*
X15215000Y-5020000D01*
X15515000Y-4870000D02*
G75*
G03*
X15515000Y-4870000I-150000J0D01*
G01*
X15215000Y-6625000D02*
X15515000Y-6925000D01*
X15515000Y-6625000D02*
X15215000Y-6925000D01*
X15515000Y-6775000D02*
G75*
G03*
X15515000Y-6775000I-150000J0D01*
G01*
X15215000Y-8530000D02*
X15515000Y-8830000D01*
X15515000Y-8530000D02*
X15215000Y-8830000D01*
X15515000Y-8680000D02*
G75*
G03*
X15515000Y-8680000I-150000J0D01*
G01*
X15215000Y-10435000D02*
X15515000Y-10735000D01*
X15515000Y-10435000D02*
X15215000Y-10735000D01*
X15515000Y-10585000D02*
G75*
G03*
X15515000Y-10585000I-150000J0D01*
G01*
X15596066Y-13527467D02*
X15896066Y-13827467D01*
X15896066Y-13527467D02*
X15596066Y-13827467D01*
X15896066Y-13677467D02*
G75*
G03*
X15896066Y-13677467I-150000J0D01*
G01*
X15715000Y-4940000D02*
X16015000Y-5240000D01*
X16015000Y-4940000D02*
X15715000Y-5240000D01*
X16015000Y-5090000D02*
G75*
G03*
X16015000Y-5090000I-150000J0D01*
G01*
X15715000Y-6845000D02*
X16015000Y-7145000D01*
X16015000Y-6845000D02*
X15715000Y-7145000D01*
X16015000Y-6995000D02*
G75*
G03*
X16015000Y-6995000I-150000J0D01*
G01*
X15715000Y-8750000D02*
X16015000Y-9050000D01*
X16015000Y-8750000D02*
X15715000Y-9050000D01*
X16015000Y-8900000D02*
G75*
G03*
X16015000Y-8900000I-150000J0D01*
G01*
X15715000Y-10655000D02*
X16015000Y-10955000D01*
X16015000Y-10655000D02*
X15715000Y-10955000D01*
X16015000Y-10805000D02*
G75*
G03*
X16015000Y-10805000I-150000J0D01*
G01*
X16215000Y-4720000D02*
X16515000Y-5020000D01*
X16515000Y-4720000D02*
X16215000Y-5020000D01*
X16515000Y-4870000D02*
G75*
G03*
X16515000Y-4870000I-150000J0D01*
G01*
X16215000Y-6625000D02*
X16515000Y-6925000D01*
X16515000Y-6625000D02*
X16215000Y-6925000D01*
X16515000Y-6775000D02*
G75*
G03*
X16515000Y-6775000I-150000J0D01*
G01*
X16215000Y-8530000D02*
X16515000Y-8830000D01*
X16515000Y-8530000D02*
X16215000Y-8830000D01*
X16515000Y-8680000D02*
G75*
G03*
X16515000Y-8680000I-150000J0D01*
G01*
X16215000Y-10435000D02*
X16515000Y-10735000D01*
X16515000Y-10435000D02*
X16215000Y-10735000D01*
X16515000Y-10585000D02*
G75*
G03*
X16515000Y-10585000I-150000J0D01*
G01*
X17120000Y-4970000D02*
X17420000Y-5270000D01*
X17420000Y-4970000D02*
X17120000Y-5270000D01*
X17420000Y-5120000D02*
G75*
G03*
X17420000Y-5120000I-150000J0D01*
G01*
X17120000Y-6875000D02*
X17420000Y-7175000D01*
X17420000Y-6875000D02*
X17120000Y-7175000D01*
X17420000Y-7025000D02*
G75*
G03*
X17420000Y-7025000I-150000J0D01*
G01*
X17120000Y-8780000D02*
X17420000Y-9080000D01*
X17420000Y-8780000D02*
X17120000Y-9080000D01*
X17420000Y-8930000D02*
G75*
G03*
X17420000Y-8930000I-150000J0D01*
G01*
X17120000Y-10685000D02*
X17420000Y-10985000D01*
X17420000Y-10685000D02*
X17120000Y-10985000D01*
X17420000Y-10835000D02*
G75*
G03*
X17420000Y-10835000I-150000J0D01*
G01*
X17620000Y-5190000D02*
X17920000Y-5490000D01*
X17920000Y-5190000D02*
X17620000Y-5490000D01*
X17920000Y-5340000D02*
G75*
G03*
X17920000Y-5340000I-150000J0D01*
G01*
X17620000Y-7095000D02*
X17920000Y-7395000D01*
X17920000Y-7095000D02*
X17620000Y-7395000D01*
X17920000Y-7245000D02*
G75*
G03*
X17920000Y-7245000I-150000J0D01*
G01*
X17620000Y-9000000D02*
X17920000Y-9300000D01*
X17920000Y-9000000D02*
X17620000Y-9300000D01*
X17920000Y-9150000D02*
G75*
G03*
X17920000Y-9150000I-150000J0D01*
G01*
X17620000Y-10905000D02*
X17920000Y-11205000D01*
X17920000Y-10905000D02*
X17620000Y-11205000D01*
X17920000Y-11055000D02*
G75*
G03*
X17920000Y-11055000I-150000J0D01*
G01*
X18120000Y-4970000D02*
X18420000Y-5270000D01*
X18420000Y-4970000D02*
X18120000Y-5270000D01*
X18420000Y-5120000D02*
G75*
G03*
X18420000Y-5120000I-150000J0D01*
G01*
X18120000Y-6875000D02*
X18420000Y-7175000D01*
X18420000Y-6875000D02*
X18120000Y-7175000D01*
X18420000Y-7025000D02*
G75*
G03*
X18420000Y-7025000I-150000J0D01*
G01*
X18120000Y-8780000D02*
X18420000Y-9080000D01*
X18420000Y-8780000D02*
X18120000Y-9080000D01*
X18420000Y-8930000D02*
G75*
G03*
X18420000Y-8930000I-150000J0D01*
G01*
X18120000Y-10685000D02*
X18420000Y-10985000D01*
X18420000Y-10685000D02*
X18120000Y-10985000D01*
X18420000Y-10835000D02*
G75*
G03*
X18420000Y-10835000I-150000J0D01*
G01*
X19028912Y-6394264D02*
X19328912Y-6694264D01*
X19328912Y-6394264D02*
X19028912Y-6694264D01*
X19328912Y-6544264D02*
G75*
G03*
X19328912Y-6544264I-150000J0D01*
G01*
X19028912Y-8299264D02*
X19328912Y-8599264D01*
X19328912Y-8299264D02*
X19028912Y-8599264D01*
X19328912Y-8449264D02*
G75*
G03*
X19328912Y-8449264I-150000J0D01*
G01*
X19028912Y-10204264D02*
X19328912Y-10504264D01*
X19328912Y-10204264D02*
X19028912Y-10504264D01*
X19328912Y-10354264D02*
G75*
G03*
X19328912Y-10354264I-150000J0D01*
G01*
X19028912Y-12109264D02*
X19328912Y-12409264D01*
X19328912Y-12109264D02*
X19028912Y-12409264D01*
X19328912Y-12259264D02*
G75*
G03*
X19328912Y-12259264I-150000J0D01*
G01*
X19528912Y-6614264D02*
X19828912Y-6914264D01*
X19828912Y-6614264D02*
X19528912Y-6914264D01*
X19828912Y-6764264D02*
G75*
G03*
X19828912Y-6764264I-150000J0D01*
G01*
X19528912Y-8519264D02*
X19828912Y-8819264D01*
X19828912Y-8519264D02*
X19528912Y-8819264D01*
X19828912Y-8669264D02*
G75*
G03*
X19828912Y-8669264I-150000J0D01*
G01*
X19528912Y-10424264D02*
X19828912Y-10724264D01*
X19828912Y-10424264D02*
X19528912Y-10724264D01*
X19828912Y-10574264D02*
G75*
G03*
X19828912Y-10574264I-150000J0D01*
G01*
X19528912Y-12329264D02*
X19828912Y-12629264D01*
X19828912Y-12329264D02*
X19528912Y-12629264D01*
X19828912Y-12479264D02*
G75*
G03*
X19828912Y-12479264I-150000J0D01*
G01*
X20028912Y-6394264D02*
X20328912Y-6694264D01*
X20328912Y-6394264D02*
X20028912Y-6694264D01*
X20328912Y-6544264D02*
G75*
G03*
X20328912Y-6544264I-150000J0D01*
G01*
X20028912Y-8299264D02*
X20328912Y-8599264D01*
X20328912Y-8299264D02*
X20028912Y-8599264D01*
X20328912Y-8449264D02*
G75*
G03*
X20328912Y-8449264I-150000J0D01*
G01*
X20028912Y-10204264D02*
X20328912Y-10504264D01*
X20328912Y-10204264D02*
X20028912Y-10504264D01*
X20328912Y-10354264D02*
G75*
G03*
X20328912Y-10354264I-150000J0D01*
G01*
X20028912Y-12109264D02*
X20328912Y-12409264D01*
X20328912Y-12109264D02*
X20028912Y-12409264D01*
X20328912Y-12259264D02*
G75*
G03*
X20328912Y-12259264I-150000J0D01*
G01*
X20933912Y-6394264D02*
X21233912Y-6694264D01*
X21233912Y-6394264D02*
X20933912Y-6694264D01*
X21233912Y-6544264D02*
G75*
G03*
X21233912Y-6544264I-150000J0D01*
G01*
X20933912Y-8299264D02*
X21233912Y-8599264D01*
X21233912Y-8299264D02*
X20933912Y-8599264D01*
X21233912Y-8449264D02*
G75*
G03*
X21233912Y-8449264I-150000J0D01*
G01*
X20933912Y-10204264D02*
X21233912Y-10504264D01*
X21233912Y-10204264D02*
X20933912Y-10504264D01*
X21233912Y-10354264D02*
G75*
G03*
X21233912Y-10354264I-150000J0D01*
G01*
X20933912Y-12109264D02*
X21233912Y-12409264D01*
X21233912Y-12109264D02*
X20933912Y-12409264D01*
X21233912Y-12259264D02*
G75*
G03*
X21233912Y-12259264I-150000J0D01*
G01*
X21433912Y-6614264D02*
X21733912Y-6914264D01*
X21733912Y-6614264D02*
X21433912Y-6914264D01*
X21733912Y-6764264D02*
G75*
G03*
X21733912Y-6764264I-150000J0D01*
G01*
X21433912Y-8519264D02*
X21733912Y-8819264D01*
X21733912Y-8519264D02*
X21433912Y-8819264D01*
X21733912Y-8669264D02*
G75*
G03*
X21733912Y-8669264I-150000J0D01*
G01*
X21433912Y-10424264D02*
X21733912Y-10724264D01*
X21733912Y-10424264D02*
X21433912Y-10724264D01*
X21733912Y-10574264D02*
G75*
G03*
X21733912Y-10574264I-150000J0D01*
G01*
X21433912Y-12329264D02*
X21733912Y-12629264D01*
X21733912Y-12329264D02*
X21433912Y-12629264D01*
X21733912Y-12479264D02*
G75*
G03*
X21733912Y-12479264I-150000J0D01*
G01*
X21933912Y-6394264D02*
X22233912Y-6694264D01*
X22233912Y-6394264D02*
X21933912Y-6694264D01*
X22233912Y-6544264D02*
G75*
G03*
X22233912Y-6544264I-150000J0D01*
G01*
X21933912Y-8299264D02*
X22233912Y-8599264D01*
X22233912Y-8299264D02*
X21933912Y-8599264D01*
X22233912Y-8449264D02*
G75*
G03*
X22233912Y-8449264I-150000J0D01*
G01*
X21933912Y-10204264D02*
X22233912Y-10504264D01*
X22233912Y-10204264D02*
X21933912Y-10504264D01*
X22233912Y-10354264D02*
G75*
G03*
X22233912Y-10354264I-150000J0D01*
G01*
X21933912Y-12109264D02*
X22233912Y-12409264D01*
X22233912Y-12109264D02*
X21933912Y-12409264D01*
X22233912Y-12259264D02*
G75*
G03*
X22233912Y-12259264I-150000J0D01*
G01*
D18*
X9016742Y-13584068D02*
X9356742Y-13924068D01*
X9356742Y-13584068D02*
X9016742Y-13924068D01*
X9186742Y-13584068D02*
X9186742Y-13924068D01*
X9016742Y-13754068D02*
X9356742Y-13754068D01*
X11024912Y-13049264D02*
X11364912Y-13389264D01*
X11364912Y-13049264D02*
X11024912Y-13389264D01*
X11194912Y-13049264D02*
X11194912Y-13389264D01*
X11024912Y-13219264D02*
X11364912Y-13219264D01*
X11885000Y-4830000D02*
X12225000Y-5170000D01*
X12225000Y-4830000D02*
X11885000Y-5170000D01*
X12055000Y-4830000D02*
X12055000Y-5170000D01*
X11885000Y-5000000D02*
X12225000Y-5000000D01*
X11885000Y-6740000D02*
X12225000Y-7080000D01*
X12225000Y-6740000D02*
X11885000Y-7080000D01*
X12055000Y-6740000D02*
X12055000Y-7080000D01*
X11885000Y-6910000D02*
X12225000Y-6910000D01*
X11885000Y-8640000D02*
X12225000Y-8980000D01*
X12225000Y-8640000D02*
X11885000Y-8980000D01*
X12055000Y-8640000D02*
X12055000Y-8980000D01*
X11885000Y-8810000D02*
X12225000Y-8810000D01*
X11885000Y-10545000D02*
X12225000Y-10885000D01*
X12225000Y-10545000D02*
X11885000Y-10885000D01*
X12055000Y-10545000D02*
X12055000Y-10885000D01*
X11885000Y-10715000D02*
X12225000Y-10715000D01*
X13089912Y-12875264D02*
X13429912Y-13215264D01*
X13429912Y-12875264D02*
X13089912Y-13215264D01*
X13259912Y-12875264D02*
X13259912Y-13215264D01*
X13089912Y-13045264D02*
X13429912Y-13045264D01*
X13790000Y-4580000D02*
X14130000Y-4920000D01*
X14130000Y-4580000D02*
X13790000Y-4920000D01*
X13960000Y-4580000D02*
X13960000Y-4920000D01*
X13790000Y-4750000D02*
X14130000Y-4750000D01*
X13790000Y-6485000D02*
X14130000Y-6825000D01*
X14130000Y-6485000D02*
X13790000Y-6825000D01*
X13960000Y-6485000D02*
X13960000Y-6825000D01*
X13790000Y-6655000D02*
X14130000Y-6655000D01*
X13790000Y-8390000D02*
X14130000Y-8730000D01*
X14130000Y-8390000D02*
X13790000Y-8730000D01*
X13960000Y-8390000D02*
X13960000Y-8730000D01*
X13790000Y-8560000D02*
X14130000Y-8560000D01*
X13790000Y-10295000D02*
X14130000Y-10635000D01*
X14130000Y-10295000D02*
X13790000Y-10635000D01*
X13960000Y-10295000D02*
X13960000Y-10635000D01*
X13790000Y-10465000D02*
X14130000Y-10465000D01*
X15147912Y-13056264D02*
X15487912Y-13396264D01*
X15487912Y-13056264D02*
X15147912Y-13396264D01*
X15317912Y-13056264D02*
X15317912Y-13396264D01*
X15147912Y-13226264D02*
X15487912Y-13226264D01*
X15695000Y-4330000D02*
X16035000Y-4670000D01*
X16035000Y-4330000D02*
X15695000Y-4670000D01*
X15865000Y-4330000D02*
X15865000Y-4670000D01*
X15695000Y-4500000D02*
X16035000Y-4500000D01*
X15695000Y-6235000D02*
X16035000Y-6575000D01*
X16035000Y-6235000D02*
X15695000Y-6575000D01*
X15865000Y-6235000D02*
X15865000Y-6575000D01*
X15695000Y-6405000D02*
X16035000Y-6405000D01*
X15695000Y-8140000D02*
X16035000Y-8480000D01*
X16035000Y-8140000D02*
X15695000Y-8480000D01*
X15865000Y-8140000D02*
X15865000Y-8480000D01*
X15695000Y-8310000D02*
X16035000Y-8310000D01*
X15695000Y-10045000D02*
X16035000Y-10385000D01*
X16035000Y-10045000D02*
X15695000Y-10385000D01*
X15865000Y-10045000D02*
X15865000Y-10385000D01*
X15695000Y-10215000D02*
X16035000Y-10215000D01*
X17600000Y-4580000D02*
X17940000Y-4920000D01*
X17940000Y-4580000D02*
X17600000Y-4920000D01*
X17770000Y-4580000D02*
X17770000Y-4920000D01*
X17600000Y-4750000D02*
X17940000Y-4750000D01*
X17600000Y-6485000D02*
X17940000Y-6825000D01*
X17940000Y-6485000D02*
X17600000Y-6825000D01*
X17770000Y-6485000D02*
X17770000Y-6825000D01*
X17600000Y-6655000D02*
X17940000Y-6655000D01*
X17600000Y-8390000D02*
X17940000Y-8730000D01*
X17940000Y-8390000D02*
X17600000Y-8730000D01*
X17770000Y-8390000D02*
X17770000Y-8730000D01*
X17600000Y-8560000D02*
X17940000Y-8560000D01*
X17600000Y-10295000D02*
X17940000Y-10635000D01*
X17940000Y-10295000D02*
X17600000Y-10635000D01*
X17770000Y-10295000D02*
X17770000Y-10635000D01*
X17600000Y-10465000D02*
X17940000Y-10465000D01*
X19508912Y-6004264D02*
X19848912Y-6344264D01*
X19848912Y-6004264D02*
X19508912Y-6344264D01*
X19678912Y-6004264D02*
X19678912Y-6344264D01*
X19508912Y-6174264D02*
X19848912Y-6174264D01*
X19508912Y-7909264D02*
X19848912Y-8249264D01*
X19848912Y-7909264D02*
X19508912Y-8249264D01*
X19678912Y-7909264D02*
X19678912Y-8249264D01*
X19508912Y-8079264D02*
X19848912Y-8079264D01*
X19508912Y-9814264D02*
X19848912Y-10154264D01*
X19848912Y-9814264D02*
X19508912Y-10154264D01*
X19678912Y-9814264D02*
X19678912Y-10154264D01*
X19508912Y-9984264D02*
X19848912Y-9984264D01*
X19508912Y-11719264D02*
X19848912Y-12059264D01*
X19848912Y-11719264D02*
X19508912Y-12059264D01*
X19678912Y-11719264D02*
X19678912Y-12059264D01*
X19508912Y-11889264D02*
X19848912Y-11889264D01*
X21413912Y-6004264D02*
X21753912Y-6344264D01*
X21753912Y-6004264D02*
X21413912Y-6344264D01*
X21583912Y-6004264D02*
X21583912Y-6344264D01*
X21413912Y-6174264D02*
X21753912Y-6174264D01*
X21413912Y-7909264D02*
X21753912Y-8249264D01*
X21753912Y-7909264D02*
X21413912Y-8249264D01*
X21583912Y-7909264D02*
X21583912Y-8249264D01*
X21413912Y-8079264D02*
X21753912Y-8079264D01*
X21413912Y-9814264D02*
X21753912Y-10154264D01*
X21753912Y-9814264D02*
X21413912Y-10154264D01*
X21583912Y-9814264D02*
X21583912Y-10154264D01*
X21413912Y-9984264D02*
X21753912Y-9984264D01*
X21413912Y-11719264D02*
X21753912Y-12059264D01*
X21753912Y-11719264D02*
X21413912Y-12059264D01*
X21583912Y-11719264D02*
X21583912Y-12059264D01*
X21413912Y-11889264D02*
X21753912Y-11889264D01*
D11*
X8109532Y-15435354D02*
X8109532Y-15235354D01*
X8157151Y-15235354D01*
X8185722Y-15244878D01*
X8204770Y-15263925D01*
X8214294Y-15282973D01*
X8223817Y-15321068D01*
X8223817Y-15349639D01*
X8214294Y-15387735D01*
X8204770Y-15406782D01*
X8185722Y-15425830D01*
X8157151Y-15435354D01*
X8109532Y-15435354D01*
X8309532Y-15435354D02*
X8309532Y-15302020D01*
X8309532Y-15340116D02*
X8319056Y-15321068D01*
X8328579Y-15311544D01*
X8347627Y-15302020D01*
X8366675Y-15302020D01*
X8433341Y-15435354D02*
X8433341Y-15302020D01*
X8433341Y-15235354D02*
X8423818Y-15244878D01*
X8433341Y-15254401D01*
X8442865Y-15244878D01*
X8433341Y-15235354D01*
X8433341Y-15254401D01*
X8557151Y-15435354D02*
X8538103Y-15425830D01*
X8528579Y-15406782D01*
X8528579Y-15235354D01*
X8661913Y-15435354D02*
X8642865Y-15425830D01*
X8633341Y-15406782D01*
X8633341Y-15235354D01*
X8890484Y-15435354D02*
X8890484Y-15235354D01*
X8957151Y-15378211D01*
X9023818Y-15235354D01*
X9023818Y-15435354D01*
X9204770Y-15435354D02*
X9204770Y-15330592D01*
X9195246Y-15311544D01*
X9176199Y-15302020D01*
X9138103Y-15302020D01*
X9119056Y-15311544D01*
X9204770Y-15425830D02*
X9185722Y-15435354D01*
X9138103Y-15435354D01*
X9119056Y-15425830D01*
X9109532Y-15406782D01*
X9109532Y-15387735D01*
X9119056Y-15368687D01*
X9138103Y-15359163D01*
X9185722Y-15359163D01*
X9204770Y-15349639D01*
X9300008Y-15302020D02*
X9300008Y-15502020D01*
X9300008Y-15311544D02*
X9319056Y-15302020D01*
X9357151Y-15302020D01*
X9376199Y-15311544D01*
X9385722Y-15321068D01*
X9395246Y-15340116D01*
X9395246Y-15397258D01*
X9385722Y-15416306D01*
X9376199Y-15425830D01*
X9357151Y-15435354D01*
X9319056Y-15435354D01*
X9300008Y-15425830D01*
X9480960Y-15416306D02*
X9490484Y-15425830D01*
X9480960Y-15435354D01*
X9471437Y-15425830D01*
X9480960Y-15416306D01*
X9480960Y-15435354D01*
X9480960Y-15311544D02*
X9490484Y-15321068D01*
X9480960Y-15330592D01*
X9471437Y-15321068D01*
X9480960Y-15311544D01*
X9480960Y-15330592D01*
D12*
X7812543Y-15745193D02*
X7851913Y-15784563D01*
X7851913Y-15745193D02*
X7812543Y-15784563D01*
D11*
X8147627Y-15655354D02*
X8166675Y-15655354D01*
X8185722Y-15664878D01*
X8195246Y-15674401D01*
X8204770Y-15693449D01*
X8214294Y-15731544D01*
X8214294Y-15779163D01*
X8204770Y-15817258D01*
X8195246Y-15836306D01*
X8185722Y-15845830D01*
X8166675Y-15855354D01*
X8147627Y-15855354D01*
X8128579Y-15845830D01*
X8119056Y-15836306D01*
X8109532Y-15817258D01*
X8100008Y-15779163D01*
X8100008Y-15731544D01*
X8109532Y-15693449D01*
X8119056Y-15674401D01*
X8128579Y-15664878D01*
X8147627Y-15655354D01*
X8300008Y-15836306D02*
X8309532Y-15845830D01*
X8300008Y-15855354D01*
X8290484Y-15845830D01*
X8300008Y-15836306D01*
X8300008Y-15855354D01*
X8376198Y-15655354D02*
X8500008Y-15655354D01*
X8433341Y-15731544D01*
X8461913Y-15731544D01*
X8480960Y-15741068D01*
X8490484Y-15750592D01*
X8500008Y-15769639D01*
X8500008Y-15817258D01*
X8490484Y-15836306D01*
X8480960Y-15845830D01*
X8461913Y-15855354D01*
X8404770Y-15855354D01*
X8385722Y-15845830D01*
X8376198Y-15836306D01*
X8595246Y-15855354D02*
X8633341Y-15855354D01*
X8652389Y-15845830D01*
X8661913Y-15836306D01*
X8680960Y-15807735D01*
X8690484Y-15769639D01*
X8690484Y-15693449D01*
X8680960Y-15674401D01*
X8671437Y-15664878D01*
X8652389Y-15655354D01*
X8614294Y-15655354D01*
X8595246Y-15664878D01*
X8585722Y-15674401D01*
X8576199Y-15693449D01*
X8576199Y-15741068D01*
X8585722Y-15760116D01*
X8595246Y-15769639D01*
X8614294Y-15779163D01*
X8652389Y-15779163D01*
X8671437Y-15769639D01*
X8680960Y-15760116D01*
X8690484Y-15741068D01*
X8861913Y-15722020D02*
X8861913Y-15855354D01*
X8814294Y-15645830D02*
X8766675Y-15788687D01*
X8890484Y-15788687D01*
X8966675Y-15855354D02*
X8966675Y-15722020D01*
X8966675Y-15741068D02*
X8976199Y-15731544D01*
X8995246Y-15722020D01*
X9023818Y-15722020D01*
X9042865Y-15731544D01*
X9052389Y-15750592D01*
X9052389Y-15855354D01*
X9052389Y-15750592D02*
X9061913Y-15731544D01*
X9080960Y-15722020D01*
X9109532Y-15722020D01*
X9128579Y-15731544D01*
X9138103Y-15750592D01*
X9138103Y-15855354D01*
X9233341Y-15855354D02*
X9233341Y-15722020D01*
X9233341Y-15741068D02*
X9242865Y-15731544D01*
X9261913Y-15722020D01*
X9290484Y-15722020D01*
X9309532Y-15731544D01*
X9319056Y-15750592D01*
X9319056Y-15855354D01*
X9319056Y-15750592D02*
X9328579Y-15731544D01*
X9347627Y-15722020D01*
X9376199Y-15722020D01*
X9395246Y-15731544D01*
X9404770Y-15750592D01*
X9404770Y-15855354D01*
X9795246Y-15645830D02*
X9623818Y-15902973D01*
X10052389Y-15655354D02*
X10071437Y-15655354D01*
X10090484Y-15664878D01*
X10100008Y-15674401D01*
X10109532Y-15693449D01*
X10119056Y-15731544D01*
X10119056Y-15779163D01*
X10109532Y-15817258D01*
X10100008Y-15836306D01*
X10090484Y-15845830D01*
X10071437Y-15855354D01*
X10052389Y-15855354D01*
X10033341Y-15845830D01*
X10023818Y-15836306D01*
X10014294Y-15817258D01*
X10004770Y-15779163D01*
X10004770Y-15731544D01*
X10014294Y-15693449D01*
X10023818Y-15674401D01*
X10033341Y-15664878D01*
X10052389Y-15655354D01*
X10204770Y-15836306D02*
X10214294Y-15845830D01*
X10204770Y-15855354D01*
X10195246Y-15845830D01*
X10204770Y-15836306D01*
X10204770Y-15855354D01*
X10338103Y-15655354D02*
X10357151Y-15655354D01*
X10376199Y-15664878D01*
X10385722Y-15674401D01*
X10395246Y-15693449D01*
X10404770Y-15731544D01*
X10404770Y-15779163D01*
X10395246Y-15817258D01*
X10385722Y-15836306D01*
X10376199Y-15845830D01*
X10357151Y-15855354D01*
X10338103Y-15855354D01*
X10319056Y-15845830D01*
X10309532Y-15836306D01*
X10300008Y-15817258D01*
X10290484Y-15779163D01*
X10290484Y-15731544D01*
X10300008Y-15693449D01*
X10309532Y-15674401D01*
X10319056Y-15664878D01*
X10338103Y-15655354D01*
X10595246Y-15855354D02*
X10480960Y-15855354D01*
X10538103Y-15855354D02*
X10538103Y-15655354D01*
X10519056Y-15683925D01*
X10500008Y-15702973D01*
X10480960Y-15712497D01*
X10776199Y-15655354D02*
X10680960Y-15655354D01*
X10671437Y-15750592D01*
X10680960Y-15741068D01*
X10700008Y-15731544D01*
X10747627Y-15731544D01*
X10766675Y-15741068D01*
X10776199Y-15750592D01*
X10785722Y-15769639D01*
X10785722Y-15817258D01*
X10776199Y-15836306D01*
X10766675Y-15845830D01*
X10747627Y-15855354D01*
X10700008Y-15855354D01*
X10680960Y-15845830D01*
X10671437Y-15836306D01*
X10966675Y-15655354D02*
X10871437Y-15655354D01*
X10861913Y-15750592D01*
X10871437Y-15741068D01*
X10890484Y-15731544D01*
X10938103Y-15731544D01*
X10957151Y-15741068D01*
X10966675Y-15750592D01*
X10976199Y-15769639D01*
X10976199Y-15817258D01*
X10966675Y-15836306D01*
X10957151Y-15845830D01*
X10938103Y-15855354D01*
X10890484Y-15855354D01*
X10871437Y-15845830D01*
X10861913Y-15836306D01*
X11052389Y-15655354D02*
X11052389Y-15693449D01*
X11128579Y-15655354D02*
X11128579Y-15693449D01*
X11423817Y-15931544D02*
X11414294Y-15922020D01*
X11395246Y-15893449D01*
X11385722Y-15874401D01*
X11376198Y-15845830D01*
X11366675Y-15798211D01*
X11366675Y-15760116D01*
X11376198Y-15712497D01*
X11385722Y-15683925D01*
X11395246Y-15664878D01*
X11414294Y-15636306D01*
X11423817Y-15626782D01*
X11585722Y-15722020D02*
X11585722Y-15855354D01*
X11538103Y-15645830D02*
X11490484Y-15788687D01*
X11614294Y-15788687D01*
X11842865Y-15855354D02*
X11842865Y-15655354D01*
X11928579Y-15855354D02*
X11928579Y-15750592D01*
X11919056Y-15731544D01*
X11900008Y-15722020D01*
X11871437Y-15722020D01*
X11852389Y-15731544D01*
X11842865Y-15741068D01*
X12052389Y-15855354D02*
X12033341Y-15845830D01*
X12023817Y-15836306D01*
X12014294Y-15817258D01*
X12014294Y-15760116D01*
X12023817Y-15741068D01*
X12033341Y-15731544D01*
X12052389Y-15722020D01*
X12080960Y-15722020D01*
X12100008Y-15731544D01*
X12109532Y-15741068D01*
X12119056Y-15760116D01*
X12119056Y-15817258D01*
X12109532Y-15836306D01*
X12100008Y-15845830D01*
X12080960Y-15855354D01*
X12052389Y-15855354D01*
X12233341Y-15855354D02*
X12214294Y-15845830D01*
X12204770Y-15826782D01*
X12204770Y-15655354D01*
X12385722Y-15845830D02*
X12366675Y-15855354D01*
X12328579Y-15855354D01*
X12309532Y-15845830D01*
X12300008Y-15826782D01*
X12300008Y-15750592D01*
X12309532Y-15731544D01*
X12328579Y-15722020D01*
X12366675Y-15722020D01*
X12385722Y-15731544D01*
X12395246Y-15750592D01*
X12395246Y-15769639D01*
X12300008Y-15788687D01*
X12471437Y-15845830D02*
X12490484Y-15855354D01*
X12528579Y-15855354D01*
X12547627Y-15845830D01*
X12557151Y-15826782D01*
X12557151Y-15817258D01*
X12547627Y-15798211D01*
X12528579Y-15788687D01*
X12500008Y-15788687D01*
X12480960Y-15779163D01*
X12471437Y-15760116D01*
X12471437Y-15750592D01*
X12480960Y-15731544D01*
X12500008Y-15722020D01*
X12528579Y-15722020D01*
X12547627Y-15731544D01*
X12623817Y-15931544D02*
X12633341Y-15922020D01*
X12652389Y-15893449D01*
X12661913Y-15874401D01*
X12671437Y-15845830D01*
X12680960Y-15798211D01*
X12680960Y-15760116D01*
X12671437Y-15712497D01*
X12661913Y-15683925D01*
X12652389Y-15664878D01*
X12633341Y-15636306D01*
X12623817Y-15626782D01*
X12985722Y-15931544D02*
X12976198Y-15922020D01*
X12957151Y-15893449D01*
X12947627Y-15874401D01*
X12938103Y-15845830D01*
X12928579Y-15798211D01*
X12928579Y-15760116D01*
X12938103Y-15712497D01*
X12947627Y-15683925D01*
X12957151Y-15664878D01*
X12976198Y-15636306D01*
X12985722Y-15626782D01*
X13061913Y-15722020D02*
X13061913Y-15855354D01*
X13061913Y-15741068D02*
X13071437Y-15731544D01*
X13090484Y-15722020D01*
X13119056Y-15722020D01*
X13138103Y-15731544D01*
X13147627Y-15750592D01*
X13147627Y-15855354D01*
X13271437Y-15855354D02*
X13252389Y-15845830D01*
X13242865Y-15836306D01*
X13233341Y-15817258D01*
X13233341Y-15760116D01*
X13242865Y-15741068D01*
X13252389Y-15731544D01*
X13271437Y-15722020D01*
X13300008Y-15722020D01*
X13319056Y-15731544D01*
X13328579Y-15741068D01*
X13338103Y-15760116D01*
X13338103Y-15817258D01*
X13328579Y-15836306D01*
X13319056Y-15845830D01*
X13300008Y-15855354D01*
X13271437Y-15855354D01*
X13395246Y-15722020D02*
X13471437Y-15722020D01*
X13423817Y-15655354D02*
X13423817Y-15826782D01*
X13433341Y-15845830D01*
X13452389Y-15855354D01*
X13471437Y-15855354D01*
X13690484Y-15722020D02*
X13690484Y-15922020D01*
X13690484Y-15731544D02*
X13709532Y-15722020D01*
X13747627Y-15722020D01*
X13766675Y-15731544D01*
X13776198Y-15741068D01*
X13785722Y-15760116D01*
X13785722Y-15817258D01*
X13776198Y-15836306D01*
X13766675Y-15845830D01*
X13747627Y-15855354D01*
X13709532Y-15855354D01*
X13690484Y-15845830D01*
X13900008Y-15855354D02*
X13880960Y-15845830D01*
X13871437Y-15826782D01*
X13871437Y-15655354D01*
X14061913Y-15855354D02*
X14061913Y-15750592D01*
X14052389Y-15731544D01*
X14033341Y-15722020D01*
X13995246Y-15722020D01*
X13976198Y-15731544D01*
X14061913Y-15845830D02*
X14042865Y-15855354D01*
X13995246Y-15855354D01*
X13976198Y-15845830D01*
X13966675Y-15826782D01*
X13966675Y-15807735D01*
X13976198Y-15788687D01*
X13995246Y-15779163D01*
X14042865Y-15779163D01*
X14061913Y-15769639D01*
X14128579Y-15722020D02*
X14204770Y-15722020D01*
X14157151Y-15655354D02*
X14157151Y-15826782D01*
X14166675Y-15845830D01*
X14185722Y-15855354D01*
X14204770Y-15855354D01*
X14347627Y-15845830D02*
X14328579Y-15855354D01*
X14290484Y-15855354D01*
X14271437Y-15845830D01*
X14261913Y-15826782D01*
X14261913Y-15750592D01*
X14271437Y-15731544D01*
X14290484Y-15722020D01*
X14328579Y-15722020D01*
X14347627Y-15731544D01*
X14357151Y-15750592D01*
X14357151Y-15769639D01*
X14261913Y-15788687D01*
X14528579Y-15855354D02*
X14528579Y-15655354D01*
X14528579Y-15845830D02*
X14509532Y-15855354D01*
X14471437Y-15855354D01*
X14452389Y-15845830D01*
X14442865Y-15836306D01*
X14433341Y-15817258D01*
X14433341Y-15760116D01*
X14442865Y-15741068D01*
X14452389Y-15731544D01*
X14471437Y-15722020D01*
X14509532Y-15722020D01*
X14528579Y-15731544D01*
X14604770Y-15931544D02*
X14614294Y-15922020D01*
X14633341Y-15893449D01*
X14642865Y-15874401D01*
X14652389Y-15845830D01*
X14661913Y-15798211D01*
X14661913Y-15760116D01*
X14652389Y-15712497D01*
X14642865Y-15683925D01*
X14633341Y-15664878D01*
X14614294Y-15636306D01*
X14604770Y-15626782D01*
D13*
X7851913Y-16028878D02*
G75*
G03*
X7851913Y-16028878I-39370J0D01*
G01*
D11*
X8147627Y-15919354D02*
X8166675Y-15919354D01*
X8185722Y-15928878D01*
X8195246Y-15938401D01*
X8204770Y-15957449D01*
X8214294Y-15995544D01*
X8214294Y-16043163D01*
X8204770Y-16081258D01*
X8195246Y-16100306D01*
X8185722Y-16109830D01*
X8166675Y-16119354D01*
X8147627Y-16119354D01*
X8128579Y-16109830D01*
X8119056Y-16100306D01*
X8109532Y-16081258D01*
X8100008Y-16043163D01*
X8100008Y-15995544D01*
X8109532Y-15957449D01*
X8119056Y-15938401D01*
X8128579Y-15928878D01*
X8147627Y-15919354D01*
X8300008Y-16100306D02*
X8309532Y-16109830D01*
X8300008Y-16119354D01*
X8290484Y-16109830D01*
X8300008Y-16100306D01*
X8300008Y-16119354D01*
X8376198Y-15919354D02*
X8509532Y-15919354D01*
X8423818Y-16119354D01*
X8614294Y-16005068D02*
X8595246Y-15995544D01*
X8585722Y-15986020D01*
X8576199Y-15966973D01*
X8576199Y-15957449D01*
X8585722Y-15938401D01*
X8595246Y-15928878D01*
X8614294Y-15919354D01*
X8652389Y-15919354D01*
X8671437Y-15928878D01*
X8680960Y-15938401D01*
X8690484Y-15957449D01*
X8690484Y-15966973D01*
X8680960Y-15986020D01*
X8671437Y-15995544D01*
X8652389Y-16005068D01*
X8614294Y-16005068D01*
X8595246Y-16014592D01*
X8585722Y-16024116D01*
X8576199Y-16043163D01*
X8576199Y-16081258D01*
X8585722Y-16100306D01*
X8595246Y-16109830D01*
X8614294Y-16119354D01*
X8652389Y-16119354D01*
X8671437Y-16109830D01*
X8680960Y-16100306D01*
X8690484Y-16081258D01*
X8690484Y-16043163D01*
X8680960Y-16024116D01*
X8671437Y-16014592D01*
X8652389Y-16005068D01*
X8757151Y-15919354D02*
X8890484Y-15919354D01*
X8804770Y-16119354D01*
X8966675Y-16119354D02*
X8966675Y-15986020D01*
X8966675Y-16005068D02*
X8976199Y-15995544D01*
X8995246Y-15986020D01*
X9023818Y-15986020D01*
X9042865Y-15995544D01*
X9052389Y-16014592D01*
X9052389Y-16119354D01*
X9052389Y-16014592D02*
X9061913Y-15995544D01*
X9080960Y-15986020D01*
X9109532Y-15986020D01*
X9128579Y-15995544D01*
X9138103Y-16014592D01*
X9138103Y-16119354D01*
X9233341Y-16119354D02*
X9233341Y-15986020D01*
X9233341Y-16005068D02*
X9242865Y-15995544D01*
X9261913Y-15986020D01*
X9290484Y-15986020D01*
X9309532Y-15995544D01*
X9319056Y-16014592D01*
X9319056Y-16119354D01*
X9319056Y-16014592D02*
X9328579Y-15995544D01*
X9347627Y-15986020D01*
X9376199Y-15986020D01*
X9395246Y-15995544D01*
X9404770Y-16014592D01*
X9404770Y-16119354D01*
X9795246Y-15909830D02*
X9623818Y-16166973D01*
X10052389Y-15919354D02*
X10071437Y-15919354D01*
X10090484Y-15928878D01*
X10100008Y-15938401D01*
X10109532Y-15957449D01*
X10119056Y-15995544D01*
X10119056Y-16043163D01*
X10109532Y-16081258D01*
X10100008Y-16100306D01*
X10090484Y-16109830D01*
X10071437Y-16119354D01*
X10052389Y-16119354D01*
X10033341Y-16109830D01*
X10023818Y-16100306D01*
X10014294Y-16081258D01*
X10004770Y-16043163D01*
X10004770Y-15995544D01*
X10014294Y-15957449D01*
X10023818Y-15938401D01*
X10033341Y-15928878D01*
X10052389Y-15919354D01*
X10204770Y-16100306D02*
X10214294Y-16109830D01*
X10204770Y-16119354D01*
X10195246Y-16109830D01*
X10204770Y-16100306D01*
X10204770Y-16119354D01*
X10338103Y-15919354D02*
X10357151Y-15919354D01*
X10376199Y-15928878D01*
X10385722Y-15938401D01*
X10395246Y-15957449D01*
X10404770Y-15995544D01*
X10404770Y-16043163D01*
X10395246Y-16081258D01*
X10385722Y-16100306D01*
X10376199Y-16109830D01*
X10357151Y-16119354D01*
X10338103Y-16119354D01*
X10319056Y-16109830D01*
X10309532Y-16100306D01*
X10300008Y-16081258D01*
X10290484Y-16043163D01*
X10290484Y-15995544D01*
X10300008Y-15957449D01*
X10309532Y-15938401D01*
X10319056Y-15928878D01*
X10338103Y-15919354D01*
X10471437Y-15919354D02*
X10595246Y-15919354D01*
X10528579Y-15995544D01*
X10557151Y-15995544D01*
X10576199Y-16005068D01*
X10585722Y-16014592D01*
X10595246Y-16033639D01*
X10595246Y-16081258D01*
X10585722Y-16100306D01*
X10576199Y-16109830D01*
X10557151Y-16119354D01*
X10500008Y-16119354D01*
X10480960Y-16109830D01*
X10471437Y-16100306D01*
X10785722Y-16119354D02*
X10671437Y-16119354D01*
X10728579Y-16119354D02*
X10728579Y-15919354D01*
X10709532Y-15947925D01*
X10690484Y-15966973D01*
X10671437Y-15976497D01*
X10909532Y-15919354D02*
X10928579Y-15919354D01*
X10947627Y-15928878D01*
X10957151Y-15938401D01*
X10966675Y-15957449D01*
X10976199Y-15995544D01*
X10976199Y-16043163D01*
X10966675Y-16081258D01*
X10957151Y-16100306D01*
X10947627Y-16109830D01*
X10928579Y-16119354D01*
X10909532Y-16119354D01*
X10890484Y-16109830D01*
X10880960Y-16100306D01*
X10871437Y-16081258D01*
X10861913Y-16043163D01*
X10861913Y-15995544D01*
X10871437Y-15957449D01*
X10880960Y-15938401D01*
X10890484Y-15928878D01*
X10909532Y-15919354D01*
X11052389Y-15919354D02*
X11052389Y-15957449D01*
X11128579Y-15919354D02*
X11128579Y-15957449D01*
X11423817Y-16195544D02*
X11414294Y-16186020D01*
X11395246Y-16157449D01*
X11385722Y-16138401D01*
X11376198Y-16109830D01*
X11366675Y-16062211D01*
X11366675Y-16024116D01*
X11376198Y-15976497D01*
X11385722Y-15947925D01*
X11395246Y-15928878D01*
X11414294Y-15900306D01*
X11423817Y-15890782D01*
X11604770Y-16119354D02*
X11490484Y-16119354D01*
X11547627Y-16119354D02*
X11547627Y-15919354D01*
X11528579Y-15947925D01*
X11509532Y-15966973D01*
X11490484Y-15976497D01*
X11671437Y-15919354D02*
X11795246Y-15919354D01*
X11728579Y-15995544D01*
X11757151Y-15995544D01*
X11776198Y-16005068D01*
X11785722Y-16014592D01*
X11795246Y-16033639D01*
X11795246Y-16081258D01*
X11785722Y-16100306D01*
X11776198Y-16109830D01*
X11757151Y-16119354D01*
X11700008Y-16119354D01*
X11680960Y-16109830D01*
X11671437Y-16100306D01*
X12033341Y-16119354D02*
X12033341Y-15919354D01*
X12119056Y-16119354D02*
X12119056Y-16014592D01*
X12109532Y-15995544D01*
X12090484Y-15986020D01*
X12061913Y-15986020D01*
X12042865Y-15995544D01*
X12033341Y-16005068D01*
X12242865Y-16119354D02*
X12223817Y-16109830D01*
X12214294Y-16100306D01*
X12204770Y-16081258D01*
X12204770Y-16024116D01*
X12214294Y-16005068D01*
X12223817Y-15995544D01*
X12242865Y-15986020D01*
X12271437Y-15986020D01*
X12290484Y-15995544D01*
X12300008Y-16005068D01*
X12309532Y-16024116D01*
X12309532Y-16081258D01*
X12300008Y-16100306D01*
X12290484Y-16109830D01*
X12271437Y-16119354D01*
X12242865Y-16119354D01*
X12423817Y-16119354D02*
X12404770Y-16109830D01*
X12395246Y-16090782D01*
X12395246Y-15919354D01*
X12576198Y-16109830D02*
X12557151Y-16119354D01*
X12519056Y-16119354D01*
X12500008Y-16109830D01*
X12490484Y-16090782D01*
X12490484Y-16014592D01*
X12500008Y-15995544D01*
X12519056Y-15986020D01*
X12557151Y-15986020D01*
X12576198Y-15995544D01*
X12585722Y-16014592D01*
X12585722Y-16033639D01*
X12490484Y-16052687D01*
X12661913Y-16109830D02*
X12680960Y-16119354D01*
X12719056Y-16119354D01*
X12738103Y-16109830D01*
X12747627Y-16090782D01*
X12747627Y-16081258D01*
X12738103Y-16062211D01*
X12719056Y-16052687D01*
X12690484Y-16052687D01*
X12671437Y-16043163D01*
X12661913Y-16024116D01*
X12661913Y-16014592D01*
X12671437Y-15995544D01*
X12690484Y-15986020D01*
X12719056Y-15986020D01*
X12738103Y-15995544D01*
X12814294Y-16195544D02*
X12823817Y-16186020D01*
X12842865Y-16157449D01*
X12852389Y-16138401D01*
X12861913Y-16109830D01*
X12871437Y-16062211D01*
X12871437Y-16024116D01*
X12861913Y-15976497D01*
X12852389Y-15947925D01*
X12842865Y-15928878D01*
X12823817Y-15900306D01*
X12814294Y-15890782D01*
X13176198Y-16195544D02*
X13166675Y-16186020D01*
X13147627Y-16157449D01*
X13138103Y-16138401D01*
X13128579Y-16109830D01*
X13119056Y-16062211D01*
X13119056Y-16024116D01*
X13128579Y-15976497D01*
X13138103Y-15947925D01*
X13147627Y-15928878D01*
X13166675Y-15900306D01*
X13176198Y-15890782D01*
X13252389Y-15986020D02*
X13252389Y-16119354D01*
X13252389Y-16005068D02*
X13261913Y-15995544D01*
X13280960Y-15986020D01*
X13309532Y-15986020D01*
X13328579Y-15995544D01*
X13338103Y-16014592D01*
X13338103Y-16119354D01*
X13461913Y-16119354D02*
X13442865Y-16109830D01*
X13433341Y-16100306D01*
X13423817Y-16081258D01*
X13423817Y-16024116D01*
X13433341Y-16005068D01*
X13442865Y-15995544D01*
X13461913Y-15986020D01*
X13490484Y-15986020D01*
X13509532Y-15995544D01*
X13519056Y-16005068D01*
X13528579Y-16024116D01*
X13528579Y-16081258D01*
X13519056Y-16100306D01*
X13509532Y-16109830D01*
X13490484Y-16119354D01*
X13461913Y-16119354D01*
X13585722Y-15986020D02*
X13661913Y-15986020D01*
X13614294Y-15919354D02*
X13614294Y-16090782D01*
X13623817Y-16109830D01*
X13642865Y-16119354D01*
X13661913Y-16119354D01*
X13880960Y-15986020D02*
X13880960Y-16186020D01*
X13880960Y-15995544D02*
X13900008Y-15986020D01*
X13938103Y-15986020D01*
X13957151Y-15995544D01*
X13966675Y-16005068D01*
X13976198Y-16024116D01*
X13976198Y-16081258D01*
X13966675Y-16100306D01*
X13957151Y-16109830D01*
X13938103Y-16119354D01*
X13900008Y-16119354D01*
X13880960Y-16109830D01*
X14090484Y-16119354D02*
X14071437Y-16109830D01*
X14061913Y-16090782D01*
X14061913Y-15919354D01*
X14252389Y-16119354D02*
X14252389Y-16014592D01*
X14242865Y-15995544D01*
X14223817Y-15986020D01*
X14185722Y-15986020D01*
X14166675Y-15995544D01*
X14252389Y-16109830D02*
X14233341Y-16119354D01*
X14185722Y-16119354D01*
X14166675Y-16109830D01*
X14157151Y-16090782D01*
X14157151Y-16071735D01*
X14166675Y-16052687D01*
X14185722Y-16043163D01*
X14233341Y-16043163D01*
X14252389Y-16033639D01*
X14319056Y-15986020D02*
X14395246Y-15986020D01*
X14347627Y-15919354D02*
X14347627Y-16090782D01*
X14357151Y-16109830D01*
X14376198Y-16119354D01*
X14395246Y-16119354D01*
X14538103Y-16109830D02*
X14519056Y-16119354D01*
X14480960Y-16119354D01*
X14461913Y-16109830D01*
X14452389Y-16090782D01*
X14452389Y-16014592D01*
X14461913Y-15995544D01*
X14480960Y-15986020D01*
X14519056Y-15986020D01*
X14538103Y-15995544D01*
X14547627Y-16014592D01*
X14547627Y-16033639D01*
X14452389Y-16052687D01*
X14719056Y-16119354D02*
X14719056Y-15919354D01*
X14719056Y-16109830D02*
X14700008Y-16119354D01*
X14661913Y-16119354D01*
X14642865Y-16109830D01*
X14633341Y-16100306D01*
X14623817Y-16081258D01*
X14623817Y-16024116D01*
X14633341Y-16005068D01*
X14642865Y-15995544D01*
X14661913Y-15986020D01*
X14700008Y-15986020D01*
X14719056Y-15995544D01*
X14795246Y-16195544D02*
X14804770Y-16186020D01*
X14823817Y-16157449D01*
X14833341Y-16138401D01*
X14842865Y-16109830D01*
X14852389Y-16062211D01*
X14852389Y-16024116D01*
X14842865Y-15976497D01*
X14833341Y-15947925D01*
X14823817Y-15928878D01*
X14804770Y-15900306D01*
X14795246Y-15890782D01*
D14*
X7801913Y-16242878D02*
X7801913Y-16342878D01*
X7751913Y-16292878D02*
X7851913Y-16292878D01*
D11*
X8214294Y-16383354D02*
X8100008Y-16383354D01*
X8157151Y-16383354D02*
X8157151Y-16183354D01*
X8138103Y-16211925D01*
X8119056Y-16230973D01*
X8100008Y-16240497D01*
X8300008Y-16364306D02*
X8309532Y-16373830D01*
X8300008Y-16383354D01*
X8290484Y-16373830D01*
X8300008Y-16364306D01*
X8300008Y-16383354D01*
X8433341Y-16183354D02*
X8452389Y-16183354D01*
X8471437Y-16192878D01*
X8480960Y-16202401D01*
X8490484Y-16221449D01*
X8500008Y-16259544D01*
X8500008Y-16307163D01*
X8490484Y-16345258D01*
X8480960Y-16364306D01*
X8471437Y-16373830D01*
X8452389Y-16383354D01*
X8433341Y-16383354D01*
X8414294Y-16373830D01*
X8404770Y-16364306D01*
X8395246Y-16345258D01*
X8385722Y-16307163D01*
X8385722Y-16259544D01*
X8395246Y-16221449D01*
X8404770Y-16202401D01*
X8414294Y-16192878D01*
X8433341Y-16183354D01*
X8623818Y-16183354D02*
X8642865Y-16183354D01*
X8661913Y-16192878D01*
X8671437Y-16202401D01*
X8680960Y-16221449D01*
X8690484Y-16259544D01*
X8690484Y-16307163D01*
X8680960Y-16345258D01*
X8671437Y-16364306D01*
X8661913Y-16373830D01*
X8642865Y-16383354D01*
X8623818Y-16383354D01*
X8604770Y-16373830D01*
X8595246Y-16364306D01*
X8585722Y-16345258D01*
X8576199Y-16307163D01*
X8576199Y-16259544D01*
X8585722Y-16221449D01*
X8595246Y-16202401D01*
X8604770Y-16192878D01*
X8623818Y-16183354D01*
X8814294Y-16183354D02*
X8833341Y-16183354D01*
X8852389Y-16192878D01*
X8861913Y-16202401D01*
X8871437Y-16221449D01*
X8880960Y-16259544D01*
X8880960Y-16307163D01*
X8871437Y-16345258D01*
X8861913Y-16364306D01*
X8852389Y-16373830D01*
X8833341Y-16383354D01*
X8814294Y-16383354D01*
X8795246Y-16373830D01*
X8785722Y-16364306D01*
X8776199Y-16345258D01*
X8766675Y-16307163D01*
X8766675Y-16259544D01*
X8776199Y-16221449D01*
X8785722Y-16202401D01*
X8795246Y-16192878D01*
X8814294Y-16183354D01*
X8966675Y-16383354D02*
X8966675Y-16250020D01*
X8966675Y-16269068D02*
X8976199Y-16259544D01*
X8995246Y-16250020D01*
X9023818Y-16250020D01*
X9042865Y-16259544D01*
X9052389Y-16278592D01*
X9052389Y-16383354D01*
X9052389Y-16278592D02*
X9061913Y-16259544D01*
X9080960Y-16250020D01*
X9109532Y-16250020D01*
X9128579Y-16259544D01*
X9138103Y-16278592D01*
X9138103Y-16383354D01*
X9233341Y-16383354D02*
X9233341Y-16250020D01*
X9233341Y-16269068D02*
X9242865Y-16259544D01*
X9261913Y-16250020D01*
X9290484Y-16250020D01*
X9309532Y-16259544D01*
X9319056Y-16278592D01*
X9319056Y-16383354D01*
X9319056Y-16278592D02*
X9328579Y-16259544D01*
X9347627Y-16250020D01*
X9376199Y-16250020D01*
X9395246Y-16259544D01*
X9404770Y-16278592D01*
X9404770Y-16383354D01*
X9795246Y-16173830D02*
X9623818Y-16430973D01*
X10052389Y-16183354D02*
X10071437Y-16183354D01*
X10090484Y-16192878D01*
X10100008Y-16202401D01*
X10109532Y-16221449D01*
X10119056Y-16259544D01*
X10119056Y-16307163D01*
X10109532Y-16345258D01*
X10100008Y-16364306D01*
X10090484Y-16373830D01*
X10071437Y-16383354D01*
X10052389Y-16383354D01*
X10033341Y-16373830D01*
X10023818Y-16364306D01*
X10014294Y-16345258D01*
X10004770Y-16307163D01*
X10004770Y-16259544D01*
X10014294Y-16221449D01*
X10023818Y-16202401D01*
X10033341Y-16192878D01*
X10052389Y-16183354D01*
X10204770Y-16364306D02*
X10214294Y-16373830D01*
X10204770Y-16383354D01*
X10195246Y-16373830D01*
X10204770Y-16364306D01*
X10204770Y-16383354D01*
X10338103Y-16183354D02*
X10357151Y-16183354D01*
X10376199Y-16192878D01*
X10385722Y-16202401D01*
X10395246Y-16221449D01*
X10404770Y-16259544D01*
X10404770Y-16307163D01*
X10395246Y-16345258D01*
X10385722Y-16364306D01*
X10376199Y-16373830D01*
X10357151Y-16383354D01*
X10338103Y-16383354D01*
X10319056Y-16373830D01*
X10309532Y-16364306D01*
X10300008Y-16345258D01*
X10290484Y-16307163D01*
X10290484Y-16259544D01*
X10300008Y-16221449D01*
X10309532Y-16202401D01*
X10319056Y-16192878D01*
X10338103Y-16183354D01*
X10471437Y-16183354D02*
X10595246Y-16183354D01*
X10528579Y-16259544D01*
X10557151Y-16259544D01*
X10576199Y-16269068D01*
X10585722Y-16278592D01*
X10595246Y-16297639D01*
X10595246Y-16345258D01*
X10585722Y-16364306D01*
X10576199Y-16373830D01*
X10557151Y-16383354D01*
X10500008Y-16383354D01*
X10480960Y-16373830D01*
X10471437Y-16364306D01*
X10690484Y-16383354D02*
X10728579Y-16383354D01*
X10747627Y-16373830D01*
X10757151Y-16364306D01*
X10776199Y-16335735D01*
X10785722Y-16297639D01*
X10785722Y-16221449D01*
X10776199Y-16202401D01*
X10766675Y-16192878D01*
X10747627Y-16183354D01*
X10709532Y-16183354D01*
X10690484Y-16192878D01*
X10680960Y-16202401D01*
X10671437Y-16221449D01*
X10671437Y-16269068D01*
X10680960Y-16288116D01*
X10690484Y-16297639D01*
X10709532Y-16307163D01*
X10747627Y-16307163D01*
X10766675Y-16297639D01*
X10776199Y-16288116D01*
X10785722Y-16269068D01*
X10957151Y-16250020D02*
X10957151Y-16383354D01*
X10909532Y-16173830D02*
X10861913Y-16316687D01*
X10985722Y-16316687D01*
X11052389Y-16183354D02*
X11052389Y-16221449D01*
X11128579Y-16183354D02*
X11128579Y-16221449D01*
X11423817Y-16459544D02*
X11414294Y-16450020D01*
X11395246Y-16421449D01*
X11385722Y-16402401D01*
X11376198Y-16373830D01*
X11366675Y-16326211D01*
X11366675Y-16288116D01*
X11376198Y-16240497D01*
X11385722Y-16211925D01*
X11395246Y-16192878D01*
X11414294Y-16164306D01*
X11423817Y-16154782D01*
X11595246Y-16183354D02*
X11500008Y-16183354D01*
X11490484Y-16278592D01*
X11500008Y-16269068D01*
X11519056Y-16259544D01*
X11566675Y-16259544D01*
X11585722Y-16269068D01*
X11595246Y-16278592D01*
X11604770Y-16297639D01*
X11604770Y-16345258D01*
X11595246Y-16364306D01*
X11585722Y-16373830D01*
X11566675Y-16383354D01*
X11519056Y-16383354D01*
X11500008Y-16373830D01*
X11490484Y-16364306D01*
X11776198Y-16183354D02*
X11738103Y-16183354D01*
X11719056Y-16192878D01*
X11709532Y-16202401D01*
X11690484Y-16230973D01*
X11680960Y-16269068D01*
X11680960Y-16345258D01*
X11690484Y-16364306D01*
X11700008Y-16373830D01*
X11719056Y-16383354D01*
X11757151Y-16383354D01*
X11776198Y-16373830D01*
X11785722Y-16364306D01*
X11795246Y-16345258D01*
X11795246Y-16297639D01*
X11785722Y-16278592D01*
X11776198Y-16269068D01*
X11757151Y-16259544D01*
X11719056Y-16259544D01*
X11700008Y-16269068D01*
X11690484Y-16278592D01*
X11680960Y-16297639D01*
X12033341Y-16383354D02*
X12033341Y-16183354D01*
X12119056Y-16383354D02*
X12119056Y-16278592D01*
X12109532Y-16259544D01*
X12090484Y-16250020D01*
X12061913Y-16250020D01*
X12042865Y-16259544D01*
X12033341Y-16269068D01*
X12242865Y-16383354D02*
X12223817Y-16373830D01*
X12214294Y-16364306D01*
X12204770Y-16345258D01*
X12204770Y-16288116D01*
X12214294Y-16269068D01*
X12223817Y-16259544D01*
X12242865Y-16250020D01*
X12271437Y-16250020D01*
X12290484Y-16259544D01*
X12300008Y-16269068D01*
X12309532Y-16288116D01*
X12309532Y-16345258D01*
X12300008Y-16364306D01*
X12290484Y-16373830D01*
X12271437Y-16383354D01*
X12242865Y-16383354D01*
X12423817Y-16383354D02*
X12404770Y-16373830D01*
X12395246Y-16354782D01*
X12395246Y-16183354D01*
X12576198Y-16373830D02*
X12557151Y-16383354D01*
X12519056Y-16383354D01*
X12500008Y-16373830D01*
X12490484Y-16354782D01*
X12490484Y-16278592D01*
X12500008Y-16259544D01*
X12519056Y-16250020D01*
X12557151Y-16250020D01*
X12576198Y-16259544D01*
X12585722Y-16278592D01*
X12585722Y-16297639D01*
X12490484Y-16316687D01*
X12661913Y-16373830D02*
X12680960Y-16383354D01*
X12719056Y-16383354D01*
X12738103Y-16373830D01*
X12747627Y-16354782D01*
X12747627Y-16345258D01*
X12738103Y-16326211D01*
X12719056Y-16316687D01*
X12690484Y-16316687D01*
X12671437Y-16307163D01*
X12661913Y-16288116D01*
X12661913Y-16278592D01*
X12671437Y-16259544D01*
X12690484Y-16250020D01*
X12719056Y-16250020D01*
X12738103Y-16259544D01*
X12814294Y-16459544D02*
X12823817Y-16450020D01*
X12842865Y-16421449D01*
X12852389Y-16402401D01*
X12861913Y-16373830D01*
X12871437Y-16326211D01*
X12871437Y-16288116D01*
X12861913Y-16240497D01*
X12852389Y-16211925D01*
X12842865Y-16192878D01*
X12823817Y-16164306D01*
X12814294Y-16154782D01*
X13176198Y-16459544D02*
X13166675Y-16450020D01*
X13147627Y-16421449D01*
X13138103Y-16402401D01*
X13128579Y-16373830D01*
X13119056Y-16326211D01*
X13119056Y-16288116D01*
X13128579Y-16240497D01*
X13138103Y-16211925D01*
X13147627Y-16192878D01*
X13166675Y-16164306D01*
X13176198Y-16154782D01*
X13252389Y-16250020D02*
X13252389Y-16383354D01*
X13252389Y-16269068D02*
X13261913Y-16259544D01*
X13280960Y-16250020D01*
X13309532Y-16250020D01*
X13328579Y-16259544D01*
X13338103Y-16278592D01*
X13338103Y-16383354D01*
X13461913Y-16383354D02*
X13442865Y-16373830D01*
X13433341Y-16364306D01*
X13423817Y-16345258D01*
X13423817Y-16288116D01*
X13433341Y-16269068D01*
X13442865Y-16259544D01*
X13461913Y-16250020D01*
X13490484Y-16250020D01*
X13509532Y-16259544D01*
X13519056Y-16269068D01*
X13528579Y-16288116D01*
X13528579Y-16345258D01*
X13519056Y-16364306D01*
X13509532Y-16373830D01*
X13490484Y-16383354D01*
X13461913Y-16383354D01*
X13585722Y-16250020D02*
X13661913Y-16250020D01*
X13614294Y-16183354D02*
X13614294Y-16354782D01*
X13623817Y-16373830D01*
X13642865Y-16383354D01*
X13661913Y-16383354D01*
X13880960Y-16250020D02*
X13880960Y-16450020D01*
X13880960Y-16259544D02*
X13900008Y-16250020D01*
X13938103Y-16250020D01*
X13957151Y-16259544D01*
X13966675Y-16269068D01*
X13976198Y-16288116D01*
X13976198Y-16345258D01*
X13966675Y-16364306D01*
X13957151Y-16373830D01*
X13938103Y-16383354D01*
X13900008Y-16383354D01*
X13880960Y-16373830D01*
X14090484Y-16383354D02*
X14071437Y-16373830D01*
X14061913Y-16354782D01*
X14061913Y-16183354D01*
X14252389Y-16383354D02*
X14252389Y-16278592D01*
X14242865Y-16259544D01*
X14223817Y-16250020D01*
X14185722Y-16250020D01*
X14166675Y-16259544D01*
X14252389Y-16373830D02*
X14233341Y-16383354D01*
X14185722Y-16383354D01*
X14166675Y-16373830D01*
X14157151Y-16354782D01*
X14157151Y-16335735D01*
X14166675Y-16316687D01*
X14185722Y-16307163D01*
X14233341Y-16307163D01*
X14252389Y-16297639D01*
X14319056Y-16250020D02*
X14395246Y-16250020D01*
X14347627Y-16183354D02*
X14347627Y-16354782D01*
X14357151Y-16373830D01*
X14376198Y-16383354D01*
X14395246Y-16383354D01*
X14538103Y-16373830D02*
X14519056Y-16383354D01*
X14480960Y-16383354D01*
X14461913Y-16373830D01*
X14452389Y-16354782D01*
X14452389Y-16278592D01*
X14461913Y-16259544D01*
X14480960Y-16250020D01*
X14519056Y-16250020D01*
X14538103Y-16259544D01*
X14547627Y-16278592D01*
X14547627Y-16297639D01*
X14452389Y-16316687D01*
X14719056Y-16383354D02*
X14719056Y-16183354D01*
X14719056Y-16373830D02*
X14700008Y-16383354D01*
X14661913Y-16383354D01*
X14642865Y-16373830D01*
X14633341Y-16364306D01*
X14623817Y-16345258D01*
X14623817Y-16288116D01*
X14633341Y-16269068D01*
X14642865Y-16259544D01*
X14661913Y-16250020D01*
X14700008Y-16250020D01*
X14719056Y-16259544D01*
X14795246Y-16459544D02*
X14804770Y-16450020D01*
X14823817Y-16421449D01*
X14833341Y-16402401D01*
X14842865Y-16373830D01*
X14852389Y-16326211D01*
X14852389Y-16288116D01*
X14842865Y-16240497D01*
X14833341Y-16211925D01*
X14823817Y-16192878D01*
X14804770Y-16164306D01*
X14795246Y-16154782D01*
D15*
X7834340Y-16599304D02*
X7834340Y-16514451D01*
X7749486Y-16514451D01*
X7749486Y-16599304D01*
X7834340Y-16599304D01*
D11*
X8214294Y-16647354D02*
X8100008Y-16647354D01*
X8157151Y-16647354D02*
X8157151Y-16447354D01*
X8138103Y-16475925D01*
X8119056Y-16494973D01*
X8100008Y-16504497D01*
X8300008Y-16628306D02*
X8309532Y-16637830D01*
X8300008Y-16647354D01*
X8290484Y-16637830D01*
X8300008Y-16628306D01*
X8300008Y-16647354D01*
X8385722Y-16466401D02*
X8395246Y-16456878D01*
X8414294Y-16447354D01*
X8461913Y-16447354D01*
X8480960Y-16456878D01*
X8490484Y-16466401D01*
X8500008Y-16485449D01*
X8500008Y-16504497D01*
X8490484Y-16533068D01*
X8376198Y-16647354D01*
X8500008Y-16647354D01*
X8623818Y-16447354D02*
X8642865Y-16447354D01*
X8661913Y-16456878D01*
X8671437Y-16466401D01*
X8680960Y-16485449D01*
X8690484Y-16523544D01*
X8690484Y-16571163D01*
X8680960Y-16609258D01*
X8671437Y-16628306D01*
X8661913Y-16637830D01*
X8642865Y-16647354D01*
X8623818Y-16647354D01*
X8604770Y-16637830D01*
X8595246Y-16628306D01*
X8585722Y-16609258D01*
X8576199Y-16571163D01*
X8576199Y-16523544D01*
X8585722Y-16485449D01*
X8595246Y-16466401D01*
X8604770Y-16456878D01*
X8623818Y-16447354D01*
X8814294Y-16447354D02*
X8833341Y-16447354D01*
X8852389Y-16456878D01*
X8861913Y-16466401D01*
X8871437Y-16485449D01*
X8880960Y-16523544D01*
X8880960Y-16571163D01*
X8871437Y-16609258D01*
X8861913Y-16628306D01*
X8852389Y-16637830D01*
X8833341Y-16647354D01*
X8814294Y-16647354D01*
X8795246Y-16637830D01*
X8785722Y-16628306D01*
X8776199Y-16609258D01*
X8766675Y-16571163D01*
X8766675Y-16523544D01*
X8776199Y-16485449D01*
X8785722Y-16466401D01*
X8795246Y-16456878D01*
X8814294Y-16447354D01*
X8966675Y-16647354D02*
X8966675Y-16514020D01*
X8966675Y-16533068D02*
X8976199Y-16523544D01*
X8995246Y-16514020D01*
X9023818Y-16514020D01*
X9042865Y-16523544D01*
X9052389Y-16542592D01*
X9052389Y-16647354D01*
X9052389Y-16542592D02*
X9061913Y-16523544D01*
X9080960Y-16514020D01*
X9109532Y-16514020D01*
X9128579Y-16523544D01*
X9138103Y-16542592D01*
X9138103Y-16647354D01*
X9233341Y-16647354D02*
X9233341Y-16514020D01*
X9233341Y-16533068D02*
X9242865Y-16523544D01*
X9261913Y-16514020D01*
X9290484Y-16514020D01*
X9309532Y-16523544D01*
X9319056Y-16542592D01*
X9319056Y-16647354D01*
X9319056Y-16542592D02*
X9328579Y-16523544D01*
X9347627Y-16514020D01*
X9376199Y-16514020D01*
X9395246Y-16523544D01*
X9404770Y-16542592D01*
X9404770Y-16647354D01*
X9795246Y-16437830D02*
X9623818Y-16694973D01*
X10052389Y-16447354D02*
X10071437Y-16447354D01*
X10090484Y-16456878D01*
X10100008Y-16466401D01*
X10109532Y-16485449D01*
X10119056Y-16523544D01*
X10119056Y-16571163D01*
X10109532Y-16609258D01*
X10100008Y-16628306D01*
X10090484Y-16637830D01*
X10071437Y-16647354D01*
X10052389Y-16647354D01*
X10033341Y-16637830D01*
X10023818Y-16628306D01*
X10014294Y-16609258D01*
X10004770Y-16571163D01*
X10004770Y-16523544D01*
X10014294Y-16485449D01*
X10023818Y-16466401D01*
X10033341Y-16456878D01*
X10052389Y-16447354D01*
X10204770Y-16628306D02*
X10214294Y-16637830D01*
X10204770Y-16647354D01*
X10195246Y-16637830D01*
X10204770Y-16628306D01*
X10204770Y-16647354D01*
X10338103Y-16447354D02*
X10357151Y-16447354D01*
X10376199Y-16456878D01*
X10385722Y-16466401D01*
X10395246Y-16485449D01*
X10404770Y-16523544D01*
X10404770Y-16571163D01*
X10395246Y-16609258D01*
X10385722Y-16628306D01*
X10376199Y-16637830D01*
X10357151Y-16647354D01*
X10338103Y-16647354D01*
X10319056Y-16637830D01*
X10309532Y-16628306D01*
X10300008Y-16609258D01*
X10290484Y-16571163D01*
X10290484Y-16523544D01*
X10300008Y-16485449D01*
X10309532Y-16466401D01*
X10319056Y-16456878D01*
X10338103Y-16447354D01*
X10576199Y-16514020D02*
X10576199Y-16647354D01*
X10528579Y-16437830D02*
X10480960Y-16580687D01*
X10604770Y-16580687D01*
X10661913Y-16447354D02*
X10795246Y-16447354D01*
X10709532Y-16647354D01*
X10861913Y-16466401D02*
X10871437Y-16456878D01*
X10890484Y-16447354D01*
X10938103Y-16447354D01*
X10957151Y-16456878D01*
X10966675Y-16466401D01*
X10976199Y-16485449D01*
X10976199Y-16504497D01*
X10966675Y-16533068D01*
X10852389Y-16647354D01*
X10976199Y-16647354D01*
X11052389Y-16447354D02*
X11052389Y-16485449D01*
X11128579Y-16447354D02*
X11128579Y-16485449D01*
X11423817Y-16723544D02*
X11414294Y-16714020D01*
X11395246Y-16685449D01*
X11385722Y-16666401D01*
X11376198Y-16637830D01*
X11366675Y-16590211D01*
X11366675Y-16552116D01*
X11376198Y-16504497D01*
X11385722Y-16475925D01*
X11395246Y-16456878D01*
X11414294Y-16428306D01*
X11423817Y-16418782D01*
X11585722Y-16514020D02*
X11585722Y-16647354D01*
X11538103Y-16437830D02*
X11490484Y-16580687D01*
X11614294Y-16580687D01*
X11842865Y-16647354D02*
X11842865Y-16447354D01*
X11928579Y-16647354D02*
X11928579Y-16542592D01*
X11919056Y-16523544D01*
X11900008Y-16514020D01*
X11871437Y-16514020D01*
X11852389Y-16523544D01*
X11842865Y-16533068D01*
X12052389Y-16647354D02*
X12033341Y-16637830D01*
X12023817Y-16628306D01*
X12014294Y-16609258D01*
X12014294Y-16552116D01*
X12023817Y-16533068D01*
X12033341Y-16523544D01*
X12052389Y-16514020D01*
X12080960Y-16514020D01*
X12100008Y-16523544D01*
X12109532Y-16533068D01*
X12119056Y-16552116D01*
X12119056Y-16609258D01*
X12109532Y-16628306D01*
X12100008Y-16637830D01*
X12080960Y-16647354D01*
X12052389Y-16647354D01*
X12233341Y-16647354D02*
X12214294Y-16637830D01*
X12204770Y-16618782D01*
X12204770Y-16447354D01*
X12385722Y-16637830D02*
X12366675Y-16647354D01*
X12328579Y-16647354D01*
X12309532Y-16637830D01*
X12300008Y-16618782D01*
X12300008Y-16542592D01*
X12309532Y-16523544D01*
X12328579Y-16514020D01*
X12366675Y-16514020D01*
X12385722Y-16523544D01*
X12395246Y-16542592D01*
X12395246Y-16561639D01*
X12300008Y-16580687D01*
X12471437Y-16637830D02*
X12490484Y-16647354D01*
X12528579Y-16647354D01*
X12547627Y-16637830D01*
X12557151Y-16618782D01*
X12557151Y-16609258D01*
X12547627Y-16590211D01*
X12528579Y-16580687D01*
X12500008Y-16580687D01*
X12480960Y-16571163D01*
X12471437Y-16552116D01*
X12471437Y-16542592D01*
X12480960Y-16523544D01*
X12500008Y-16514020D01*
X12528579Y-16514020D01*
X12547627Y-16523544D01*
X12623817Y-16723544D02*
X12633341Y-16714020D01*
X12652389Y-16685449D01*
X12661913Y-16666401D01*
X12671437Y-16637830D01*
X12680960Y-16590211D01*
X12680960Y-16552116D01*
X12671437Y-16504497D01*
X12661913Y-16475925D01*
X12652389Y-16456878D01*
X12633341Y-16428306D01*
X12623817Y-16418782D01*
X12985722Y-16723544D02*
X12976198Y-16714020D01*
X12957151Y-16685449D01*
X12947627Y-16666401D01*
X12938103Y-16637830D01*
X12928579Y-16590211D01*
X12928579Y-16552116D01*
X12938103Y-16504497D01*
X12947627Y-16475925D01*
X12957151Y-16456878D01*
X12976198Y-16428306D01*
X12985722Y-16418782D01*
X13061913Y-16514020D02*
X13061913Y-16647354D01*
X13061913Y-16533068D02*
X13071437Y-16523544D01*
X13090484Y-16514020D01*
X13119056Y-16514020D01*
X13138103Y-16523544D01*
X13147627Y-16542592D01*
X13147627Y-16647354D01*
X13271437Y-16647354D02*
X13252389Y-16637830D01*
X13242865Y-16628306D01*
X13233341Y-16609258D01*
X13233341Y-16552116D01*
X13242865Y-16533068D01*
X13252389Y-16523544D01*
X13271437Y-16514020D01*
X13300008Y-16514020D01*
X13319056Y-16523544D01*
X13328579Y-16533068D01*
X13338103Y-16552116D01*
X13338103Y-16609258D01*
X13328579Y-16628306D01*
X13319056Y-16637830D01*
X13300008Y-16647354D01*
X13271437Y-16647354D01*
X13395246Y-16514020D02*
X13471437Y-16514020D01*
X13423817Y-16447354D02*
X13423817Y-16618782D01*
X13433341Y-16637830D01*
X13452389Y-16647354D01*
X13471437Y-16647354D01*
X13690484Y-16514020D02*
X13690484Y-16714020D01*
X13690484Y-16523544D02*
X13709532Y-16514020D01*
X13747627Y-16514020D01*
X13766675Y-16523544D01*
X13776198Y-16533068D01*
X13785722Y-16552116D01*
X13785722Y-16609258D01*
X13776198Y-16628306D01*
X13766675Y-16637830D01*
X13747627Y-16647354D01*
X13709532Y-16647354D01*
X13690484Y-16637830D01*
X13900008Y-16647354D02*
X13880960Y-16637830D01*
X13871437Y-16618782D01*
X13871437Y-16447354D01*
X14061913Y-16647354D02*
X14061913Y-16542592D01*
X14052389Y-16523544D01*
X14033341Y-16514020D01*
X13995246Y-16514020D01*
X13976198Y-16523544D01*
X14061913Y-16637830D02*
X14042865Y-16647354D01*
X13995246Y-16647354D01*
X13976198Y-16637830D01*
X13966675Y-16618782D01*
X13966675Y-16599735D01*
X13976198Y-16580687D01*
X13995246Y-16571163D01*
X14042865Y-16571163D01*
X14061913Y-16561639D01*
X14128579Y-16514020D02*
X14204770Y-16514020D01*
X14157151Y-16447354D02*
X14157151Y-16618782D01*
X14166675Y-16637830D01*
X14185722Y-16647354D01*
X14204770Y-16647354D01*
X14347627Y-16637830D02*
X14328579Y-16647354D01*
X14290484Y-16647354D01*
X14271437Y-16637830D01*
X14261913Y-16618782D01*
X14261913Y-16542592D01*
X14271437Y-16523544D01*
X14290484Y-16514020D01*
X14328579Y-16514020D01*
X14347627Y-16523544D01*
X14357151Y-16542592D01*
X14357151Y-16561639D01*
X14261913Y-16580687D01*
X14528579Y-16647354D02*
X14528579Y-16447354D01*
X14528579Y-16637830D02*
X14509532Y-16647354D01*
X14471437Y-16647354D01*
X14452389Y-16637830D01*
X14442865Y-16628306D01*
X14433341Y-16609258D01*
X14433341Y-16552116D01*
X14442865Y-16533068D01*
X14452389Y-16523544D01*
X14471437Y-16514020D01*
X14509532Y-16514020D01*
X14528579Y-16523544D01*
X14604770Y-16723544D02*
X14614294Y-16714020D01*
X14633341Y-16685449D01*
X14642865Y-16666401D01*
X14652389Y-16637830D01*
X14661913Y-16590211D01*
X14661913Y-16552116D01*
X14652389Y-16504497D01*
X14642865Y-16475925D01*
X14633341Y-16456878D01*
X14614294Y-16428306D01*
X14604770Y-16418782D01*
D16*
X7761913Y-16910878D02*
X7851913Y-16820878D01*
X7761913Y-16730878D01*
X7671913Y-16820878D01*
X7761913Y-16910878D01*
D11*
X8214294Y-16911354D02*
X8100008Y-16911354D01*
X8157151Y-16911354D02*
X8157151Y-16711354D01*
X8138103Y-16739925D01*
X8119056Y-16758973D01*
X8100008Y-16768497D01*
X8300008Y-16892306D02*
X8309532Y-16901830D01*
X8300008Y-16911354D01*
X8290484Y-16901830D01*
X8300008Y-16892306D01*
X8300008Y-16911354D01*
X8423818Y-16797068D02*
X8404770Y-16787544D01*
X8395246Y-16778020D01*
X8385722Y-16758973D01*
X8385722Y-16749449D01*
X8395246Y-16730401D01*
X8404770Y-16720878D01*
X8423818Y-16711354D01*
X8461913Y-16711354D01*
X8480960Y-16720878D01*
X8490484Y-16730401D01*
X8500008Y-16749449D01*
X8500008Y-16758973D01*
X8490484Y-16778020D01*
X8480960Y-16787544D01*
X8461913Y-16797068D01*
X8423818Y-16797068D01*
X8404770Y-16806592D01*
X8395246Y-16816116D01*
X8385722Y-16835163D01*
X8385722Y-16873259D01*
X8395246Y-16892306D01*
X8404770Y-16901830D01*
X8423818Y-16911354D01*
X8461913Y-16911354D01*
X8480960Y-16901830D01*
X8490484Y-16892306D01*
X8500008Y-16873259D01*
X8500008Y-16835163D01*
X8490484Y-16816116D01*
X8480960Y-16806592D01*
X8461913Y-16797068D01*
X8623818Y-16711354D02*
X8642865Y-16711354D01*
X8661913Y-16720878D01*
X8671437Y-16730401D01*
X8680960Y-16749449D01*
X8690484Y-16787544D01*
X8690484Y-16835163D01*
X8680960Y-16873259D01*
X8671437Y-16892306D01*
X8661913Y-16901830D01*
X8642865Y-16911354D01*
X8623818Y-16911354D01*
X8604770Y-16901830D01*
X8595246Y-16892306D01*
X8585722Y-16873259D01*
X8576199Y-16835163D01*
X8576199Y-16787544D01*
X8585722Y-16749449D01*
X8595246Y-16730401D01*
X8604770Y-16720878D01*
X8623818Y-16711354D01*
X8814294Y-16711354D02*
X8833341Y-16711354D01*
X8852389Y-16720878D01*
X8861913Y-16730401D01*
X8871437Y-16749449D01*
X8880960Y-16787544D01*
X8880960Y-16835163D01*
X8871437Y-16873259D01*
X8861913Y-16892306D01*
X8852389Y-16901830D01*
X8833341Y-16911354D01*
X8814294Y-16911354D01*
X8795246Y-16901830D01*
X8785722Y-16892306D01*
X8776199Y-16873259D01*
X8766675Y-16835163D01*
X8766675Y-16787544D01*
X8776199Y-16749449D01*
X8785722Y-16730401D01*
X8795246Y-16720878D01*
X8814294Y-16711354D01*
X8966675Y-16911354D02*
X8966675Y-16778020D01*
X8966675Y-16797068D02*
X8976199Y-16787544D01*
X8995246Y-16778020D01*
X9023818Y-16778020D01*
X9042865Y-16787544D01*
X9052389Y-16806592D01*
X9052389Y-16911354D01*
X9052389Y-16806592D02*
X9061913Y-16787544D01*
X9080960Y-16778020D01*
X9109532Y-16778020D01*
X9128579Y-16787544D01*
X9138103Y-16806592D01*
X9138103Y-16911354D01*
X9233341Y-16911354D02*
X9233341Y-16778020D01*
X9233341Y-16797068D02*
X9242865Y-16787544D01*
X9261913Y-16778020D01*
X9290484Y-16778020D01*
X9309532Y-16787544D01*
X9319056Y-16806592D01*
X9319056Y-16911354D01*
X9319056Y-16806592D02*
X9328579Y-16787544D01*
X9347627Y-16778020D01*
X9376199Y-16778020D01*
X9395246Y-16787544D01*
X9404770Y-16806592D01*
X9404770Y-16911354D01*
X9795246Y-16701830D02*
X9623818Y-16958973D01*
X10052389Y-16711354D02*
X10071437Y-16711354D01*
X10090484Y-16720878D01*
X10100008Y-16730401D01*
X10109532Y-16749449D01*
X10119056Y-16787544D01*
X10119056Y-16835163D01*
X10109532Y-16873259D01*
X10100008Y-16892306D01*
X10090484Y-16901830D01*
X10071437Y-16911354D01*
X10052389Y-16911354D01*
X10033341Y-16901830D01*
X10023818Y-16892306D01*
X10014294Y-16873259D01*
X10004770Y-16835163D01*
X10004770Y-16787544D01*
X10014294Y-16749449D01*
X10023818Y-16730401D01*
X10033341Y-16720878D01*
X10052389Y-16711354D01*
X10204770Y-16892306D02*
X10214294Y-16901830D01*
X10204770Y-16911354D01*
X10195246Y-16901830D01*
X10204770Y-16892306D01*
X10204770Y-16911354D01*
X10338103Y-16711354D02*
X10357151Y-16711354D01*
X10376199Y-16720878D01*
X10385722Y-16730401D01*
X10395246Y-16749449D01*
X10404770Y-16787544D01*
X10404770Y-16835163D01*
X10395246Y-16873259D01*
X10385722Y-16892306D01*
X10376199Y-16901830D01*
X10357151Y-16911354D01*
X10338103Y-16911354D01*
X10319056Y-16901830D01*
X10309532Y-16892306D01*
X10300008Y-16873259D01*
X10290484Y-16835163D01*
X10290484Y-16787544D01*
X10300008Y-16749449D01*
X10309532Y-16730401D01*
X10319056Y-16720878D01*
X10338103Y-16711354D01*
X10471437Y-16711354D02*
X10604770Y-16711354D01*
X10519056Y-16911354D01*
X10719056Y-16711354D02*
X10738103Y-16711354D01*
X10757151Y-16720878D01*
X10766675Y-16730401D01*
X10776199Y-16749449D01*
X10785722Y-16787544D01*
X10785722Y-16835163D01*
X10776199Y-16873259D01*
X10766675Y-16892306D01*
X10757151Y-16901830D01*
X10738103Y-16911354D01*
X10719056Y-16911354D01*
X10700008Y-16901830D01*
X10690484Y-16892306D01*
X10680960Y-16873259D01*
X10671437Y-16835163D01*
X10671437Y-16787544D01*
X10680960Y-16749449D01*
X10690484Y-16730401D01*
X10700008Y-16720878D01*
X10719056Y-16711354D01*
X10880960Y-16911354D02*
X10919056Y-16911354D01*
X10938103Y-16901830D01*
X10947627Y-16892306D01*
X10966675Y-16863735D01*
X10976199Y-16825640D01*
X10976199Y-16749449D01*
X10966675Y-16730401D01*
X10957151Y-16720878D01*
X10938103Y-16711354D01*
X10900008Y-16711354D01*
X10880960Y-16720878D01*
X10871437Y-16730401D01*
X10861913Y-16749449D01*
X10861913Y-16797068D01*
X10871437Y-16816116D01*
X10880960Y-16825640D01*
X10900008Y-16835163D01*
X10938103Y-16835163D01*
X10957151Y-16825640D01*
X10966675Y-16816116D01*
X10976199Y-16797068D01*
X11052389Y-16711354D02*
X11052389Y-16749449D01*
X11128579Y-16711354D02*
X11128579Y-16749449D01*
X11423817Y-16987544D02*
X11414294Y-16978020D01*
X11395246Y-16949449D01*
X11385722Y-16930401D01*
X11376198Y-16901830D01*
X11366675Y-16854211D01*
X11366675Y-16816116D01*
X11376198Y-16768497D01*
X11385722Y-16739925D01*
X11395246Y-16720878D01*
X11414294Y-16692306D01*
X11423817Y-16682782D01*
X11595246Y-16711354D02*
X11500008Y-16711354D01*
X11490484Y-16806592D01*
X11500008Y-16797068D01*
X11519056Y-16787544D01*
X11566675Y-16787544D01*
X11585722Y-16797068D01*
X11595246Y-16806592D01*
X11604770Y-16825640D01*
X11604770Y-16873259D01*
X11595246Y-16892306D01*
X11585722Y-16901830D01*
X11566675Y-16911354D01*
X11519056Y-16911354D01*
X11500008Y-16901830D01*
X11490484Y-16892306D01*
X11776198Y-16711354D02*
X11738103Y-16711354D01*
X11719056Y-16720878D01*
X11709532Y-16730401D01*
X11690484Y-16758973D01*
X11680960Y-16797068D01*
X11680960Y-16873259D01*
X11690484Y-16892306D01*
X11700008Y-16901830D01*
X11719056Y-16911354D01*
X11757151Y-16911354D01*
X11776198Y-16901830D01*
X11785722Y-16892306D01*
X11795246Y-16873259D01*
X11795246Y-16825640D01*
X11785722Y-16806592D01*
X11776198Y-16797068D01*
X11757151Y-16787544D01*
X11719056Y-16787544D01*
X11700008Y-16797068D01*
X11690484Y-16806592D01*
X11680960Y-16825640D01*
X12033341Y-16911354D02*
X12033341Y-16711354D01*
X12119056Y-16911354D02*
X12119056Y-16806592D01*
X12109532Y-16787544D01*
X12090484Y-16778020D01*
X12061913Y-16778020D01*
X12042865Y-16787544D01*
X12033341Y-16797068D01*
X12242865Y-16911354D02*
X12223817Y-16901830D01*
X12214294Y-16892306D01*
X12204770Y-16873259D01*
X12204770Y-16816116D01*
X12214294Y-16797068D01*
X12223817Y-16787544D01*
X12242865Y-16778020D01*
X12271437Y-16778020D01*
X12290484Y-16787544D01*
X12300008Y-16797068D01*
X12309532Y-16816116D01*
X12309532Y-16873259D01*
X12300008Y-16892306D01*
X12290484Y-16901830D01*
X12271437Y-16911354D01*
X12242865Y-16911354D01*
X12423817Y-16911354D02*
X12404770Y-16901830D01*
X12395246Y-16882782D01*
X12395246Y-16711354D01*
X12576198Y-16901830D02*
X12557151Y-16911354D01*
X12519056Y-16911354D01*
X12500008Y-16901830D01*
X12490484Y-16882782D01*
X12490484Y-16806592D01*
X12500008Y-16787544D01*
X12519056Y-16778020D01*
X12557151Y-16778020D01*
X12576198Y-16787544D01*
X12585722Y-16806592D01*
X12585722Y-16825640D01*
X12490484Y-16844687D01*
X12661913Y-16901830D02*
X12680960Y-16911354D01*
X12719056Y-16911354D01*
X12738103Y-16901830D01*
X12747627Y-16882782D01*
X12747627Y-16873259D01*
X12738103Y-16854211D01*
X12719056Y-16844687D01*
X12690484Y-16844687D01*
X12671437Y-16835163D01*
X12661913Y-16816116D01*
X12661913Y-16806592D01*
X12671437Y-16787544D01*
X12690484Y-16778020D01*
X12719056Y-16778020D01*
X12738103Y-16787544D01*
X12814294Y-16987544D02*
X12823817Y-16978020D01*
X12842865Y-16949449D01*
X12852389Y-16930401D01*
X12861913Y-16901830D01*
X12871437Y-16854211D01*
X12871437Y-16816116D01*
X12861913Y-16768497D01*
X12852389Y-16739925D01*
X12842865Y-16720878D01*
X12823817Y-16692306D01*
X12814294Y-16682782D01*
X13176198Y-16987544D02*
X13166675Y-16978020D01*
X13147627Y-16949449D01*
X13138103Y-16930401D01*
X13128579Y-16901830D01*
X13119056Y-16854211D01*
X13119056Y-16816116D01*
X13128579Y-16768497D01*
X13138103Y-16739925D01*
X13147627Y-16720878D01*
X13166675Y-16692306D01*
X13176198Y-16682782D01*
X13252389Y-16778020D02*
X13252389Y-16911354D01*
X13252389Y-16797068D02*
X13261913Y-16787544D01*
X13280960Y-16778020D01*
X13309532Y-16778020D01*
X13328579Y-16787544D01*
X13338103Y-16806592D01*
X13338103Y-16911354D01*
X13461913Y-16911354D02*
X13442865Y-16901830D01*
X13433341Y-16892306D01*
X13423817Y-16873259D01*
X13423817Y-16816116D01*
X13433341Y-16797068D01*
X13442865Y-16787544D01*
X13461913Y-16778020D01*
X13490484Y-16778020D01*
X13509532Y-16787544D01*
X13519056Y-16797068D01*
X13528579Y-16816116D01*
X13528579Y-16873259D01*
X13519056Y-16892306D01*
X13509532Y-16901830D01*
X13490484Y-16911354D01*
X13461913Y-16911354D01*
X13585722Y-16778020D02*
X13661913Y-16778020D01*
X13614294Y-16711354D02*
X13614294Y-16882782D01*
X13623817Y-16901830D01*
X13642865Y-16911354D01*
X13661913Y-16911354D01*
X13880960Y-16778020D02*
X13880960Y-16978020D01*
X13880960Y-16787544D02*
X13900008Y-16778020D01*
X13938103Y-16778020D01*
X13957151Y-16787544D01*
X13966675Y-16797068D01*
X13976198Y-16816116D01*
X13976198Y-16873259D01*
X13966675Y-16892306D01*
X13957151Y-16901830D01*
X13938103Y-16911354D01*
X13900008Y-16911354D01*
X13880960Y-16901830D01*
X14090484Y-16911354D02*
X14071437Y-16901830D01*
X14061913Y-16882782D01*
X14061913Y-16711354D01*
X14252389Y-16911354D02*
X14252389Y-16806592D01*
X14242865Y-16787544D01*
X14223817Y-16778020D01*
X14185722Y-16778020D01*
X14166675Y-16787544D01*
X14252389Y-16901830D02*
X14233341Y-16911354D01*
X14185722Y-16911354D01*
X14166675Y-16901830D01*
X14157151Y-16882782D01*
X14157151Y-16863735D01*
X14166675Y-16844687D01*
X14185722Y-16835163D01*
X14233341Y-16835163D01*
X14252389Y-16825640D01*
X14319056Y-16778020D02*
X14395246Y-16778020D01*
X14347627Y-16711354D02*
X14347627Y-16882782D01*
X14357151Y-16901830D01*
X14376198Y-16911354D01*
X14395246Y-16911354D01*
X14538103Y-16901830D02*
X14519056Y-16911354D01*
X14480960Y-16911354D01*
X14461913Y-16901830D01*
X14452389Y-16882782D01*
X14452389Y-16806592D01*
X14461913Y-16787544D01*
X14480960Y-16778020D01*
X14519056Y-16778020D01*
X14538103Y-16787544D01*
X14547627Y-16806592D01*
X14547627Y-16825640D01*
X14452389Y-16844687D01*
X14719056Y-16911354D02*
X14719056Y-16711354D01*
X14719056Y-16901830D02*
X14700008Y-16911354D01*
X14661913Y-16911354D01*
X14642865Y-16901830D01*
X14633341Y-16892306D01*
X14623817Y-16873259D01*
X14623817Y-16816116D01*
X14633341Y-16797068D01*
X14642865Y-16787544D01*
X14661913Y-16778020D01*
X14700008Y-16778020D01*
X14719056Y-16787544D01*
X14795246Y-16987544D02*
X14804770Y-16978020D01*
X14823817Y-16949449D01*
X14833341Y-16930401D01*
X14842865Y-16901830D01*
X14852389Y-16854211D01*
X14852389Y-16816116D01*
X14842865Y-16768497D01*
X14833341Y-16739925D01*
X14823817Y-16720878D01*
X14804770Y-16692306D01*
X14795246Y-16682782D01*
X7651913Y-17020878D02*
X7851913Y-17220878D01*
X7851913Y-17020878D02*
X7651913Y-17220878D01*
X7851913Y-17120878D02*
G75*
G03*
X7851913Y-17120878I-100000J0D01*
G01*
X8090484Y-17011354D02*
X8214294Y-17011354D01*
X8147627Y-17087544D01*
X8176198Y-17087544D01*
X8195246Y-17097068D01*
X8204770Y-17106592D01*
X8214294Y-17125640D01*
X8214294Y-17173259D01*
X8204770Y-17192306D01*
X8195246Y-17201830D01*
X8176198Y-17211354D01*
X8119056Y-17211354D01*
X8100008Y-17201830D01*
X8090484Y-17192306D01*
X8300008Y-17192306D02*
X8309532Y-17201830D01*
X8300008Y-17211354D01*
X8290484Y-17201830D01*
X8300008Y-17192306D01*
X8300008Y-17211354D01*
X8433341Y-17011354D02*
X8452389Y-17011354D01*
X8471437Y-17020878D01*
X8480960Y-17030401D01*
X8490484Y-17049449D01*
X8500008Y-17087544D01*
X8500008Y-17135163D01*
X8490484Y-17173259D01*
X8480960Y-17192306D01*
X8471437Y-17201830D01*
X8452389Y-17211354D01*
X8433341Y-17211354D01*
X8414294Y-17201830D01*
X8404770Y-17192306D01*
X8395246Y-17173259D01*
X8385722Y-17135163D01*
X8385722Y-17087544D01*
X8395246Y-17049449D01*
X8404770Y-17030401D01*
X8414294Y-17020878D01*
X8433341Y-17011354D01*
X8623818Y-17011354D02*
X8642865Y-17011354D01*
X8661913Y-17020878D01*
X8671437Y-17030401D01*
X8680960Y-17049449D01*
X8690484Y-17087544D01*
X8690484Y-17135163D01*
X8680960Y-17173259D01*
X8671437Y-17192306D01*
X8661913Y-17201830D01*
X8642865Y-17211354D01*
X8623818Y-17211354D01*
X8604770Y-17201830D01*
X8595246Y-17192306D01*
X8585722Y-17173259D01*
X8576199Y-17135163D01*
X8576199Y-17087544D01*
X8585722Y-17049449D01*
X8595246Y-17030401D01*
X8604770Y-17020878D01*
X8623818Y-17011354D01*
X8814294Y-17011354D02*
X8833341Y-17011354D01*
X8852389Y-17020878D01*
X8861913Y-17030401D01*
X8871437Y-17049449D01*
X8880960Y-17087544D01*
X8880960Y-17135163D01*
X8871437Y-17173259D01*
X8861913Y-17192306D01*
X8852389Y-17201830D01*
X8833341Y-17211354D01*
X8814294Y-17211354D01*
X8795246Y-17201830D01*
X8785722Y-17192306D01*
X8776199Y-17173259D01*
X8766675Y-17135163D01*
X8766675Y-17087544D01*
X8776199Y-17049449D01*
X8785722Y-17030401D01*
X8795246Y-17020878D01*
X8814294Y-17011354D01*
X8966675Y-17211354D02*
X8966675Y-17078020D01*
X8966675Y-17097068D02*
X8976199Y-17087544D01*
X8995246Y-17078020D01*
X9023818Y-17078020D01*
X9042865Y-17087544D01*
X9052389Y-17106592D01*
X9052389Y-17211354D01*
X9052389Y-17106592D02*
X9061913Y-17087544D01*
X9080960Y-17078020D01*
X9109532Y-17078020D01*
X9128579Y-17087544D01*
X9138103Y-17106592D01*
X9138103Y-17211354D01*
X9233341Y-17211354D02*
X9233341Y-17078020D01*
X9233341Y-17097068D02*
X9242865Y-17087544D01*
X9261913Y-17078020D01*
X9290484Y-17078020D01*
X9309532Y-17087544D01*
X9319056Y-17106592D01*
X9319056Y-17211354D01*
X9319056Y-17106592D02*
X9328579Y-17087544D01*
X9347627Y-17078020D01*
X9376199Y-17078020D01*
X9395246Y-17087544D01*
X9404770Y-17106592D01*
X9404770Y-17211354D01*
X9795246Y-17001830D02*
X9623818Y-17258973D01*
X10052389Y-17011354D02*
X10071437Y-17011354D01*
X10090484Y-17020878D01*
X10100008Y-17030401D01*
X10109532Y-17049449D01*
X10119056Y-17087544D01*
X10119056Y-17135163D01*
X10109532Y-17173259D01*
X10100008Y-17192306D01*
X10090484Y-17201830D01*
X10071437Y-17211354D01*
X10052389Y-17211354D01*
X10033341Y-17201830D01*
X10023818Y-17192306D01*
X10014294Y-17173259D01*
X10004770Y-17135163D01*
X10004770Y-17087544D01*
X10014294Y-17049449D01*
X10023818Y-17030401D01*
X10033341Y-17020878D01*
X10052389Y-17011354D01*
X10204770Y-17192306D02*
X10214294Y-17201830D01*
X10204770Y-17211354D01*
X10195246Y-17201830D01*
X10204770Y-17192306D01*
X10204770Y-17211354D01*
X10404770Y-17211354D02*
X10290484Y-17211354D01*
X10347627Y-17211354D02*
X10347627Y-17011354D01*
X10328579Y-17039925D01*
X10309532Y-17058973D01*
X10290484Y-17068497D01*
X10595246Y-17211354D02*
X10480960Y-17211354D01*
X10538103Y-17211354D02*
X10538103Y-17011354D01*
X10519056Y-17039925D01*
X10500008Y-17058973D01*
X10480960Y-17068497D01*
X10709532Y-17097068D02*
X10690484Y-17087544D01*
X10680960Y-17078020D01*
X10671437Y-17058973D01*
X10671437Y-17049449D01*
X10680960Y-17030401D01*
X10690484Y-17020878D01*
X10709532Y-17011354D01*
X10747627Y-17011354D01*
X10766675Y-17020878D01*
X10776199Y-17030401D01*
X10785722Y-17049449D01*
X10785722Y-17058973D01*
X10776199Y-17078020D01*
X10766675Y-17087544D01*
X10747627Y-17097068D01*
X10709532Y-17097068D01*
X10690484Y-17106592D01*
X10680960Y-17116116D01*
X10671437Y-17135163D01*
X10671437Y-17173259D01*
X10680960Y-17192306D01*
X10690484Y-17201830D01*
X10709532Y-17211354D01*
X10747627Y-17211354D01*
X10766675Y-17201830D01*
X10776199Y-17192306D01*
X10785722Y-17173259D01*
X10785722Y-17135163D01*
X10776199Y-17116116D01*
X10766675Y-17106592D01*
X10747627Y-17097068D01*
X10976199Y-17211354D02*
X10861913Y-17211354D01*
X10919056Y-17211354D02*
X10919056Y-17011354D01*
X10900008Y-17039925D01*
X10880960Y-17058973D01*
X10861913Y-17068497D01*
X11052389Y-17011354D02*
X11052389Y-17049449D01*
X11128579Y-17011354D02*
X11128579Y-17049449D01*
X11423817Y-17287544D02*
X11414294Y-17278020D01*
X11395246Y-17249449D01*
X11385722Y-17230401D01*
X11376198Y-17201830D01*
X11366675Y-17154211D01*
X11366675Y-17116116D01*
X11376198Y-17068497D01*
X11385722Y-17039925D01*
X11395246Y-17020878D01*
X11414294Y-16992306D01*
X11423817Y-16982782D01*
X11528579Y-17097068D02*
X11509532Y-17087544D01*
X11500008Y-17078020D01*
X11490484Y-17058973D01*
X11490484Y-17049449D01*
X11500008Y-17030401D01*
X11509532Y-17020878D01*
X11528579Y-17011354D01*
X11566675Y-17011354D01*
X11585722Y-17020878D01*
X11595246Y-17030401D01*
X11604770Y-17049449D01*
X11604770Y-17058973D01*
X11595246Y-17078020D01*
X11585722Y-17087544D01*
X11566675Y-17097068D01*
X11528579Y-17097068D01*
X11509532Y-17106592D01*
X11500008Y-17116116D01*
X11490484Y-17135163D01*
X11490484Y-17173259D01*
X11500008Y-17192306D01*
X11509532Y-17201830D01*
X11528579Y-17211354D01*
X11566675Y-17211354D01*
X11585722Y-17201830D01*
X11595246Y-17192306D01*
X11604770Y-17173259D01*
X11604770Y-17135163D01*
X11595246Y-17116116D01*
X11585722Y-17106592D01*
X11566675Y-17097068D01*
X11776198Y-17078020D02*
X11776198Y-17211354D01*
X11728579Y-17001830D02*
X11680960Y-17144687D01*
X11804770Y-17144687D01*
X12033341Y-17211354D02*
X12033341Y-17011354D01*
X12119056Y-17211354D02*
X12119056Y-17106592D01*
X12109532Y-17087544D01*
X12090484Y-17078020D01*
X12061913Y-17078020D01*
X12042865Y-17087544D01*
X12033341Y-17097068D01*
X12242865Y-17211354D02*
X12223817Y-17201830D01*
X12214294Y-17192306D01*
X12204770Y-17173259D01*
X12204770Y-17116116D01*
X12214294Y-17097068D01*
X12223817Y-17087544D01*
X12242865Y-17078020D01*
X12271437Y-17078020D01*
X12290484Y-17087544D01*
X12300008Y-17097068D01*
X12309532Y-17116116D01*
X12309532Y-17173259D01*
X12300008Y-17192306D01*
X12290484Y-17201830D01*
X12271437Y-17211354D01*
X12242865Y-17211354D01*
X12423817Y-17211354D02*
X12404770Y-17201830D01*
X12395246Y-17182782D01*
X12395246Y-17011354D01*
X12576198Y-17201830D02*
X12557151Y-17211354D01*
X12519056Y-17211354D01*
X12500008Y-17201830D01*
X12490484Y-17182782D01*
X12490484Y-17106592D01*
X12500008Y-17087544D01*
X12519056Y-17078020D01*
X12557151Y-17078020D01*
X12576198Y-17087544D01*
X12585722Y-17106592D01*
X12585722Y-17125640D01*
X12490484Y-17144687D01*
X12661913Y-17201830D02*
X12680960Y-17211354D01*
X12719056Y-17211354D01*
X12738103Y-17201830D01*
X12747627Y-17182782D01*
X12747627Y-17173259D01*
X12738103Y-17154211D01*
X12719056Y-17144687D01*
X12690484Y-17144687D01*
X12671437Y-17135163D01*
X12661913Y-17116116D01*
X12661913Y-17106592D01*
X12671437Y-17087544D01*
X12690484Y-17078020D01*
X12719056Y-17078020D01*
X12738103Y-17087544D01*
X12814294Y-17287544D02*
X12823817Y-17278020D01*
X12842865Y-17249449D01*
X12852389Y-17230401D01*
X12861913Y-17201830D01*
X12871437Y-17154211D01*
X12871437Y-17116116D01*
X12861913Y-17068497D01*
X12852389Y-17039925D01*
X12842865Y-17020878D01*
X12823817Y-16992306D01*
X12814294Y-16982782D01*
X13176198Y-17287544D02*
X13166675Y-17278020D01*
X13147627Y-17249449D01*
X13138103Y-17230401D01*
X13128579Y-17201830D01*
X13119056Y-17154211D01*
X13119056Y-17116116D01*
X13128579Y-17068497D01*
X13138103Y-17039925D01*
X13147627Y-17020878D01*
X13166675Y-16992306D01*
X13176198Y-16982782D01*
X13252389Y-17078020D02*
X13252389Y-17211354D01*
X13252389Y-17097068D02*
X13261913Y-17087544D01*
X13280960Y-17078020D01*
X13309532Y-17078020D01*
X13328579Y-17087544D01*
X13338103Y-17106592D01*
X13338103Y-17211354D01*
X13461913Y-17211354D02*
X13442865Y-17201830D01*
X13433341Y-17192306D01*
X13423817Y-17173259D01*
X13423817Y-17116116D01*
X13433341Y-17097068D01*
X13442865Y-17087544D01*
X13461913Y-17078020D01*
X13490484Y-17078020D01*
X13509532Y-17087544D01*
X13519056Y-17097068D01*
X13528579Y-17116116D01*
X13528579Y-17173259D01*
X13519056Y-17192306D01*
X13509532Y-17201830D01*
X13490484Y-17211354D01*
X13461913Y-17211354D01*
X13585722Y-17078020D02*
X13661913Y-17078020D01*
X13614294Y-17011354D02*
X13614294Y-17182782D01*
X13623817Y-17201830D01*
X13642865Y-17211354D01*
X13661913Y-17211354D01*
X13880960Y-17078020D02*
X13880960Y-17278020D01*
X13880960Y-17087544D02*
X13900008Y-17078020D01*
X13938103Y-17078020D01*
X13957151Y-17087544D01*
X13966675Y-17097068D01*
X13976198Y-17116116D01*
X13976198Y-17173259D01*
X13966675Y-17192306D01*
X13957151Y-17201830D01*
X13938103Y-17211354D01*
X13900008Y-17211354D01*
X13880960Y-17201830D01*
X14090484Y-17211354D02*
X14071437Y-17201830D01*
X14061913Y-17182782D01*
X14061913Y-17011354D01*
X14252389Y-17211354D02*
X14252389Y-17106592D01*
X14242865Y-17087544D01*
X14223817Y-17078020D01*
X14185722Y-17078020D01*
X14166675Y-17087544D01*
X14252389Y-17201830D02*
X14233341Y-17211354D01*
X14185722Y-17211354D01*
X14166675Y-17201830D01*
X14157151Y-17182782D01*
X14157151Y-17163735D01*
X14166675Y-17144687D01*
X14185722Y-17135163D01*
X14233341Y-17135163D01*
X14252389Y-17125640D01*
X14319056Y-17078020D02*
X14395246Y-17078020D01*
X14347627Y-17011354D02*
X14347627Y-17182782D01*
X14357151Y-17201830D01*
X14376198Y-17211354D01*
X14395246Y-17211354D01*
X14538103Y-17201830D02*
X14519056Y-17211354D01*
X14480960Y-17211354D01*
X14461913Y-17201830D01*
X14452389Y-17182782D01*
X14452389Y-17106592D01*
X14461913Y-17087544D01*
X14480960Y-17078020D01*
X14519056Y-17078020D01*
X14538103Y-17087544D01*
X14547627Y-17106592D01*
X14547627Y-17125640D01*
X14452389Y-17144687D01*
X14719056Y-17211354D02*
X14719056Y-17011354D01*
X14719056Y-17201830D02*
X14700008Y-17211354D01*
X14661913Y-17211354D01*
X14642865Y-17201830D01*
X14633341Y-17192306D01*
X14623817Y-17173259D01*
X14623817Y-17116116D01*
X14633341Y-17097068D01*
X14642865Y-17087544D01*
X14661913Y-17078020D01*
X14700008Y-17078020D01*
X14719056Y-17087544D01*
X14795246Y-17287544D02*
X14804770Y-17278020D01*
X14823817Y-17249449D01*
X14833341Y-17230401D01*
X14842865Y-17201830D01*
X14852389Y-17154211D01*
X14852389Y-17116116D01*
X14842865Y-17068497D01*
X14833341Y-17039925D01*
X14823817Y-17020878D01*
X14804770Y-16992306D01*
X14795246Y-16982782D01*
X7651913Y-17340878D02*
X7851913Y-17540878D01*
X7851913Y-17340878D02*
X7651913Y-17540878D01*
X7751913Y-17340878D02*
X7751913Y-17540878D01*
X7651913Y-17440878D02*
X7851913Y-17440878D01*
X8090484Y-17331354D02*
X8214294Y-17331354D01*
X8147627Y-17407544D01*
X8176198Y-17407544D01*
X8195246Y-17417068D01*
X8204770Y-17426592D01*
X8214294Y-17445640D01*
X8214294Y-17493259D01*
X8204770Y-17512306D01*
X8195246Y-17521830D01*
X8176198Y-17531354D01*
X8119056Y-17531354D01*
X8100008Y-17521830D01*
X8090484Y-17512306D01*
X8300008Y-17512306D02*
X8309532Y-17521830D01*
X8300008Y-17531354D01*
X8290484Y-17521830D01*
X8300008Y-17512306D01*
X8300008Y-17531354D01*
X8480960Y-17398020D02*
X8480960Y-17531354D01*
X8433341Y-17321830D02*
X8385722Y-17464687D01*
X8509532Y-17464687D01*
X8623818Y-17331354D02*
X8642865Y-17331354D01*
X8661913Y-17340878D01*
X8671437Y-17350401D01*
X8680960Y-17369449D01*
X8690484Y-17407544D01*
X8690484Y-17455163D01*
X8680960Y-17493259D01*
X8671437Y-17512306D01*
X8661913Y-17521830D01*
X8642865Y-17531354D01*
X8623818Y-17531354D01*
X8604770Y-17521830D01*
X8595246Y-17512306D01*
X8585722Y-17493259D01*
X8576199Y-17455163D01*
X8576199Y-17407544D01*
X8585722Y-17369449D01*
X8595246Y-17350401D01*
X8604770Y-17340878D01*
X8623818Y-17331354D01*
X8814294Y-17331354D02*
X8833341Y-17331354D01*
X8852389Y-17340878D01*
X8861913Y-17350401D01*
X8871437Y-17369449D01*
X8880960Y-17407544D01*
X8880960Y-17455163D01*
X8871437Y-17493259D01*
X8861913Y-17512306D01*
X8852389Y-17521830D01*
X8833341Y-17531354D01*
X8814294Y-17531354D01*
X8795246Y-17521830D01*
X8785722Y-17512306D01*
X8776199Y-17493259D01*
X8766675Y-17455163D01*
X8766675Y-17407544D01*
X8776199Y-17369449D01*
X8785722Y-17350401D01*
X8795246Y-17340878D01*
X8814294Y-17331354D01*
X8966675Y-17531354D02*
X8966675Y-17398020D01*
X8966675Y-17417068D02*
X8976199Y-17407544D01*
X8995246Y-17398020D01*
X9023818Y-17398020D01*
X9042865Y-17407544D01*
X9052389Y-17426592D01*
X9052389Y-17531354D01*
X9052389Y-17426592D02*
X9061913Y-17407544D01*
X9080960Y-17398020D01*
X9109532Y-17398020D01*
X9128579Y-17407544D01*
X9138103Y-17426592D01*
X9138103Y-17531354D01*
X9233341Y-17531354D02*
X9233341Y-17398020D01*
X9233341Y-17417068D02*
X9242865Y-17407544D01*
X9261913Y-17398020D01*
X9290484Y-17398020D01*
X9309532Y-17407544D01*
X9319056Y-17426592D01*
X9319056Y-17531354D01*
X9319056Y-17426592D02*
X9328579Y-17407544D01*
X9347627Y-17398020D01*
X9376199Y-17398020D01*
X9395246Y-17407544D01*
X9404770Y-17426592D01*
X9404770Y-17531354D01*
X9795246Y-17321830D02*
X9623818Y-17578973D01*
X10052389Y-17331354D02*
X10071437Y-17331354D01*
X10090484Y-17340878D01*
X10100008Y-17350401D01*
X10109532Y-17369449D01*
X10119056Y-17407544D01*
X10119056Y-17455163D01*
X10109532Y-17493259D01*
X10100008Y-17512306D01*
X10090484Y-17521830D01*
X10071437Y-17531354D01*
X10052389Y-17531354D01*
X10033341Y-17521830D01*
X10023818Y-17512306D01*
X10014294Y-17493259D01*
X10004770Y-17455163D01*
X10004770Y-17407544D01*
X10014294Y-17369449D01*
X10023818Y-17350401D01*
X10033341Y-17340878D01*
X10052389Y-17331354D01*
X10204770Y-17512306D02*
X10214294Y-17521830D01*
X10204770Y-17531354D01*
X10195246Y-17521830D01*
X10204770Y-17512306D01*
X10204770Y-17531354D01*
X10404770Y-17531354D02*
X10290484Y-17531354D01*
X10347627Y-17531354D02*
X10347627Y-17331354D01*
X10328579Y-17359925D01*
X10309532Y-17378973D01*
X10290484Y-17388497D01*
X10471437Y-17331354D02*
X10595246Y-17331354D01*
X10528579Y-17407544D01*
X10557151Y-17407544D01*
X10576199Y-17417068D01*
X10585722Y-17426592D01*
X10595246Y-17445640D01*
X10595246Y-17493259D01*
X10585722Y-17512306D01*
X10576199Y-17521830D01*
X10557151Y-17531354D01*
X10500008Y-17531354D01*
X10480960Y-17521830D01*
X10471437Y-17512306D01*
X10661913Y-17331354D02*
X10785722Y-17331354D01*
X10719056Y-17407544D01*
X10747627Y-17407544D01*
X10766675Y-17417068D01*
X10776199Y-17426592D01*
X10785722Y-17445640D01*
X10785722Y-17493259D01*
X10776199Y-17512306D01*
X10766675Y-17521830D01*
X10747627Y-17531354D01*
X10690484Y-17531354D01*
X10671437Y-17521830D01*
X10661913Y-17512306D01*
X10880960Y-17531354D02*
X10919056Y-17531354D01*
X10938103Y-17521830D01*
X10947627Y-17512306D01*
X10966675Y-17483735D01*
X10976199Y-17445640D01*
X10976199Y-17369449D01*
X10966675Y-17350401D01*
X10957151Y-17340878D01*
X10938103Y-17331354D01*
X10900008Y-17331354D01*
X10880960Y-17340878D01*
X10871437Y-17350401D01*
X10861913Y-17369449D01*
X10861913Y-17417068D01*
X10871437Y-17436116D01*
X10880960Y-17445640D01*
X10900008Y-17455163D01*
X10938103Y-17455163D01*
X10957151Y-17445640D01*
X10966675Y-17436116D01*
X10976199Y-17417068D01*
X11052389Y-17331354D02*
X11052389Y-17369449D01*
X11128579Y-17331354D02*
X11128579Y-17369449D01*
X11423817Y-17607544D02*
X11414294Y-17598020D01*
X11395246Y-17569449D01*
X11385722Y-17550401D01*
X11376198Y-17521830D01*
X11366675Y-17474211D01*
X11366675Y-17436116D01*
X11376198Y-17388497D01*
X11385722Y-17359925D01*
X11395246Y-17340878D01*
X11414294Y-17312306D01*
X11423817Y-17302782D01*
X11490484Y-17350401D02*
X11500008Y-17340878D01*
X11519056Y-17331354D01*
X11566675Y-17331354D01*
X11585722Y-17340878D01*
X11595246Y-17350401D01*
X11604770Y-17369449D01*
X11604770Y-17388497D01*
X11595246Y-17417068D01*
X11480960Y-17531354D01*
X11604770Y-17531354D01*
X11719056Y-17417068D02*
X11700008Y-17407544D01*
X11690484Y-17398020D01*
X11680960Y-17378973D01*
X11680960Y-17369449D01*
X11690484Y-17350401D01*
X11700008Y-17340878D01*
X11719056Y-17331354D01*
X11757151Y-17331354D01*
X11776198Y-17340878D01*
X11785722Y-17350401D01*
X11795246Y-17369449D01*
X11795246Y-17378973D01*
X11785722Y-17398020D01*
X11776198Y-17407544D01*
X11757151Y-17417068D01*
X11719056Y-17417068D01*
X11700008Y-17426592D01*
X11690484Y-17436116D01*
X11680960Y-17455163D01*
X11680960Y-17493259D01*
X11690484Y-17512306D01*
X11700008Y-17521830D01*
X11719056Y-17531354D01*
X11757151Y-17531354D01*
X11776198Y-17521830D01*
X11785722Y-17512306D01*
X11795246Y-17493259D01*
X11795246Y-17455163D01*
X11785722Y-17436116D01*
X11776198Y-17426592D01*
X11757151Y-17417068D01*
X12033341Y-17531354D02*
X12033341Y-17331354D01*
X12119056Y-17531354D02*
X12119056Y-17426592D01*
X12109532Y-17407544D01*
X12090484Y-17398020D01*
X12061913Y-17398020D01*
X12042865Y-17407544D01*
X12033341Y-17417068D01*
X12242865Y-17531354D02*
X12223817Y-17521830D01*
X12214294Y-17512306D01*
X12204770Y-17493259D01*
X12204770Y-17436116D01*
X12214294Y-17417068D01*
X12223817Y-17407544D01*
X12242865Y-17398020D01*
X12271437Y-17398020D01*
X12290484Y-17407544D01*
X12300008Y-17417068D01*
X12309532Y-17436116D01*
X12309532Y-17493259D01*
X12300008Y-17512306D01*
X12290484Y-17521830D01*
X12271437Y-17531354D01*
X12242865Y-17531354D01*
X12423817Y-17531354D02*
X12404770Y-17521830D01*
X12395246Y-17502782D01*
X12395246Y-17331354D01*
X12576198Y-17521830D02*
X12557151Y-17531354D01*
X12519056Y-17531354D01*
X12500008Y-17521830D01*
X12490484Y-17502782D01*
X12490484Y-17426592D01*
X12500008Y-17407544D01*
X12519056Y-17398020D01*
X12557151Y-17398020D01*
X12576198Y-17407544D01*
X12585722Y-17426592D01*
X12585722Y-17445640D01*
X12490484Y-17464687D01*
X12661913Y-17521830D02*
X12680960Y-17531354D01*
X12719056Y-17531354D01*
X12738103Y-17521830D01*
X12747627Y-17502782D01*
X12747627Y-17493259D01*
X12738103Y-17474211D01*
X12719056Y-17464687D01*
X12690484Y-17464687D01*
X12671437Y-17455163D01*
X12661913Y-17436116D01*
X12661913Y-17426592D01*
X12671437Y-17407544D01*
X12690484Y-17398020D01*
X12719056Y-17398020D01*
X12738103Y-17407544D01*
X12814294Y-17607544D02*
X12823817Y-17598020D01*
X12842865Y-17569449D01*
X12852389Y-17550401D01*
X12861913Y-17521830D01*
X12871437Y-17474211D01*
X12871437Y-17436116D01*
X12861913Y-17388497D01*
X12852389Y-17359925D01*
X12842865Y-17340878D01*
X12823817Y-17312306D01*
X12814294Y-17302782D01*
X13176198Y-17607544D02*
X13166675Y-17598020D01*
X13147627Y-17569449D01*
X13138103Y-17550401D01*
X13128579Y-17521830D01*
X13119056Y-17474211D01*
X13119056Y-17436116D01*
X13128579Y-17388497D01*
X13138103Y-17359925D01*
X13147627Y-17340878D01*
X13166675Y-17312306D01*
X13176198Y-17302782D01*
X13252389Y-17398020D02*
X13252389Y-17531354D01*
X13252389Y-17417068D02*
X13261913Y-17407544D01*
X13280960Y-17398020D01*
X13309532Y-17398020D01*
X13328579Y-17407544D01*
X13338103Y-17426592D01*
X13338103Y-17531354D01*
X13461913Y-17531354D02*
X13442865Y-17521830D01*
X13433341Y-17512306D01*
X13423817Y-17493259D01*
X13423817Y-17436116D01*
X13433341Y-17417068D01*
X13442865Y-17407544D01*
X13461913Y-17398020D01*
X13490484Y-17398020D01*
X13509532Y-17407544D01*
X13519056Y-17417068D01*
X13528579Y-17436116D01*
X13528579Y-17493259D01*
X13519056Y-17512306D01*
X13509532Y-17521830D01*
X13490484Y-17531354D01*
X13461913Y-17531354D01*
X13585722Y-17398020D02*
X13661913Y-17398020D01*
X13614294Y-17331354D02*
X13614294Y-17502782D01*
X13623817Y-17521830D01*
X13642865Y-17531354D01*
X13661913Y-17531354D01*
X13880960Y-17398020D02*
X13880960Y-17598020D01*
X13880960Y-17407544D02*
X13900008Y-17398020D01*
X13938103Y-17398020D01*
X13957151Y-17407544D01*
X13966675Y-17417068D01*
X13976198Y-17436116D01*
X13976198Y-17493259D01*
X13966675Y-17512306D01*
X13957151Y-17521830D01*
X13938103Y-17531354D01*
X13900008Y-17531354D01*
X13880960Y-17521830D01*
X14090484Y-17531354D02*
X14071437Y-17521830D01*
X14061913Y-17502782D01*
X14061913Y-17331354D01*
X14252389Y-17531354D02*
X14252389Y-17426592D01*
X14242865Y-17407544D01*
X14223817Y-17398020D01*
X14185722Y-17398020D01*
X14166675Y-17407544D01*
X14252389Y-17521830D02*
X14233341Y-17531354D01*
X14185722Y-17531354D01*
X14166675Y-17521830D01*
X14157151Y-17502782D01*
X14157151Y-17483735D01*
X14166675Y-17464687D01*
X14185722Y-17455163D01*
X14233341Y-17455163D01*
X14252389Y-17445640D01*
X14319056Y-17398020D02*
X14395246Y-17398020D01*
X14347627Y-17331354D02*
X14347627Y-17502782D01*
X14357151Y-17521830D01*
X14376198Y-17531354D01*
X14395246Y-17531354D01*
X14538103Y-17521830D02*
X14519056Y-17531354D01*
X14480960Y-17531354D01*
X14461913Y-17521830D01*
X14452389Y-17502782D01*
X14452389Y-17426592D01*
X14461913Y-17407544D01*
X14480960Y-17398020D01*
X14519056Y-17398020D01*
X14538103Y-17407544D01*
X14547627Y-17426592D01*
X14547627Y-17445640D01*
X14452389Y-17464687D01*
X14719056Y-17531354D02*
X14719056Y-17331354D01*
X14719056Y-17521830D02*
X14700008Y-17531354D01*
X14661913Y-17531354D01*
X14642865Y-17521830D01*
X14633341Y-17512306D01*
X14623817Y-17493259D01*
X14623817Y-17436116D01*
X14633341Y-17417068D01*
X14642865Y-17407544D01*
X14661913Y-17398020D01*
X14700008Y-17398020D01*
X14719056Y-17407544D01*
X14795246Y-17607544D02*
X14804770Y-17598020D01*
X14823817Y-17569449D01*
X14833341Y-17550401D01*
X14842865Y-17521830D01*
X14852389Y-17474211D01*
X14852389Y-17436116D01*
X14842865Y-17388497D01*
X14833341Y-17359925D01*
X14823817Y-17340878D01*
X14804770Y-17312306D01*
X14795246Y-17302782D01*
M02*
