%TF.GenerationSoftware,KiCad,Pcbnew,(6.0.0)*%
%TF.CreationDate,2022-08-16T23:40:52+02:00*%
%TF.ProjectId,SofleKeyboard,536f666c-654b-4657-9962-6f6172642e6b,rev?*%
%TF.SameCoordinates,Original*%
%TF.FileFunction,Paste,Bot*%
%TF.FilePolarity,Positive*%
%FSLAX46Y46*%
G04 Gerber Fmt 4.6, Leading zero omitted, Abs format (unit mm)*
G04 Created by KiCad (PCBNEW (6.0.0)) date 2022-08-16 23:40:52*
%MOMM*%
%LPD*%
G01*
G04 APERTURE LIST*
G04 Aperture macros list*
%AMRotRect*
0 Rectangle, with rotation*
0 The origin of the aperture is its center*
0 $1 length*
0 $2 width*
0 $3 Rotation angle, in degrees counterclockwise*
0 Add horizontal line*
21,1,$1,$2,0,0,$3*%
G04 Aperture macros list end*
%ADD10R,0.950000X1.300000*%
%ADD11R,1.300000X0.950000*%
%ADD12RotRect,1.300000X0.950000X200.000000*%
%ADD13R,1.700000X1.000000*%
%ADD14R,1.600000X2.200000*%
%ADD15RotRect,1.700000X1.000000X110.000000*%
%ADD16RotRect,1.600000X2.200000X110.000000*%
%ADD17RotRect,1.700000X1.000000X190.000000*%
%ADD18RotRect,1.600000X2.200000X190.000000*%
%ADD19RotRect,1.700000X1.000000X170.000000*%
%ADD20RotRect,1.600000X2.200000X170.000000*%
%ADD21RotRect,1.300000X0.950000X280.000000*%
%ADD22RotRect,1.300000X0.950000X260.000000*%
%ADD23R,1.143000X0.635000*%
G04 APERTURE END LIST*
D10*
X128705000Y-44452000D03*
X128705000Y-48002000D03*
X131245000Y-44455000D03*
X131245000Y-48005000D03*
X150345000Y-41955000D03*
X150345000Y-45505000D03*
X169345000Y-44455000D03*
X169345000Y-48005000D03*
X188590120Y-58490640D03*
X188590120Y-62040640D03*
X207690120Y-58620640D03*
X207690120Y-62170640D03*
X128705000Y-82555000D03*
X128705000Y-86105000D03*
X128705000Y-101655000D03*
X128705000Y-105205000D03*
D11*
X105225000Y-97000000D03*
X108775000Y-97000000D03*
D12*
X92271132Y-128537505D03*
X88935224Y-129751677D03*
D13*
X117800000Y-44601000D03*
X117800000Y-46001000D03*
X123300000Y-46001000D03*
X123300000Y-44601000D03*
D14*
X123350000Y-55900000D03*
X112750000Y-53700000D03*
D13*
X155900000Y-39601000D03*
X155900000Y-41001000D03*
X161400000Y-41001000D03*
X161400000Y-39601000D03*
D14*
X161450000Y-50900000D03*
X150850000Y-48700000D03*
D13*
X117800000Y-82701000D03*
X117800000Y-84101000D03*
X123300000Y-84101000D03*
X123300000Y-82701000D03*
D14*
X123350000Y-94000000D03*
X112750000Y-91800000D03*
D13*
X136850000Y-80201000D03*
X136850000Y-81601000D03*
X142350000Y-81601000D03*
X142350000Y-80201000D03*
D14*
X142400000Y-91500000D03*
X131800000Y-89300000D03*
D13*
X117800000Y-101751000D03*
X117800000Y-103151000D03*
X123300000Y-103151000D03*
X123300000Y-101751000D03*
D14*
X123350000Y-113050000D03*
X112750000Y-110850000D03*
D13*
X155900000Y-96751000D03*
X155900000Y-98151000D03*
X161400000Y-98151000D03*
X161400000Y-96751000D03*
D14*
X161450000Y-108050000D03*
X150850000Y-105850000D03*
D13*
X194039120Y-113493640D03*
X194039120Y-114893640D03*
X199539120Y-114893640D03*
X199539120Y-113493640D03*
D14*
X199589120Y-124792640D03*
X188989120Y-122592640D03*
D15*
X96000264Y-133109958D03*
X94684694Y-133588786D03*
X96565805Y-138757095D03*
X97881375Y-138278267D03*
D16*
X87280889Y-142189737D03*
X85722799Y-131476551D03*
D17*
X108303372Y-127353195D03*
X108546480Y-128731926D03*
X113962922Y-127776861D03*
X113719815Y-126398130D03*
D18*
X115731106Y-137516791D03*
X104910118Y-137190884D03*
D13*
X213089120Y-75393640D03*
X213089120Y-76793640D03*
X218589120Y-76793640D03*
X218589120Y-75393640D03*
D14*
X218639120Y-86692640D03*
X208039120Y-84492640D03*
D13*
X213089120Y-94443640D03*
X213089120Y-95843640D03*
X218589120Y-95843640D03*
X218589120Y-94443640D03*
D14*
X218639120Y-105742640D03*
X208039120Y-103542640D03*
D13*
X213089120Y-113493640D03*
X213089120Y-114893640D03*
X218589120Y-114893640D03*
X218589120Y-113493640D03*
D14*
X218639120Y-124792640D03*
X208039120Y-122592640D03*
D13*
X174950000Y-42101000D03*
X174950000Y-43501000D03*
X180450000Y-43501000D03*
X180450000Y-42101000D03*
D14*
X180500000Y-53400000D03*
X169900000Y-51200000D03*
D10*
X128705000Y-63555000D03*
X128705000Y-67105000D03*
X131245000Y-63555000D03*
X131245000Y-67105000D03*
X150345000Y-61045000D03*
X150345000Y-64595000D03*
X169345000Y-63455000D03*
X169345000Y-67005000D03*
X188590120Y-77520640D03*
X188590120Y-81070640D03*
X207590120Y-77520640D03*
X207590120Y-81070640D03*
D13*
X194039120Y-56343640D03*
X194039120Y-57743640D03*
X199539120Y-57743640D03*
X199539120Y-56343640D03*
D14*
X199589120Y-67642640D03*
X188989120Y-65442640D03*
D13*
X136850000Y-61151000D03*
X136850000Y-62551000D03*
X142350000Y-62551000D03*
X142350000Y-61151000D03*
D14*
X142400000Y-72450000D03*
X131800000Y-70250000D03*
D13*
X174950000Y-61151000D03*
X174950000Y-62551000D03*
X180450000Y-62551000D03*
X180450000Y-61151000D03*
D14*
X180500000Y-72450000D03*
X169900000Y-70250000D03*
D13*
X155900000Y-58651000D03*
X155900000Y-60051000D03*
X161400000Y-60051000D03*
X161400000Y-58651000D03*
D14*
X161450000Y-69950000D03*
X150850000Y-67750000D03*
D13*
X174950000Y-80201000D03*
X174950000Y-81601000D03*
X180450000Y-81601000D03*
X180450000Y-80201000D03*
D14*
X180500000Y-91500000D03*
X169900000Y-89300000D03*
D13*
X213089120Y-56343640D03*
X213089120Y-57743640D03*
X218589120Y-57743640D03*
X218589120Y-56343640D03*
D14*
X218639120Y-67642640D03*
X208039120Y-65442640D03*
D13*
X117800000Y-63701000D03*
X117800000Y-65101000D03*
X123300000Y-65101000D03*
X123300000Y-63701000D03*
D14*
X123350000Y-75000000D03*
X112750000Y-72800000D03*
D13*
X194039120Y-75393640D03*
X194039120Y-76793640D03*
X199539120Y-76793640D03*
X199539120Y-75393640D03*
D14*
X199589120Y-86692640D03*
X188989120Y-84492640D03*
D13*
X174950000Y-99251000D03*
X174950000Y-100651000D03*
X180450000Y-100651000D03*
X180450000Y-99251000D03*
D14*
X180500000Y-110550000D03*
X169900000Y-108350000D03*
D13*
X194039120Y-94443640D03*
X194039120Y-95843640D03*
X199539120Y-95843640D03*
X199539120Y-94443640D03*
D14*
X199589120Y-105742640D03*
X188989120Y-103542640D03*
D19*
X151408425Y-126468130D03*
X151165318Y-127846861D03*
X156581760Y-128801926D03*
X156824868Y-127423195D03*
D20*
X154912057Y-138559221D03*
X144855121Y-134551973D03*
D13*
X155900000Y-77701000D03*
X155900000Y-79101000D03*
X161400000Y-79101000D03*
X161400000Y-77701000D03*
D14*
X161450000Y-89000000D03*
X150850000Y-86800000D03*
D13*
X136850000Y-42101000D03*
X136850000Y-43501000D03*
X142350000Y-43501000D03*
X142350000Y-42101000D03*
D14*
X142400000Y-53400000D03*
X131800000Y-51200000D03*
D21*
X103399710Y-130525648D03*
X104016162Y-134021716D03*
D13*
X136850000Y-99251000D03*
X136850000Y-100651000D03*
X142350000Y-100651000D03*
X142350000Y-99251000D03*
D14*
X142400000Y-110550000D03*
X131800000Y-108350000D03*
D10*
X150345000Y-80145000D03*
X150345000Y-83695000D03*
X169345000Y-82555000D03*
X169345000Y-86105000D03*
X188590120Y-96720640D03*
X188590120Y-100270640D03*
X207590120Y-96720640D03*
X207590120Y-100270640D03*
X124190120Y-127410640D03*
X124190120Y-130960640D03*
D22*
X145470743Y-127906844D03*
X144854291Y-131402912D03*
D10*
X207640120Y-115720640D03*
X207640120Y-119270640D03*
X131245000Y-101655000D03*
X131245000Y-105205000D03*
X150345000Y-99145000D03*
X150345000Y-102695000D03*
X169345000Y-101655000D03*
X169345000Y-105205000D03*
X188590120Y-115720640D03*
X188590120Y-119270640D03*
X131245000Y-82555000D03*
X131245000Y-86105000D03*
D13*
X129849120Y-125053640D03*
X129849120Y-126453640D03*
X135349120Y-126453640D03*
X135349120Y-125053640D03*
D14*
X135399120Y-136352640D03*
X124799120Y-134152640D03*
D23*
X101700000Y-69800380D03*
X101700000Y-68799620D03*
X99200000Y-69800380D03*
X99200000Y-68799620D03*
X96700000Y-69800380D03*
X96700000Y-68799620D03*
X104300000Y-69800380D03*
X104300000Y-68799620D03*
M02*
